{
.appVersion = "3343";
.formatVersion = 3;
DisplayStrings = (
Topographye,
"111111/one.tf.ss01/one.tf.ss01/one.tf.ss01/one.tf.ss01/one.tf.ss01/one.tf.ss01",
"i/i.ss01 ı/idotless.ss01",
Briese,
Plattensee
);
axes = (
{
name = Contrast;
tag = CNTR;
},
{
name = Width;
tag = wdth;
},
{
name = Weight;
tag = wght;
},
{
name = Italic;
tag = ital;
}
);
classes = (
{
automatic = 1;
code = "A Adieresis B C C.ss01 D E F G G.ss01 H I J K K.ss01 L M N O Odieresis P Q R R.ss01 S S.ss01 T U Udieresis V W X Y Z C_h";
name = Uppercase;
}
);
customParameters = (
{
name = "Has WWS Names";
value = 0;
},
{
name = "Use Typo Metrics";
value = 1;
}
);
date = "2025-02-16 18:25:38 +0000";
familyName = Topography;
featurePrefixes = (
{
automatic = 1;
code = "languagesystem DFLT dflt;
";
name = Languagesystems;
}
);
features = (
{
automatic = 1;
code = "feature tnum;
feature case;
feature ss01;
";
tag = aalt;
},
{
automatic = 1;
code = "lookup ccmp_DFLT_1 {
	@CombiningTopAccents = [dieresiscomb dotaccentcomb];
	lookupflag UseMarkFilteringSet @CombiningTopAccents;
	sub i' @CombiningTopAccents by idotless;
	sub j' @CombiningTopAccents by jdotless;
} ccmp_DFLT_1;

lookup ccmp_Other_1 {
	lookupflag 0;
	@Markscomb = [dieresiscomb];
	@MarkscombCase = [dieresiscomb.case];
	sub @Markscomb @Markscomb' by @MarkscombCase;
	sub @Uppercase @Markscomb' by @MarkscombCase;
} ccmp_Other_1;

lookup ccmp_Other_2 {
	lookupflag 0;
	sub @Markscomb' @MarkscombCase by @MarkscombCase;
	sub @MarkscombCase @Markscomb' by @MarkscombCase;
} ccmp_Other_2;
";
tag = ccmp;
},
{
automatic = 1;
code = "sub one by one.tf;
";
tag = tnum;
},
{
automatic = 1;
code = "sub dieresiscomb by dieresiscomb.case;
";
tag = case;
},
{
automatic = 1;
code = "lookupflag IgnoreMarks;
sub C h by C_h;
sub c h by c_h;
sub c k by c_k;
";
tag = dlig;
},
{
automatic = 1;
code = "sub C by C.ss01;
sub G by G.ss01;
sub K by K.ss01;
sub R by R.ss01;
sub S by S.ss01;
sub a by a.ss01;
sub adieresis by adieresis.ss01;
sub c by c.ss01;
sub d by d.ss01;

glyphs = (
{
glyphname = A;
kernLeft = A;
kernRight = A;
lastChange = "2025-02-16 21:08:49 +0000";
layers = (
{
anchors = (
{
name = bottom;
pos = (310,0);
},
{
name = ogonek;
pos = (558,10);
},
{
name = top;
pos = (310,670);
}
);
layerId = "484F8FD9-52EC-47CF-91D8-DA5450121283";
shapes = (
{
closed = 1;
nodes = (
(427,215,l),
(427,245,l),
(147,245,l),
(147,215,l)
);
},
{
closed = 1;
nodes = (
(109,143,ls),
(84,62,o),
(46,30,o),
(-15,30,cs),
(-25,30,l),
(-25,0,l),
(240,0,l),
(240,30,l),
(230,30,ls),
(135,30,o),
(124,82,o),
(152,171,cs),
(279,582,ls),
(258,582,l),
(408,106,ls),
(427,47,o),
(415,30,o),
(367,30,cs),
(330,30,l),
(330,0,l),
(625,0,l),
(625,30,l),
(587,30,ls),
(543,30,o),
(524,54,o),
(503,122,cs),
(328,680,ls),
(275,680,l)
);
},
{
closed = 1;
nodes = (
(281,542,l),
(281,559,l),
(258,559,l),
(258,542,l)
);
}
);
width = 620;
},
{
anchors = (
{
name = bottom;
pos = (237,0);
},
{
name = ogonek;
pos = (488,10);
},
{
name = top;
pos = (460,670);
}
);
layerId = m002;
shapes = (
{
closed = 1;
nodes = (
(425,215,l),
(435,245,l),
(155,245,l),
(145,215,l)
);
},
{
closed = 1;
nodes = (
(83,143,ls),
(31,62,o),
(-17,30,o),
(-78,30,cs),
(-88,30,l),
(-98,0,l),
(167,0,l),
(177,30,l),
(167,30,ls),
(72,30,o),
(78,82,o),
(136,171,cs),
(400,582,ls),
(379,582,l),
(370,106,ls),
(369,47,o),
(352,30,o),
(304,30,cs),
(267,30,l),
(257,0,l),
(552,0,l),
(562,30,l),
(524,30,ls),
(480,30,o),
(469,54,o),
(470,122,cs),
(481,680,ls),
(428,680,l)
);
},
{
closed = 1;
nodes = (
(388,542,l),
(394,559,l),
(371,559,l),
(365,542,l)
);
}
);
width = 620;
},
{
anchors = (
{
name = bottom;
pos = (383,0);
},
{
name = ogonek;
pos = (628,10);
},
{
name = top;
pos = (160,670);
}
);
layerId = m003;
shapes = (
{
closed = 1;
nodes = (
(429,215,l),
(419,245,l),
(139,245,l),
(149,215,l)
);
},
{
closed = 1;
nodes = (
(135,143,ls),
(137,62,o),
(109,30,o),
(48,30,cs),
(38,30,l),
(48,0,l),
(313,0,l),
(303,30,l),
(293,30,ls),
(198,30,o),
(170,82,o),
(168,171,cs),
(158,582,ls),
(137,582,l),
(446,106,ls),
(485,47,o),
(478,30,o),
(430,30,cs),
(393,30,l),
(403,0,l),
(698,0,l),
(688,30,l),
(650,30,ls),
(606,30,o),
(579,54,o),
(536,122,cs),
(175,680,ls),
(122,680,l)
);
},
{
closed = 1;
nodes = (
(174,542,l),
(168,559,l),
(145,559,l),
(151,542,l)
);
}
);
width = 620;
}
);
unicode = 65;
userData = {
com.typemytype.robofont.layerData = {
background = {
anchors = (
);
components = (
);
contours = (
);
lib = {
};
name = A;
unicodes = (
);
width = 620;
};
};
com.typemytype.robofont.mark = (
0.9366,
0.9212,
0.4821,
1
);
};
},
{
glyphname = B;
kernLeft = B;
lastChange = "2025-02-16 21:08:58 +0000";
layers = (
{
backgroundImage = {
imagePath = "/Users/kuti/Speicher/Archiv/Bildarchiv/Typo-Scans/Topographie/Schriftgroessen 7.jpg";
locked = 1;
pos = (-1686,-561);
scale = (4.1256,4.1256);
};
hints = (
{
name = _corner.serif.uc;
origin = (0,15);
type = Corner;
},
{
name = _corner.serif.uc;
options = 1;
origin = (0,14);
scale = (-1,1);
type = Corner;
}
);
layerId = "484F8FD9-52EC-47CF-91D8-DA5450121283";
shapes = (
{
closed = 1;
nodes = (
(352,0,ls),
(473,0,o),
(560,65,o),
(560,181,cs),
(560,279,o),
(482,351,o),
(342,351,c),
(342,345,l),
(458,345,o),
(543,410,o),
(543,508,cs),
(543,602,o),
(473,670,o),
(312,670,cs),
(100,670,l),
(100,0,l)
);
},
{
closed = 1;
nodes = (
(205,640,l),
(303,640,ls),
(385,640,o),
(437,584,o),
(437,500,cs),
(437,424,o),
(404,362,o),
(303,362,cs),
(166,362,l),
(166,332,l),
(306,332,ls),
(416,332,o),
(450,269,o),
(450,182,cs),
(450,94,o),
(405,30,o),
(306,30,cs),
(205,30,l)
);
},
{
closed = 1;
nodes = (
(400,338,l),
(400,358,l),
(315,358,l),
(315,338,l)
);
}
);
width = 620;
},
{
backgroundImage = {
imagePath = "/Users/kuti/Speicher/Archiv/Bildarchiv/Typo-Scans/Topographie/Schriftgroessen 7.jpg";
locked = 1;
pos = (-1686,-561);
scale = (4.1256,4.1256);
slant = (18.435,0);
};
hints = (
{
name = _corner.serif.uc;
origin = (0,15);
type = Corner;
},
{
name = _corner.serif.uc;
options = 1;
origin = (0,14);
scale = (-1,1);
type = Corner;
}
);
layerId = m002;
shapes = (
{
closed = 1;
nodes = (
(279,0,ls),
(400,0,o),
(508,65,o),
(547,181,cs),
(580,279,o),
(526,351,o),
(386,351,c),
(384,345,l),
(500,345,o),
(606,410,o),
(639,508,cs),
(670,602,o),
(623,670,o),
(462,670,cs),
(250,670,l),
(27,0,l)
);
},
{
closed = 1;
nodes = (
(345,640,l),
(443,640,ls),
(525,640,o),
(558,584,o),
(530,500,cs),
(505,424,o),
(451,362,o),
(350,362,cs),
(213,362,l),
(203,332,l),
(343,332,ls),
(453,332,o),
(466,269,o),
(437,182,cs),
(408,94,o),
(342,30,o),
(243,30,cs),
(142,30,l)
);
},
{
closed = 1;
nodes = (
(439,338,l),
(446,358,l),
(361,358,l),
(354,338,l)
);
}
);
width = 620;
},
{
hints = (
{
name = _corner.serif.uc;
origin = (0,15);
type = Corner;
},
{
name = _corner.serif.uc;
options = 1;
origin = (0,14);
scale = (-1,1);
type = Corner;
}
);
layerId = m003;
shapes = (
{
closed = 1;
nodes = (
(425,0,ls),
(546,0,o),
(612,65,o),
(573,181,cs),
(540,279,o),
(438,351,o),
(298,351,c),
(300,345,l),
(416,345,o),
(480,410,o),
(447,508,cs),
(416,602,o),
(323,670,o),
(162,670,cs),
(-50,670,l),
(173,0,l)
);
},
{
closed = 1;
nodes = (
(65,640,l),
(163,640,ls),
(245,640,o),
(316,584,o),
(344,500,cs),
(369,424,o),
(357,362,o),
(256,362,cs),
(119,362,l),
(129,332,l),
(269,332,ls),
(379,332,o),
(434,269,o),
(463,182,cs),
(492,94,o),
(468,30,o),
(369,30,cs),
(268,30,l)
);
},
{
closed = 1;
nodes = (
(361,338,l),
(354,358,l),
(269,358,l),
(276,338,l)
);
}
);
width = 620;
}
);
metricLeft = H;
unicode = 66;
userData = {
com.typemytype.robofont.layerData = {
background = {
anchors = (
);
components = (
);
contours = (
);
lib = {
};
name = B;
unicodes = (
);
width = 620;
};
};
com.typemytype.robofont.mark = (
0.9366,
0.9212,
0.4821,
1
);
};
},
{
glyphname = C;
kernLeft = C;
lastChange = "2025-02-16 21:22:18 +0000";
layers = (
{
background = {
shapes = (
{
closed = 1;
nodes = (
(471,688,o),
(329,688,cs),
(180,688,o),
(50,572,o),
(50,335,cs),
(50,98,o),
(180,-18,o),
(340,-18,cs),
(460,-18,o),
(537,40,o),
(606,165,c),
(578,180,l),
(515,74,o),
(452,22,o),
(369,22,cs),
(219,22,o),
(165,131,o),
(165,335,cs),
(165,546,o),
(209,657,o),
(328,657,cs),
(370,657,o),
(399,640,o),
(399,613,cs),
(399,586,o),
(383,582,o),
(383,547,cs),
(383,508,o),
(410,482,o),
(452,482,cs),
(493,482,o),
(525,513,o),
(525,560,cs),
(525,622,o)
);
}
);
};
layerId = "484F8FD9-52EC-47CF-91D8-DA5450121283";
shapes = (
{
closed = 1;
nodes = (
(555,673,l),
(526,673,l),
(515,653,o),
(500,644,o),
(479,644,cs),
(460,644,o),
(443,654,o),
(422,664,cs),
(391,678,o),
(362,686,o),
(326,686,cs),
(180,686,o),
(50,557,o),
(50,335,cs),
(50,114,o),
(180,-16,o),
(327,-16,cs),
(471,-16,o),
(546,84,o),
(563,232,c),
(525,232,l),
(509,107,o),
(452,19,o),
(330,19,cs),
(209,19,o),
(165,129,o),
(165,335,cs),
(165,545,o),
(209,655,o),
(328,655,cs),
(420,655,o),
(495,570,o),
(523,433,c),
(555,433,l)
);
}
);
width = 638;
},
{
background = {
shapes = (
{
closed = 1;
nodes = (
(471,688,o),
(329,688,cs),
(180,688,o),
(50,572,o),
(50,335,cs),
(50,98,o),
(180,-18,o),
(340,-18,cs),
(460,-18,o),
(537,40,o),
(606,165,c),
(578,180,l),
(515,74,o),
(452,22,o),
(369,22,cs),
(219,22,o),
(165,131,o),
(165,335,cs),
(165,546,o),
(209,657,o),
(328,657,cs),
(370,657,o),
(399,640,o),
(399,613,cs),
(399,586,o),
(383,582,o),
(383,547,cs),
(383,508,o),
(410,482,o),
(452,482,cs),
(493,482,o),
(525,513,o),
(525,560,cs),
(525,622,o)
);
}
);
};
layerId = m002;
shapes = (
{
closed = 1;
nodes = (
(706,673,l),
(677,673,l),
(659,653,o),
(641,644,o),
(620,644,cs),
(601,644,o),
(588,654,o),
(570,664,cs),
(544,678,o),
(517,686,o),
(481,686,cs),
(335,686,o),
(162,557,o),
(88,335,cs),
(15,114,o),
(101,-16,o),
(248,-16,cs),
(392,-16,o),
(501,84,o),
(567,232,c),
(529,232,l),
(471,107,o),
(385,19,o),
(263,19,cs),
(142,19,o),
(135,129,o),
(203,335,cs),
(273,545,o),
(354,655,o),
(473,655,cs),
(565,655,o),
(612,570,o),
(594,433,c),
(626,433,l)
);
}
);
width = 638;
},
{
background = {
shapes = (
{
closed = 1;
nodes = (
(471,688,o),
(329,688,cs),
(180,688,o),
(50,572,o),
(50,335,cs),
(50,98,o),
(180,-18,o),
(340,-18,cs),
(460,-18,o),
(537,40,o),
(606,165,c),
(578,180,l),
(515,74,o),
(452,22,o),
(369,22,cs),
(219,22,o),
(165,131,o),
(165,335,cs),
(165,546,o),
(209,657,o),
(328,657,cs),
(370,657,o),
(399,640,o),
(399,613,cs),
(399,586,o),
(383,582,o),
(383,547,cs),
(383,508,o),
(410,482,o),
(452,482,cs),
(493,482,o),
(525,513,o),
(525,560,cs),
(525,622,o)
);
}
);
};
layerId = m003;
shapes = (
{
closed = 1;
nodes = (
(404,673,l),
(375,673,l),
(371,653,o),
(359,644,o),
(338,644,cs),
(319,644,o),
(298,654,o),
(274,664,cs),
(238,678,o),
(207,686,o),
(171,686,cs),
(25,686,o),
(-62,557,o),
(12,335,cs),
(85,114,o),
(259,-16,o),
(406,-16,cs),
(550,-16,o),
(591,84,o),
(559,232,c),
(521,232,l),
(547,107,o),
(519,19,o),
(397,19,cs),
(276,19,o),
(195,129,o),
(127,335,cs),
(57,545,o),
(64,655,o),
(183,655,cs),
(275,655,o),
(378,570,o),
(452,433,c),
(484,433,l)
);
}
);
width = 638;
}
);
unicode = 67;
userData = {
com.typemytype.robofont.layerData = {
background = {
anchors = (
);
components = (
);
contours = (
{
points = (
{
segmentType = line;
smooth = 0;
x = 555;
y = 435;
},
{
segmentType = line;
smooth = 0;
x = 555;
y = 675;
},
{
segmentType = line;
smooth = 0;
x = 526;
y = 675;
},
{
smooth = 0;
x = 515;
y = 655;
},
{
smooth = 0;
x = 500;
y = 646;
},
{
segmentType = curve;
smooth = 1;
x = 479;
y = 646;
},
{
smooth = 0;
x = 460;
y = 646;
},
{
smooth = 0;
x = 443;
y = 656;
},
{
segmentType = curve;
smooth = 1;
x = 422;
y = 666;
},
{
smooth = 0;
x = 391;
y = 680;
},
{
smooth = 0;
x = 362;
y = 688;
},
{
segmentType = curve;
smooth = 1;
x = 326;
y = 688;
},
{
smooth = 0;
x = 180;
y = 688;
},
{
smooth = 0;
x = 50;
y = 558;
},
{
segmentType = curve;
smooth = 1;
x = 50;
y = 335;
},
{
smooth = 0;
x = 50;
y = 113;
},
{
smooth = 0;
x = 180;
y = -18;
},
{
segmentType = curve;
smooth = 1;
x = 327;
y = -18;
},
{
smooth = 0;
x = 471;
y = -18;
},
{
smooth = 0;
x = 546;
y = 86;
},
{
segmentType = curve;
smooth = 0;
x = 563;
y = 230;
},
{
segmentType = line;
smooth = 0;
x = 523;
y = 230;
},
{
smooth = 0;
x = 510;
y = 101;
},
{
smooth = 0;
x = 448;
y = 15;
},
{
segmentType = curve;
smooth = 1;
x = 330;
y = 15;
},
{
smooth = 0;
x = 209;
y = 15;
},
{
smooth = 0;
x = 165;
y = 126;
},
{
segmentType = curve;
smooth = 1;
x = 165;
y = 335;
},
{
smooth = 0;
x = 165;
y = 546;
},
{
smooth = 0;
x = 209;
y = 657;
},
{
segmentType = curve;
smooth = 1;
x = 328;
y = 657;
},
{
smooth = 0;
x = 420;
y = 657;
},
{
smooth = 0;
x = 495;
y = 572;
},
{
segmentType = curve;
smooth = 0;
x = 523;
y = 435;
}
);
}
);
lib = {
};
name = C;
unicodes = (
);
width = 638;
};
};
com.typemytype.robofont.mark = (
0.9366,
0.9212,
0.4821,
1
);
};
},
{
color = 3;
glyphname = C.ss01;
kernLeft = C;
lastChange = "2025-02-16 21:22:28 +0000";
layers = (
{
layerId = "484F8FD9-52EC-47CF-91D8-DA5450121283";
shapes = (
{
closed = 1;
nodes = (
(471,686,o),
(329,686,cs),
(180,686,o),
(50,571,o),
(50,335,cs),
(50,99,o),
(180,-16,o),
(340,-16,cs),
(460,-16,o),
(537,42,o),
(606,167,c),
(578,182,l),
(515,76,o),
(452,24,o),
(369,24,cs),
(219,24,o),
(165,132,o),
(165,335,cs),
(165,545,o),
(209,655,o),
(328,655,cs),
(370,655,o),
(399,638,o),
(399,611,cs),
(399,584,o),
(383,580,o),
(383,545,cs),
(383,506,o),
(410,480,o),
(452,480,cs),
(493,480,o),
(525,511,o),
(525,558,cs),
(525,620,o)
);
}
);
width = 586;
},
{
layerId = m002;
shapes = (
{
closed = 1;
nodes = (
(626,686,o),
(484,686,cs),
(335,686,o),
(167,571,o),
(88,335,cs),
(10,99,o),
(101,-16,o),
(261,-16,cs),
(381,-16,o),
(478,42,o),
(588,167,c),
(565,182,l),
(467,76,o),
(387,24,o),
(304,24,cs),
(154,24,o),
(136,132,o),
(203,335,cs),
(273,545,o),
(354,655,o),
(473,655,cs),
(515,655,o),
(538,638,o),
(529,611,cs),
(520,584,o),
(503,580,o),
(491,545,cs),
(478,506,o),
(497,480,o),
(539,480,cs),
(580,480,o),
(622,511,o),
(638,558,cs),
(658,620,o)
);
}
);
width = 586;
},
{
layerId = m003;
shapes = (
{
closed = 1;
nodes = (
(316,686,o),
(174,686,cs),
(25,686,o),
(-67,571,o),
(12,335,cs),
(90,99,o),
(259,-16,o),
(419,-16,cs),
(539,-16,o),
(596,42,o),
(624,167,c),
(591,182,l),
(563,76,o),
(517,24,o),
(434,24,cs),
(284,24,o),
(194,132,o),
(127,335,cs),
(57,545,o),
(64,655,o),
(183,655,cs),
(225,655,o),
(260,638,o),
(269,611,cs),
(278,584,o),
(263,580,o),
(275,545,cs),
(288,506,o),
(323,480,o),
(365,480,cs),
(406,480,o),
(428,511,o),
(412,558,cs),
(392,620,o)
);
}
);
width = 586;
}
);
userData = {
com.typemytype.robofont.layerData = {
background = {
anchors = (
);
components = (
);
contours = (
);
lib = {
};
name = C;
unicodes = (
);
width = 586;
};
};
com.typemytype.robofont.mark = (
0.4827,
0.8546,
0.4678,
1
);
};
},
{
glyphname = D;
kernLeft = B;
kernRight = D;
lastChange = "2025-02-16 21:09:10 +0000";
layers = (
{
hints = (
{
name = _corner.serif.uc;
options = 1;
origin = (1,0);
scale = (-1,1);
type = Corner;
},
{
name = _corner.serif.uc;
origin = (1,1);
type = Corner;
}
);
layerId = "484F8FD9-52EC-47CF-91D8-DA5450121283";
shapes = (
{
closed = 1;
nodes = (
(430,640,o),
(465,535,o),
(465,335,cs),
(465,136,o),
(439,30,o),
(270,30,cs),
(205,30,l),
(205,640,l),
(270,640,ls)
);
},
{
closed = 1;
nodes = (
(100,670,l),
(100,0,l),
(274,0,ls),
(484,0,o),
(580,122,o),
(580,335,cs),
(580,547,o),
(480,670,o),
(274,670,cs)
);
}
);
width = 635;
},
{
hints = (
{
name = _corner.serif.uc;
options = 1;
origin = (1,0);
scale = (-1,1);
type = Corner;
},
{
name = _corner.serif.uc;
origin = (1,1);
type = Corner;
}
);
layerId = m002;
shapes = (
{
closed = 1;
nodes = (
(570,640,o),
(570,535,o),
(503,335,cs),
(437,136,o),
(376,30,o),
(207,30,cs),
(142,30,l),
(345,640,l),
(410,640,ls)
);
},
{
closed = 1;
nodes = (
(250,670,l),
(27,0,l),
(201,0,ls),
(411,0,o),
(547,122,o),
(618,335,cs),
(689,547,o),
(630,670,o),
(424,670,cs)
);
}
);
width = 635;
},
{
hints = (
{
name = _corner.serif.uc;
options = 1;
origin = (1,0);
scale = (-1,1);
type = Corner;
},
{
name = _corner.serif.uc;
origin = (1,1);
type = Corner;
}
);
layerId = m003;
shapes = (
{
closed = 1;
nodes = (
(290,640,o),
(360,535,o),
(427,335,cs),
(493,136,o),
(502,30,o),
(333,30,cs),
(268,30,l),
(65,640,l),
(130,640,ls)
);
},
{
closed = 1;
nodes = (
(-50,670,l),
(173,0,l),
(347,0,ls),
(557,0,o),
(613,122,o),
(542,335,cs),
(471,547,o),
(330,670,o),
(124,670,cs)
);
}
);
width = 635;
}
);
metricLeft = H;
unicode = 68;
userData = {
com.typemytype.robofont.layerData = {
background = {
anchors = (
);
components = (
);
contours = (
);
lib = {
};
name = D;
unicodes = (
);
width = 635;
};
};
com.typemytype.robofont.mark = (
0.9366,
0.9212,
0.4821,
1
);
};
},
{
glyphname = E;
kernLeft = B;
lastChange = "2025-02-16 21:09:12 +0000";
layers = (
{
hints = (
{
name = _corner.serif.uc;
origin = (1,7);
type = Corner;
},
{
name = _corner.serif.uc;
options = 1;
origin = (1,6);
scale = (-1,1);
type = Corner;
}
);
layerId = "484F8FD9-52EC-47CF-91D8-DA5450121283";
shapes = (
{
closed = 1;
nodes = (
(255,342,ls),
(319,342,o),
(357,301,o),
(365,220,c),
(390,220,l),
(390,495,l),
(365,495,l),
(357,410,o),
(319,372,o),
(255,372,cs),
(152,372,l),
(152,342,l)
);
},
{
closed = 1;
nodes = (
(320,640,ls),
(430,640,o),
(480,575,o),
(491,450,c),
(525,450,l),
(525,670,l),
(100,670,l),
(100,0,l),
(540,0,l),
(540,230,l),
(506,230,l),
(494,100,o),
(439,30,o),
(335,30,cs),
(205,30,l),
(205,640,l)
);
}
);
width = 610;
},
{
hints = (
{
name = _corner.serif.uc;
origin = (1,7);
type = Corner;
},
{
name = _corner.serif.uc;
options = 1;
origin = (1,6);
scale = (-1,1);
type = Corner;
}
);
layerId = m002;
shapes = (
{
closed = 1;
nodes = (
(296,342,ls),
(360,342,o),
(384,301,o),
(365,220,c),
(390,220,l),
(482,495,l),
(457,495,l),
(420,410,o),
(370,372,o),
(306,372,cs),
(203,372,l),
(193,342,l)
);
},
{
closed = 1;
nodes = (
(460,640,ls),
(570,640,o),
(598,575,o),
(568,450,c),
(602,450,l),
(675,670,l),
(250,670,l),
(27,0,l),
(467,0,l),
(543,230,l),
(509,230,l),
(454,100,o),
(376,30,o),
(272,30,cs),
(142,30,l),
(345,640,l)
);
}
);
width = 610;
},
{
hints = (
{
name = _corner.serif.uc;
origin = (1,7);
type = Corner;
},
{
name = _corner.serif.uc;
options = 1;
origin = (1,6);
scale = (-1,1);
type = Corner;
}
);
layerId = m003;
shapes = (
{
closed = 1;
nodes = (
(214,342,ls),
(278,342,o),
(330,301,o),
(365,220,c),
(390,220,l),
(298,495,l),
(273,495,l),
(294,410,o),
(268,372,o),
(204,372,cs),
(101,372,l),
(111,342,l)
);
},
{
closed = 1;
nodes = (
(180,640,ls),
(290,640,o),
(362,575,o),
(414,450,c),
(448,450,l),
(375,670,l),
(-50,670,l),
(173,0,l),
(613,0,l),
(537,230,l),
(503,230,l),
(534,100,o),
(502,30,o),
(398,30,cs),
(268,30,l),
(65,640,l)
);
}
);
width = 610;
}
);
metricLeft = H;
unicode = 69;
userData = {
com.typemytype.robofont.layerData = {
background = {
anchors = (
);
components = (
);
contours = (
);
lib = {
};
name = E;
unicodes = (
);
width = 610;
};
};
com.typemytype.robofont.mark = (
0.9366,
0.9212,
0.4821,
1
);
};
},
{
glyphname = F;
kernLeft = B;
lastChange = "2025-02-16 21:09:13 +0000";
layers = (
{
hints = (
{
name = _corner.serif.uc;
origin = (0,9);
type = Corner;
},
{
name = _corner.serif.uc;
options = 1;
origin = (0,8);
scale = (-1,1);
type = Corner;
},
{
name = _corner.serif.uc;
options = 1;
origin = (0,0);
scale = (-1,1);
type = Corner;
}
);
layerId = "484F8FD9-52EC-47CF-91D8-DA5450121283";
shapes = (
{
closed = 1;
nodes = (
(205,0,l),
(205,640,l),
(274,640,ls),
(393,640,o),
(455,575,o),
(466,450,c),
(500,450,l),
(500,670,l),
(100,670,l),
(100,0,l)
);
},
{
closed = 1;
nodes = (
(255,342,ls),
(319,342,o),
(357,301,o),
(365,220,c),
(390,220,l),
(390,495,l),
(365,495,l),
(357,410,o),
(319,372,o),
(255,372,cs),
(152,372,l),
(152,342,l)
);
}
);
width = 570;
},
{
hints = (
{
name = _corner.serif.uc;
options = 1;
origin = (0,0);
scale = (-1,1);
type = Corner;
},
{
name = _corner.serif.uc;
options = 1;
origin = (0,8);
scale = (-1,1);
type = Corner;
},
{
name = _corner.serif.uc;
origin = (0,9);
type = Corner;
}
);
layerId = m002;
shapes = (
{
closed = 1;
nodes = (
(132,0,l),
(345,640,l),
(414,640,ls),
(533,640,o),
(573,575,o),
(543,450,c),
(577,450,l),
(650,670,l),
(250,670,l),
(27,0,l)
);
},
{
closed = 1;
nodes = (
(296,342,ls),
(360,342,o),
(384,301,o),
(365,220,c),
(390,220,l),
(482,495,l),
(457,495,l),
(420,410,o),
(370,372,o),
(306,372,cs),
(203,372,l),
(193,342,l)
);
}
);
width = 570;
},
{
hints = (
{
name = _corner.serif.uc;
origin = (0,9);
type = Corner;
},
{
name = _corner.serif.uc;
options = 1;
origin = (0,8);
scale = (-1,1);
type = Corner;
},
{
name = _corner.serif.uc;
options = 1;
origin = (0,0);
scale = (-1,1);
type = Corner;
}
);
layerId = m003;
shapes = (
{
closed = 1;
nodes = (
(278,0,l),
(65,640,l),
(134,640,ls),
(253,640,o),
(337,575,o),
(389,450,c),
(423,450,l),
(350,670,l),
(-50,670,l),
(173,0,l)
);
},
{
closed = 1;
nodes = (
(214,342,ls),
(278,342,o),
(330,301,o),
(365,220,c),
(390,220,l),
(298,495,l),
(273,495,l),
(294,410,o),
(268,372,o),
(204,372,cs),
(101,372,l),
(111,342,l)
);
}
);
width = 570;
}
);
metricLeft = H;
unicode = 70;
userData = {
com.typemytype.robofont.layerData = {
background = {
anchors = (
);
components = (
);
contours = (
);
lib = {
};
name = E;
unicodes = (
);
width = 570;
};
};
com.typemytype.robofont.mark = (
0.9366,
0.9212,
0.4821,
1
);
};
},
{
glyphname = G;
kernLeft = C;
lastChange = "2025-02-16 21:22:38 +0000";
layers = (
{
background = {
shapes = (
{
closed = 1;
nodes = (
(387,657,o),
(424,633,o),
(424,594,cs),
(424,577,o),
(420,566,o),
(420,547,cs),
(420,510,o),
(445,486,o),
(484,486,cs),
(521,486,o),
(550,515,o),
(550,560,cs),
(550,622,o),
(489,688,o),
(336,688,cs),
(172,688,o),
(50,576,o),
(50,335,cs),
(50,94,o),
(180,-18,o),
(331,-18,cs),
(472,-18,o),
(555,74,o),
(561,212,cs),
(563,260,ls),
(565,305,o),
(581,325,o),
(617,325,cs),
(653,325,l),
(653,355,l),
(368,355,l),
(368,325,l),
(404,325,ls),
(440,325,o),
(458,305,o),
(458,261,cs),
(458,217,ls),
(458,76,o),
(409,15,o),
(332,15,cs),
(224,15,o),
(165,126,o),
(165,335,cs),
(165,546,o),
(227,657,o),
(334,657,cs)
);
}
);
};
layerId = "484F8FD9-52EC-47CF-91D8-DA5450121283";
shapes = (
{
closed = 1;
nodes = (
(579,310,o),
(595,330,o),
(631,330,cs),
(657,330,l),
(657,360,l),
(392,360,l),
(392,330,l),
(418,330,ls),
(454,330,o),
(472,310,o),
(472,266,cs),
(472,222,ls),
(472,78,o),
(418,17,o),
(332,17,cs),
(224,17,o),
(165,127,o),
(165,335,cs),
(165,545,o),
(227,655,o),
(328,655,cs),
(430,655,o),
(509,584,o),
(533,468,c),
(565,468,l),
(565,673,l),
(536,673,l),
(525,653,o),
(510,644,o),
(492,644,cs),
(475,644,o),
(454,655,o),
(423,667,cs),
(397,677,o),
(366,686,o),
(326,686,cs),
(172,686,o),
(50,557,o),
(50,335,cs),
(50,114,o),
(180,-16,o),
(331,-16,cs),
(481,-16,o),
(569,77,o),
(575,217,cs),
(577,265,ls)
);
}
);
width = 672;
},
{
background = {
shapes = (
{
closed = 1;
nodes = (
(387,657,o),
(424,633,o),
(424,594,cs),
(424,577,o),
(420,566,o),
(420,547,cs),
(420,510,o),
(445,486,o),
(484,486,cs),
(521,486,o),
(550,515,o),
(550,560,cs),
(550,622,o),
(489,688,o),
(336,688,cs),
(172,688,o),
(50,576,o),
(50,335,cs),
(50,94,o),
(180,-18,o),
(331,-18,cs),
(472,-18,o),
(555,74,o),
(561,212,cs),
(563,260,ls),
(565,305,o),
(581,325,o),
(617,325,cs),
(653,325,l),
(653,355,l),
(368,355,l),
(368,325,l),
(404,325,ls),
(440,325,o),
(458,305,o),
(458,261,cs),
(458,217,ls),
(458,76,o),
(409,15,o),
(332,15,cs),
(224,15,o),
(165,126,o),
(165,335,cs),
(165,546,o),
(227,657,o),
(334,657,cs)
);
}
);
};
layerId = m002;
shapes = (
{
closed = 1;
nodes = (
(609,310,o),
(632,330,o),
(668,330,cs),
(694,330,l),
(704,360,l),
(439,360,l),
(429,330,l),
(455,330,ls),
(491,330,o),
(502,310,o),
(487,266,cs),
(473,222,ls),
(425,78,o),
(350,17,o),
(264,17,cs),
(156,17,o),
(134,127,o),
(203,335,cs),
(273,545,o),
(372,655,o),
(473,655,cs),
(575,655,o),
(630,584,o),
(616,468,c),
(648,468,l),
(716,673,l),
(687,673,l),
(669,653,o),
(651,644,o),
(633,644,cs),
(616,644,o),
(599,655,o),
(572,667,cs),
(549,677,o),
(521,686,o),
(481,686,cs),
(327,686,o),
(162,557,o),
(88,335,cs),
(15,114,o),
(101,-16,o),
(252,-16,cs),
(402,-16,o),
(521,77,o),
(574,217,cs),
(592,265,ls)
);
}
);
width = 672;
},
{
background = {
shapes = (
{
closed = 1;
nodes = (
(387,657,o),
(424,633,o),
(424,594,cs),
(424,577,o),
(420,566,o),
(420,547,cs),
(420,510,o),
(445,486,o),
(484,486,cs),
(521,486,o),
(550,515,o),
(550,560,cs),
(550,622,o),
(489,688,o),
(336,688,cs),
(172,688,o),
(50,576,o),
(50,335,cs),
(50,94,o),
(180,-18,o),
(331,-18,cs),
(472,-18,o),
(555,74,o),
(561,212,cs),
(563,260,ls),
(565,305,o),
(581,325,o),
(617,325,cs),
(653,325,l),
(653,355,l),
(368,355,l),
(368,325,l),
(404,325,ls),
(440,325,o),
(458,305,o),
(458,261,cs),
(458,217,ls),
(458,76,o),
(409,15,o),
(332,15,cs),
(224,15,o),
(165,126,o),
(165,335,cs),
(165,546,o),
(227,657,o),
(334,657,cs)
);
}
);
};
layerId = m003;
shapes = (
{
closed = 1;
nodes = (
(549,310,o),
(558,330,o),
(594,330,cs),
(620,330,l),
(610,360,l),
(345,360,l),
(355,330,l),
(381,330,ls),
(417,330,o),
(442,310,o),
(457,266,cs),
(471,222,ls),
(519,78,o),
(486,17,o),
(400,17,cs),
(292,17,o),
(196,127,o),
(127,335,cs),
(57,545,o),
(82,655,o),
(183,655,cs),
(285,655,o),
(388,584,o),
(450,468,c),
(482,468,l),
(414,673,l),
(385,673,l),
(381,653,o),
(369,644,o),
(351,644,cs),
(334,644,o),
(309,655,o),
(274,667,cs),
(245,677,o),
(211,686,o),
(171,686,cs),
(17,686,o),
(-62,557,o),
(12,335,cs),
(85,114,o),
(259,-16,o),
(410,-16,cs),
(560,-16,o),
(617,77,o),
(576,217,cs),
(562,265,ls)
);
}
);
width = 672;
}
);
unicode = 71;
userData = {
com.typemytype.robofont.layerData = {
background = {
anchors = (
);
components = (
);
contours = (
);
lib = {
};
name = C;
unicodes = (
);
width = 672;
};
};
};
},
{
color = 3;
glyphname = G.ss01;
kernLeft = C;
lastChange = "2025-02-16 21:22:43 +0000";
layers = (
{
layerId = "484F8FD9-52EC-47CF-91D8-DA5450121283";
shapes = (
{
closed = 1;
nodes = (
(387,655,o),
(424,631,o),
(424,592,cs),
(424,575,o),
(420,564,o),
(420,545,cs),
(420,508,o),
(445,484,o),
(484,484,cs),
(521,484,o),
(550,513,o),
(550,558,cs),
(550,620,o),
(489,686,o),
(336,686,cs),
(172,686,o),
(50,575,o),
(50,335,cs),
(50,95,o),
(180,-16,o),
(331,-16,cs),
(472,-16,o),
(555,75,o),
(561,212,cs),
(563,260,ls),
(565,305,o),
(581,325,o),
(617,325,cs),
(653,325,l),
(653,355,l),
(368,355,l),
(368,325,l),
(404,325,ls),
(440,325,o),
(458,305,o),
(458,261,cs),
(458,217,ls),
(458,77,o),
(409,17,o),
(332,17,cs),
(224,17,o),
(165,127,o),
(165,335,cs),
(165,545,o),
(227,655,o),
(334,655,cs)
);
}
);
width = 658;
},
{
layerId = m002;
shapes = (
{
closed = 1;
nodes = (
(532,655,o),
(561,631,o),
(548,592,cs),
(542,575,o),
(535,564,o),
(528,545,cs),
(516,508,o),
(533,484,o),
(572,484,cs),
(609,484,o),
(648,513,o),
(663,558,cs),
(683,620,o),
(644,686,o),
(491,686,cs),
(327,686,o),
(168,575,o),
(88,335,cs),
(8,95,o),
(101,-16,o),
(252,-16,cs),
(393,-16,o),
(507,75,o),
(558,212,cs),
(576,260,ls),
(593,305,o),
(616,325,o),
(652,325,cs),
(688,325,l),
(698,355,l),
(413,355,l),
(403,325,l),
(439,325,ls),
(475,325,o),
(486,305,o),
(472,261,cs),
(457,217,ls),
(410,77,o),
(341,17,o),
(264,17,cs),
(156,17,o),
(134,127,o),
(203,335,cs),
(273,545,o),
(372,655,o),
(479,655,cs)
);
}
);
width = 658;
},
{
layerId = m003;
shapes = (
{
closed = 1;
nodes = (
(242,655,o),
(287,631,o),
(300,592,cs),
(306,575,o),
(305,564,o),
(312,545,cs),
(324,508,o),
(357,484,o),
(396,484,cs),
(433,484,o),
(452,513,o),
(437,558,cs),
(417,620,o),
(334,686,o),
(181,686,cs),
(17,686,o),
(-68,575,o),
(12,335,cs),
(92,95,o),
(259,-16,o),
(410,-16,cs),
(551,-16,o),
(603,75,o),
(564,212,cs),
(550,260,ls),
(537,305,o),
(546,325,o),
(582,325,cs),
(618,325,l),
(608,355,l),
(323,355,l),
(333,325,l),
(369,325,ls),
(405,325,o),
(430,305,o),
(444,261,cs),
(459,217,ls),
(506,77,o),
(477,17,o),
(400,17,cs),
(292,17,o),
(196,127,o),
(127,335,cs),
(57,545,o),
(82,655,o),
(189,655,cs)
);
}
);
width = 658;
}
);
userData = {
com.typemytype.robofont.layerData = {
background = {
anchors = (
);
components = (
);
contours = (
);
lib = {
};
name = C;
unicodes = (
);
width = 658;
};
};
com.typemytype.robofont.mark = (
0.9366,
0.9212,
0.4821,
1
);
};
},
{
glyphname = H;
kernLeft = B;
kernRight = H;
lastChange = "2025-02-16 21:09:26 +0000";
layers = (
{
background = {
shapes = (
{
closed = 1;
nodes = (
(655,0,l),
(655,30,l),
(600,30,ls),
(570,30,o),
(560,44,o),
(560,68,cs),
(560,602,ls),
(560,626,o),
(570,640,o),
(600,640,cs),
(655,640,l),
(655,670,l),
(360,670,l),
(360,640,l),
(418,640,ls),
(445,640,o),
(455,626,o),
(455,602,cs),
(455,68,ls),
(455,44,o),
(445,30,o),
(418,30,cs),
(360,30,l),
(360,0,l)
);
}
);
};
hints = (
{
name = _corner.serif.uc;
origin = (0,3);
type = Corner;
},
{
name = _corner.serif.uc;
options = 1;
origin = (0,2);
scale = (-1,1);
type = Corner;
},
{
name = _corner.serif.uc;
options = 1;
origin = (0,0);
scale = (-1,1);
type = Corner;
},
{
name = _corner.serif.uc;
origin = (0,1);
type = Corner;
},
{
name = _corner.serif.uc;
options = 1;
origin = (2,0);
scale = (-1,1);
type = Corner;
},
{
name = _corner.serif.uc;
origin = (2,1);
type = Corner;
},
{
name = _corner.serif.uc;
options = 1;
origin = (2,2);
scale = (-1,1);
type = Corner;
},
{
name = _corner.serif.uc;
origin = (2,3);
type = Corner;
}
);
layerId = "484F8FD9-52EC-47CF-91D8-DA5450121283";
shapes = (
{
closed = 1;
nodes = (
(205,0,l),
(205,670,l),
(100,670,l),
(100,0,l)
);
},
{
closed = 1;
nodes = (
(508,344,l),
(508,376,l),
(150,376,l),
(150,344,l)
);
},
{
closed = 1;
nodes = (
(560,0,l),
(560,670,l),
(455,670,l),
(455,0,l)
);
}
);
width = 660;
},
{
background = {
shapes = (
{
closed = 1;
nodes = (
(655,0,l),
(655,30,l),
(600,30,ls),
(570,30,o),
(560,44,o),
(560,68,cs),
(560,602,ls),
(560,626,o),
(570,640,o),
(600,640,cs),
(655,640,l),
(655,670,l),
(360,670,l),
(360,640,l),
(418,640,ls),
(445,640,o),
(455,626,o),
(455,602,cs),
(455,68,ls),
(455,44,o),
(445,30,o),
(418,30,cs),
(360,30,l),
(360,0,l)
);
}
);
};
hints = (
{
name = _corner.serif.uc;
origin = (0,3);
type = Corner;
},
{
name = _corner.serif.uc;
options = 1;
origin = (0,2);
scale = (-1,1);
type = Corner;
},
{
name = _corner.serif.uc;
options = 1;
origin = (0,0);
scale = (-1,1);
type = Corner;
},
{
name = _corner.serif.uc;
origin = (0,1);
type = Corner;
},
{
name = _corner.serif.uc;
options = 1;
origin = (2,0);
scale = (-1,1);
type = Corner;
},
{
name = _corner.serif.uc;
origin = (2,1);
type = Corner;
},
{
name = _corner.serif.uc;
options = 1;
origin = (2,2);
scale = (-1,1);
type = Corner;
},
{
name = _corner.serif.uc;
origin = (2,3);
type = Corner;
}
);
layerId = m002;
shapes = (
{
closed = 1;
nodes = (
(132,0,l),
(355,670,l),
(250,670,l),
(27,0,l)
);
},
{
closed = 1;
nodes = (
(549,344,l),
(560,376,l),
(202,376,l),
(191,344,l)
);
},
{
closed = 1;
nodes = (
(487,0,l),
(710,670,l),
(605,670,l),
(382,0,l)
);
}
);
width = 660;
},
{
background = {
shapes = (
{
closed = 1;
nodes = (
(655,0,l),
(655,30,l),
(600,30,ls),
(570,30,o),
(560,44,o),
(560,68,cs),
(560,602,ls),
(560,626,o),
(570,640,o),
(600,640,cs),
(655,640,l),
(655,670,l),
(360,670,l),
(360,640,l),
(418,640,ls),
(445,640,o),
(455,626,o),
(455,602,cs),
(455,68,ls),
(455,44,o),
(445,30,o),
(418,30,cs),
(360,30,l),
(360,0,l)
);
}
);
};
hints = (
{
name = _corner.serif.uc;
origin = (0,3);
type = Corner;
},
{
name = _corner.serif.uc;
options = 1;
origin = (0,2);
scale = (-1,1);
type = Corner;
},
{
name = _corner.serif.uc;
options = 1;
origin = (0,0);
scale = (-1,1);
type = Corner;
},
{
name = _corner.serif.uc;
origin = (0,1);
type = Corner;
},
{
name = _corner.serif.uc;
options = 1;
origin = (2,0);
scale = (-1,1);
type = Corner;
},
{
name = _corner.serif.uc;
origin = (2,1);
type = Corner;
},
{
name = _corner.serif.uc;
options = 1;
origin = (2,2);
scale = (-1,1);
type = Corner;
},
{
name = _corner.serif.uc;
origin = (2,3);
type = Corner;
}
);
layerId = m003;
shapes = (
{
closed = 1;
nodes = (
(278,0,l),
(55,670,l),
(-50,670,l),
(173,0,l)
);
},
{
closed = 1;
nodes = (
(467,344,l),
(456,376,l),
(98,376,l),
(109,344,l)
);
},
{
closed = 1;
nodes = (
(633,0,l),
(410,670,l),
(305,670,l),
(528,0,l)
);
}
);
width = 660;
}
);
unicode = 72;
userData = {
com.typemytype.robofont.layerData = {
background = {
anchors = (
);
components = (
);
contours = (
);
lib = {
};
name = H;
unicodes = (
);
width = 660;
};
};
com.typemytype.robofont.mark = (
0.9366,
0.9212,
0.4821,
1
);
};
},
{
glyphname = I;
kernLeft = B;
kernRight = H;
lastChange = "2025-02-16 21:09:32 +0000";
layers = (
{
background = {
shapes = (
{
closed = 1;
nodes = (
(205,626,o),
(215,640,o),
(245,640,cs),
(300,640,l),
(300,670,l),
(5,670,l),
(5,640,l),
(63,640,ls),
(90,640,o),
(100,626,o),
(100,602,cs),
(100,68,ls),
(100,44,o),
(90,30,o),
(63,30,cs),
(5,30,l),
(5,0,l),
(300,0,l),
(300,30,l),
(245,30,ls),
(215,30,o),
(205,44,o),
(205,68,cs),
(205,602,ls)
);
}
);
};
hints = (
{
name = _corner.serif.uc;
options = 1;
origin = (0,0);
scale = (-1,1);
type = Corner;
},
{
name = _corner.serif.uc;
origin = (0,1);
type = Corner;
},
{
name = _corner.serif.uc;
options = 1;
origin = (0,2);
scale = (-1,1);
type = Corner;
},
{
name = _corner.serif.uc;
origin = (0,3);
type = Corner;
}
);
layerId = "484F8FD9-52EC-47CF-91D8-DA5450121283";
shapes = (
{
closed = 1;
nodes = (
(205,0,l),
(205,670,l),
(100,670,l),
(100,0,l)
);
}
);
width = 305;
},
{
background = {
shapes = (
{
closed = 1;
nodes = (
(205,626,o),
(215,640,o),
(245,640,cs),
(300,640,l),
(300,670,l),
(5,670,l),
(5,640,l),
(63,640,ls),
(90,640,o),
(100,626,o),
(100,602,cs),
(100,68,ls),
(100,44,o),
(90,30,o),
(63,30,cs),
(5,30,l),
(5,0,l),
(300,0,l),
(300,30,l),
(245,30,ls),
(215,30,o),
(205,44,o),
(205,68,cs),
(205,602,ls)
);
}
);
};
hints = (
{
name = _corner.serif.uc;
options = 1;
origin = (0,0);
scale = (-1,1);
type = Corner;
},
{
name = _corner.serif.uc;
origin = (0,1);
type = Corner;
},
{
name = _corner.serif.uc;
options = 1;
origin = (0,2);
scale = (-1,1);
type = Corner;
},
{
name = _corner.serif.uc;
origin = (0,3);
type = Corner;
}
);
layerId = m002;
shapes = (
{
closed = 1;
nodes = (
(132,0,l),
(355,670,l),
(250,670,l),
(27,0,l)
);
}
);
width = 305;
},
{
background = {
shapes = (
{
closed = 1;
nodes = (
(205,626,o),
(215,640,o),
(245,640,cs),
(300,640,l),
(300,670,l),
(5,670,l),
(5,640,l),
(63,640,ls),
(90,640,o),
(100,626,o),
(100,602,cs),
(100,68,ls),
(100,44,o),
(90,30,o),
(63,30,cs),
(5,30,l),
(5,0,l),
(300,0,l),
(300,30,l),
(245,30,ls),
(215,30,o),
(205,44,o),
(205,68,cs),
(205,602,ls)
);
}
);
};
hints = (
{
name = _corner.serif.uc;
options = 1;
origin = (0,0);
scale = (-1,1);
type = Corner;
},
{
name = _corner.serif.uc;
origin = (0,1);
type = Corner;
},
{
name = _corner.serif.uc;
options = 1;
origin = (0,2);
scale = (-1,1);
type = Corner;
},
{
name = _corner.serif.uc;
origin = (0,3);
type = Corner;
}
);
layerId = m003;
shapes = (
{
closed = 1;
nodes = (
(278,0,l),
(55,670,l),
(-50,670,l),
(173,0,l)
);
}
);
width = 305;
}
);
metricLeft = H;
metricRight = H;
unicode = 73;
userData = {
com.typemytype.robofont.layerData = {
background = {
anchors = (
);
components = (
);
contours = (
);
lib = {
};
name = I;
unicodes = (
);
width = 305;
};
};
com.typemytype.robofont.mark = (
0.9366,
0.9212,
0.4821,
1
);
};
},
{
glyphname = J;
lastChange = "2025-02-16 21:22:54 +0000";
layers = (
{
background = {
shapes = (
{
closed = 1;
nodes = (
(13,40,o),
(95,-18,o),
(193,-18,cs),
(295,-18,o),
(367,42,o),
(367,151,cs),
(367,602,ls),
(367,626,o),
(377,640,o),
(404,640,cs),
(462,640,l),
(462,670,l),
(167,670,l),
(167,640,l),
(222,640,ls),
(252,640,o),
(262,626,o),
(262,602,cs),
(262,136,ls),
(262,50,o),
(235,18,o),
(187,18,cs),
(154,18,o),
(127,33,o),
(127,59,cs),
(127,90,o),
(152,92,o),
(152,134,cs),
(152,170,o),
(123,198,o),
(86,198,cs),
(41,198,o),
(13,165,o),
(13,120,cs)
);
}
);
};
hints = (
{
name = _corner.serif.uc;
options = 1;
origin = (0,7);
scale = (-1,1);
type = Corner;
},
{
name = _corner.serif.uc;
origin = (0,6);
type = Corner;
}
);
layerId = "484F8FD9-52EC-47CF-91D8-DA5450121283";
shapes = (
{
closed = 1;
nodes = (
(13,42,o),
(95,-16,o),
(193,-16,cs),
(295,-16,o),
(367,44,o),
(367,153,cs),
(367,670,l),
(262,670,l),
(262,138,ls),
(262,52,o),
(235,20,o),
(187,20,cs),
(154,20,o),
(127,35,o),
(127,61,cs),
(127,92,o),
(152,94,o),
(152,136,cs),
(152,172,o),
(123,200,o),
(86,200,cs),
(41,200,o),
(13,167,o),
(13,122,cs)
);
}
);
width = 462;
},
{
background = {
shapes = (
{
closed = 1;
nodes = (
(13,40,o),
(95,-18,o),
(193,-18,cs),
(295,-18,o),
(367,42,o),
(367,151,cs),
(367,602,ls),
(367,626,o),
(377,640,o),
(404,640,cs),
(462,640,l),
(462,670,l),
(167,670,l),
(167,640,l),
(222,640,ls),
(252,640,o),
(262,626,o),
(262,602,cs),
(262,136,ls),
(262,50,o),
(235,18,o),
(187,18,cs),
(154,18,o),
(127,33,o),
(127,59,cs),
(127,90,o),
(152,92,o),
(152,134,cs),
(152,170,o),
(123,198,o),
(86,198,cs),
(41,198,o),
(13,165,o),
(13,120,cs)
);
}
);
};
hints = (
{
name = _corner.serif.uc;
origin = (0,6);
type = Corner;
},
{
name = _corner.serif.uc;
options = 1;
origin = (0,7);
scale = (-1,1);
type = Corner;
}
);
layerId = m002;
shapes = (
{
closed = 1;
nodes = (
(-46,42,o),
(16,-16,o),
(114,-16,cs),
(216,-16,o),
(308,44,o),
(345,153,cs),
(517,670,l),
(412,670,l),
(235,138,ls),
(206,52,o),
(168,20,o),
(120,20,cs),
(87,20,o),
(65,35,o),
(74,61,cs),
(84,92,o),
(110,94,o),
(124,136,cs),
(136,172,o),
(116,200,o),
(79,200,cs),
(34,200,o),
(-5,167,o),
(-20,122,cs)
);
}
);
width = 462;
},
{
background = {
shapes = (
{
closed = 1;
nodes = (
(13,40,o),
(95,-18,o),
(193,-18,cs),
(295,-18,o),
(367,42,o),
(367,151,cs),
(367,602,ls),
(367,626,o),
(377,640,o),
(404,640,cs),
(462,640,l),
(462,670,l),
(167,670,l),
(167,640,l),
(222,640,ls),
(252,640,o),
(262,626,o),
(262,602,cs),
(262,136,ls),
(262,50,o),
(235,18,o),
(187,18,cs),
(154,18,o),
(127,33,o),
(127,59,cs),
(127,90,o),
(152,92,o),
(152,134,cs),
(152,170,o),
(123,198,o),
(86,198,cs),
(41,198,o),
(13,165,o),
(13,120,cs)
);
}
);
};
hints = (
{
name = _corner.serif.uc;
options = 1;
origin = (0,7);
scale = (-1,1);
type = Corner;
},
{
name = _corner.serif.uc;
origin = (0,6);
type = Corner;
}
);
layerId = m003;
shapes = (
{
closed = 1;
nodes = (
(73,40,o),
(174,-18,o),
(272,-18,cs),
(374,-18,o),
(426,42,o),
(390,151,cs),
(217,670,l),
(112,670,l),
(290,136,ls),
(319,50,o),
(302,18,o),
(254,18,cs),
(221,18,o),
(189,33,o),
(181,59,cs),
(170,90,o),
(195,92,o),
(181,134,cs),
(169,170,o),
(130,198,o),
(93,198,cs),
(48,198,o),
(31,165,o),
(46,120,cs)
);
}
);
width = 462;
}
);
unicode = 74;
userData = {
com.typemytype.robofont.layerData = {
background = {
anchors = (
);
components = (
);
contours = (
);
lib = {
};
name = H;
unicodes = (
);
width = 462;
};
};
com.typemytype.robofont.mark = (
0.9366,
0.9212,
0.4821,
1
);
};
},
{
glyphname = K;
kernLeft = B;
kernRight = K;
lastChange = "2025-02-16 21:09:36 +0000";
layers = (
{
background = {
hints = (
{
name = _corner.serif.uc;
options = 1;
origin = (2,0);
scale = (-1,1);
type = Corner;
},
{
name = _corner.serif.uc;
origin = (2,1);
type = Corner;
},
{
name = _corner.serif.uc;
options = 1;
origin = (2,2);
scale = (-1,1);
type = Corner;
},
{
name = _corner.serif.uc;
origin = (2,3);
type = Corner;
}
);
shapes = (
{
closed = 1;
nodes = (
(464,49,o),
(451,30,o),
(405,30,cs),
(380,30,l),
(380,0,l),
(655,0,l),
(655,30,l),
(630,30,ls),
(592,30,o),
(577,48,o),
(553,91,cs),
(358,438,l),
(283,372,l),
(437,97,ls)
);
},
{
closed = 1;
nodes = (
(486,545,ls),
(555,614,o),
(591,640,o),
(650,640,c),
(650,670,l),
(385,670,l),
(385,640,l),
(400,640,ls),
(463,640,o),
(475,582,o),
(423,529,cs),
(173,277,ls),
(191,249,l)
);
},
{
closed = 1;
nodes = (
(205,0,l),
(205,670,l),
(100,670,l),
(100,0,l)
);
}
);
};
hints = (
{
name = _corner.serif.uc;
options = 1;
origin = (1,0);
scale = (-1,1);
type = Corner;
},
{
name = _corner.serif.uc;
origin = (1,1);
type = Corner;
},
{
name = _corner.serif.uc;
options = 1;
origin = (1,2);
scale = (-1,1);
type = Corner;
},
{
name = _corner.serif.uc;
origin = (1,3);
type = Corner;
},
{
name = _corner.serif.uc;
origin = (2,3);
scale = (0.9,1);
type = Corner;
},
{
name = _corner.serif.uc;
options = 1;
origin = (2,0);
scale = (-0.8,1);
type = Corner;
}
);
layerId = "484F8FD9-52EC-47CF-91D8-DA5450121283";
shapes = (
{
closed = 1;
nodes = (
(486,545,ls),
(555,614,o),
(591,640,o),
(650,640,c),
(650,670,l),
(385,670,l),
(385,640,l),
(400,640,ls),
(463,640,o),
(475,582,o),
(423,529,cs),
(173,277,ls),
(191,249,l)
);
},
{
closed = 1;
nodes = (
(205,0,l),
(205,670,l),
(100,670,l),
(100,0,l)
);
},
{
closed = 1;
nodes = (
(604,0,l),
(358,438,l),
(283,372,l),
(491,0,l)
);
}
);
width = 635;
},
{
background = {
hints = (
{
name = _corner.serif.uc;
options = 1;
origin = (2,0);
scale = (-1,1);
type = Corner;
},
{
name = _corner.serif.uc;
origin = (2,1);
type = Corner;
},
{
name = _corner.serif.uc;
options = 1;
origin = (2,2);
scale = (-1,1);
type = Corner;
},
{
name = _corner.serif.uc;
origin = (2,3);
type = Corner;
}
);
shapes = (
{
closed = 1;
nodes = (
(464,49,o),
(451,30,o),
(405,30,cs),
(380,30,l),
(380,0,l),
(655,0,l),
(655,30,l),
(630,30,ls),
(592,30,o),
(577,48,o),
(553,91,cs),
(358,438,l),
(283,372,l),
(437,97,ls)
);
},
{
closed = 1;
nodes = (
(486,545,ls),
(555,614,o),
(591,640,o),
(650,640,c),
(650,670,l),
(385,670,l),
(385,640,l),
(400,640,ls),
(463,640,o),
(475,582,o),
(423,529,cs),
(173,277,ls),
(191,249,l)
);
},
{
closed = 1;
nodes = (
(205,0,l),
(205,670,l),
(100,670,l),
(100,0,l)
);
}
);
};
hints = (
{
name = _corner.serif.uc;
options = 1;
origin = (1,0);
scale = (-1,1);
type = Corner;
},
{
name = _corner.serif.uc;
origin = (1,1);
type = Corner;
},
{
name = _corner.serif.uc;
options = 1;
origin = (1,2);
scale = (-1,1);
type = Corner;
},
{
name = _corner.serif.uc;
origin = (1,3);
type = Corner;
},
{
name = _corner.serif.uc;
origin = (2,3);
scale = (0.9,1);
type = Corner;
},
{
name = _corner.serif.uc;
options = 1;
origin = (2,0);
scale = (-0.8,1);
type = Corner;
}
);
layerId = m002;
shapes = (
{
closed = 1;
nodes = (
(594,545,ls),
(686,614,o),
(731,640,o),
(790,640,c),
(800,670,l),
(535,670,l),
(525,640,l),
(540,640,ls),
(603,640,o),
(596,582,o),
(526,529,cs),
(192,277,ls),
(201,249,l)
);
},
{
closed = 1;
nodes = (
(132,0,l),
(355,670,l),
(250,670,l),
(27,0,l)
);
},
{
closed = 1;
nodes = (
(531,0,l),
(431,438,l),
(334,372,l),
(418,0,l)
);
}
);
width = 635;
},
{
background = {
hints = (
{
name = _corner.serif.uc;
options = 1;
origin = (2,0);
scale = (-1,1);
type = Corner;
},
{
name = _corner.serif.uc;
origin = (2,1);
type = Corner;
},
{
name = _corner.serif.uc;
options = 1;
origin = (2,2);
scale = (-1,1);
type = Corner;
},
{
name = _corner.serif.uc;
origin = (2,3);
type = Corner;
}
);
shapes = (
{
closed = 1;
nodes = (
(464,49,o),
(451,30,o),
(405,30,cs),
(380,30,l),
(380,0,l),
(655,0,l),
(655,30,l),
(630,30,ls),
(592,30,o),
(577,48,o),
(553,91,cs),
(358,438,l),
(283,372,l),
(437,97,ls)
);
},
{
closed = 1;
nodes = (
(486,545,ls),
(555,614,o),
(591,640,o),
(650,640,c),
(650,670,l),
(385,670,l),
(385,640,l),
(400,640,ls),
(463,640,o),
(475,582,o),
(423,529,cs),
(173,277,ls),
(191,249,l)
);
},
{
closed = 1;
nodes = (
(205,0,l),
(205,670,l),
(100,670,l),
(100,0,l)
);
}
);
};
hints = (
{
name = _corner.serif.uc;
options = 1;
origin = (1,0);
scale = (-1,1);
type = Corner;
},
{
name = _corner.serif.uc;
origin = (1,1);
type = Corner;
},
{
name = _corner.serif.uc;
options = 1;
origin = (1,2);
scale = (-1,1);
type = Corner;
},
{
name = _corner.serif.uc;
origin = (1,3);
type = Corner;
},
{
name = _corner.serif.uc;
origin = (2,3);
scale = (0.9,1);
type = Corner;
},
{
name = _corner.serif.uc;
options = 1;
origin = (2,0);
scale = (-0.8,1);
type = Corner;
}
);
layerId = m003;
shapes = (
{
closed = 1;
nodes = (
(378,545,ls),
(424,614,o),
(451,640,o),
(510,640,c),
(500,670,l),
(235,670,l),
(245,640,l),
(260,640,ls),
(323,640,o),
(354,582,o),
(320,529,cs),
(154,277,ls),
(181,249,l)
);
},
{
closed = 1;
nodes = (
(278,0,l),
(55,670,l),
(-50,670,l),
(173,0,l)
);
},
{
closed = 1;
nodes = (
(677,0,l),
(285,438,l),
(232,372,l),
(564,0,l)
);
}
);
width = 635;
}
);
metricLeft = H;
unicode = 75;
userData = {
com.typemytype.robofont.layerData = {
background = {
anchors = (
);
components = (
);
contours = (
);
lib = {
};
name = K;
unicodes = (
);
width = 635;
};
};
};
},
{
color = 3;
glyphname = K.ss01;
kernLeft = B;
kernRight = K;
lastChange = "2025-02-16 21:09:37 +0000";
layers = (
{
hints = (
{
name = _corner.serif.uc;
options = 1;
origin = (1,29);
scale = (-1,1);
type = Corner;
},
{
name = _corner.serif.uc;
options = 1;
origin = (1,31);
scale = (-1,1);
type = Corner;
},
{
name = _corner.serif.uc;
origin = (1,30);
type = Corner;
},
{
name = _corner.serif.uc;
origin = (1,28);
type = Corner;
}
);
layerId = "484F8FD9-52EC-47CF-91D8-DA5450121283";
shapes = (
{
closed = 1;
nodes = (
(345,368,l),
(337,385,l),
(278,359,l),
(287,340,l)
);
},
{
closed = 1;
nodes = (
(432,592,o),
(448,610,o),
(469,610,cs),
(479,610,o),
(491,604,o),
(491,590,cs),
(491,585,o),
(489,573,o),
(489,566,cs),
(489,531,o),
(514,514,o),
(549,514,cs),
(590,514,o),
(619,545,o),
(619,585,cs),
(619,642,o),
(576,680,o),
(521,680,cs),
(459,680,o),
(408,640,o),
(377,536,cs),
(353,455,o),
(334,396,o),
(272,363,cs),
(231,341,o),
(210,324,o),
(193,293,c),
(205,293,l),
(205,670,l),
(100,670,l),
(100,0,l),
(205,0,l),
(205,212,ls),
(205,284,o),
(250,333,o),
(312,333,cs),
(379,333,o),
(396,280,o),
(396,231,cs),
(396,122,ls),
(396,47,o),
(427,-12,o),
(543,-12,cs),
(649,-12,o),
(720,47,o),
(757,187,c),
(726,194,l),
(700,99,o),
(649,36,o),
(586,36,cs),
(530,36,o),
(504,73,o),
(504,138,cs),
(504,241,ls),
(504,333,o),
(447,376,o),
(365,376,cs),
(341,376,o),
(309,369,o),
(291,358,c),
(298,348,l),
(357,373,o),
(383,439,o),
(410,523,cs)
);
}
);
width = 672;
},
{
hints = (
{
name = _corner.serif.uc;
options = 1;
origin = (1,29);
scale = (-1,1);
type = Corner;
},
{
name = _corner.serif.uc;
options = 1;
origin = (1,31);
scale = (-1,1);
type = Corner;
},
{
name = _corner.serif.uc;
origin = (1,30);
type = Corner;
},
{
name = _corner.serif.uc;
origin = (1,28);
type = Corner;
}
);
layerId = m002;
shapes = (
{
closed = 1;
nodes = (
(394,368,l),
(392,385,l),
(324,359,l),
(327,340,l)
);
},
{
closed = 1;
nodes = (
(556,592,o),
(578,610,o),
(599,610,cs),
(609,610,o),
(619,604,o),
(614,590,cs),
(613,585,o),
(607,573,o),
(604,566,cs),
(593,531,o),
(612,514,o),
(647,514,cs),
(688,514,o),
(727,545,o),
(741,585,cs),
(760,642,o),
(729,680,o),
(674,680,cs),
(612,680,o),
(548,640,o),
(482,536,cs),
(431,455,o),
(393,396,o),
(320,363,cs),
(271,341,o),
(245,324,o),
(217,293,c),
(229,293,l),
(355,670,l),
(250,670,l),
(27,0,l),
(132,0,l),
(202,212,ls),
(226,284,o),
(288,333,o),
(350,333,cs),
(417,333,o),
(416,280,o),
(400,231,cs),
(363,122,ls),
(338,47,o),
(350,-12,o),
(466,-12,cs),
(572,-12,o),
(662,47,o),
(746,187,c),
(717,194,l),
(660,99,o),
(588,36,o),
(525,36,cs),
(469,36,o),
(455,73,o),
(477,138,cs),
(511,241,ls),
(542,333,o),
(499,376,o),
(417,376,cs),
(393,376,o),
(359,369,o),
(337,358,c),
(341,348,l),
(408,373,o),
(456,439,o),
(511,523,cs)
);
}
);
width = 672;
},
{
hints = (
{
name = _corner.serif.uc;
options = 1;
origin = (1,29);
scale = (-1,1);
type = Corner;
},
{
name = _corner.serif.uc;
options = 1;
origin = (1,31);
scale = (-1,1);
type = Corner;
},
{
name = _corner.serif.uc;
origin = (1,30);
type = Corner;
},
{
name = _corner.serif.uc;
origin = (1,28);
type = Corner;
}
);
layerId = m003;
shapes = (
{
closed = 1;
nodes = (
(296,368,l),
(282,385,l),
(232,359,l),
(247,340,l)
);
},
{
closed = 1;
nodes = (
(308,592,o),
(318,610,o),
(339,610,cs),
(349,610,o),
(363,604,o),
(368,590,cs),
(369,585,o),
(371,573,o),
(374,566,cs),
(385,531,o),
(416,514,o),
(451,514,cs),
(492,514,o),
(511,545,o),
(497,585,cs),
(478,642,o),
(423,680,o),
(368,680,cs),
(306,680,o),
(268,640,o),
(272,536,cs),
(275,455,o),
(275,396,o),
(224,363,cs),
(191,341,o),
(175,324,o),
(169,293,c),
(181,293,l),
(55,670,l),
(-50,670,l),
(173,0,l),
(278,0,l),
(208,212,ls),
(184,284,o),
(212,333,o),
(274,333,cs),
(341,333,o),
(376,280,o),
(392,231,cs),
(429,122,ls),
(454,47,o),
(504,-12,o),
(620,-12,cs),
(726,-12,o),
(778,47,o),
(768,187,c),
(735,194,l),
(740,99,o),
(710,36,o),
(647,36,cs),
(591,36,o),
(553,73,o),
(531,138,cs),
(497,241,ls),
(466,333,o),
(395,376,o),
(313,376,cs),
(289,376,o),
(259,369,o),
(245,358,c),
(255,348,l),
(306,373,o),
(310,439,o),
(309,523,cs)
);
}
);
width = 672;
}
);
userData = {
com.typemytype.robofont.layerData = {
background = {
anchors = (
);
components = (
);
contours = (
);
lib = {
};
name = K;
unicodes = (
);
width = 672;
};
};
com.typemytype.robofont.mark = (
0.4827,
0.8546,
0.4678,
1
);
};
},
{
glyphname = L;
kernLeft = B;
lastChange = "2025-02-16 21:09:41 +0000";
layers = (
{
background = {
shapes = (
{
closed = 1;
nodes = (
(205,626,o),
(215,640,o),
(245,640,cs),
(300,640,l),
(300,670,l),
(5,670,l),
(5,640,l),
(63,640,ls),
(90,640,o),
(100,626,o),
(100,602,cs),
(100,68,ls),
(100,44,o),
(90,30,o),
(63,30,cs),
(5,30,l),
(5,0,l),
(515,0,l),
(515,245,l),
(481,245,l),
(473,107,o),
(394,30,o),
(279,30,cs),
(205,30,l),
(205,602,ls)
);
}
);
};
hints = (
{
name = _corner.serif.uc;
origin = (0,9);
type = Corner;
},
{
name = _corner.serif.uc;
origin = (0,7);
type = Corner;
},
{
name = _corner.serif.uc;
options = 1;
origin = (0,8);
scale = (-1,1);
type = Corner;
}
);
layerId = "484F8FD9-52EC-47CF-91D8-DA5450121283";
shapes = (
{
closed = 1;
nodes = (
(515,0,l),
(515,245,l),
(481,245,l),
(473,107,o),
(394,30,o),
(279,30,cs),
(205,30,l),
(205,670,l),
(100,670,l),
(100,0,l)
);
}
);
width = 565;
},
{
background = {
shapes = (
{
closed = 1;
nodes = (
(205,626,o),
(215,640,o),
(245,640,cs),
(300,640,l),
(300,670,l),
(5,670,l),
(5,640,l),
(63,640,ls),
(90,640,o),
(100,626,o),
(100,602,cs),
(100,68,ls),
(100,44,o),
(90,30,o),
(63,30,cs),
(5,30,l),
(5,0,l),
(515,0,l),
(515,245,l),
(481,245,l),
(473,107,o),
(394,30,o),
(279,30,cs),
(205,30,l),
(205,602,ls)
);
}
);
};
hints = (
{
name = _corner.serif.uc;
origin = (0,9);
type = Corner;
},
{
name = _corner.serif.uc;
origin = (0,7);
type = Corner;
},
{
name = _corner.serif.uc;
options = 1;
origin = (0,8);
scale = (-1,1);
type = Corner;
}
);
layerId = m002;
shapes = (
{
closed = 1;
nodes = (
(442,0,l),
(523,245,l),
(489,245,l),
(435,107,o),
(331,30,o),
(216,30,cs),
(142,30,l),
(355,670,l),
(250,670,l),
(27,0,l)
);
}
);
width = 565;
},
{
background = {
shapes = (
{
closed = 1;
nodes = (
(205,626,o),
(215,640,o),
(245,640,cs),
(300,640,l),
(300,670,l),
(5,670,l),
(5,640,l),
(63,640,ls),
(90,640,o),
(100,626,o),
(100,602,cs),
(100,68,ls),
(100,44,o),
(90,30,o),
(63,30,cs),
(5,30,l),
(5,0,l),
(515,0,l),
(515,245,l),
(481,245,l),
(473,107,o),
(394,30,o),
(279,30,cs),
(205,30,l),
(205,602,ls)
);
}
);
};
hints = (
{
name = _corner.serif.uc;
origin = (0,9);
type = Corner;
},
{
name = _corner.serif.uc;
origin = (0,7);
type = Corner;
},
{
name = _corner.serif.uc;
options = 1;
origin = (0,8);
scale = (-1,1);
type = Corner;
}
);
layerId = m003;
shapes = (
{
closed = 1;
nodes = (
(588,0,l),
(507,245,l),
(473,245,l),
(511,107,o),
(457,30,o),
(342,30,cs),
(268,30,l),
(55,670,l),
(-50,670,l),
(173,0,l)
);
}
);
width = 565;
}
);
metricLeft = H;
unicode = 76;
userData = {
com.typemytype.robofont.layerData = {
background = {
anchors = (
);
components = (
);
contours = (
);
lib = {
};
name = L;
unicodes = (
);
width = 565;
};
};
com.typemytype.robofont.mark = (
0.4827,
0.8546,
0.4678,
1
);
};
},
{
glyphname = M;
kernLeft = M;
kernRight = H;
lastChange = "2025-02-16 21:09:45 +0000";
layers = (
{
background = {
shapes = (
{
closed = 1;
nodes = (
(584,576,l),
(584,598,l),
(551,598,l),
(551,576,l)
);
},
{
closed = 1;
nodes = (
(230,670,l),
(5,670,l),
(5,640,l),
(63,640,ls),
(105,640,o),
(120,619,o),
(120,582,cs),
(120,180,ls),
(120,93,o),
(86,30,o),
(15,30,cs),
(5,30,l),
(5,0,l),
(270,0,l),
(270,30,l),
(260,30,ls),
(189,30,o),
(155,93,o),
(155,180,cs),
(155,640,ls),
(123,670,l),
(301,150,l),
(349,0,l),
(374,0,l),
(420,150,l),
(592,670,l),
(565,640,l),
(565,68,ls),
(565,44,o),
(555,30,o),
(528,30,cs),
(470,30,l),
(470,0,l),
(765,0,l),
(765,30,l),
(710,30,ls),
(680,30,o),
(670,44,o),
(670,68,cs),
(670,602,ls),
(670,626,o),
(680,640,o),
(710,640,cs),
(765,640,l),
(765,670,l),
(557,670,l),
(385,150,l),
(408,150,l)
);
},
{
closed = 1;
nodes = (
(174,565,l),
(174,587,l),
(141,587,l),
(141,565,l)
);
},
{
closed = 1;
nodes = (
(408,173,l),
(408,190,l),
(384,190,l),
(384,173,l)
);
}
);
};
hints = (
{
name = _corner.serif.uc;
origin = (1,29);
type = Corner;
},
{
name = _corner.serif.uc;
origin = (1,27);
type = Corner;
},
{
name = _corner.serif.uc;
options = 1;
origin = (1,28);
scale = (-1,1);
type = Corner;
}
);
layerId = "484F8FD9-52EC-47CF-91D8-DA5450121283";
shapes = (
{
closed = 1;
nodes = (
(584,576,l),
(584,598,l),
(551,598,l),
(551,576,l)
);
},
{
closed = 1;
nodes = (
(230,670,l),
(5,670,l),
(5,640,l),
(63,640,ls),
(105,640,o),
(120,619,o),
(120,582,cs),
(120,180,ls),
(120,93,o),
(86,30,o),
(15,30,cs),
(5,30,l),
(5,0,l),
(270,0,l),
(270,30,l),
(260,30,ls),
(189,30,o),
(155,93,o),
(155,180,cs),
(155,640,ls),
(123,670,l),
(301,150,l),
(349,0,l),
(374,0,l),
(420,150,l),
(592,670,l),
(565,640,l),
(565,0,l),
(670,0,l),
(670,670,l),
(557,670,l),
(385,150,l),
(408,150,l)
);
},
{
closed = 1;
nodes = (
(174,565,l),
(174,587,l),
(141,587,l),
(141,565,l)
);
},
{
closed = 1;
nodes = (
(408,173,l),
(408,190,l),
(384,190,l),
(384,173,l)
);
}
);
width = 770;
},
{
background = {
shapes = (
{
closed = 1;
nodes = (
(584,576,l),
(584,598,l),
(551,598,l),
(551,576,l)
);
},
{
closed = 1;
nodes = (
(230,670,l),
(5,670,l),
(5,640,l),
(63,640,ls),
(105,640,o),
(120,619,o),
(120,582,cs),
(120,180,ls),
(120,93,o),
(86,30,o),
(15,30,cs),
(5,30,l),
(5,0,l),
(270,0,l),
(270,30,l),
(260,30,ls),
(189,30,o),
(155,93,o),
(155,180,cs),
(155,640,ls),
(123,670,l),
(301,150,l),
(349,0,l),
(374,0,l),
(420,150,l),
(592,670,l),
(565,640,l),
(565,68,ls),
(565,44,o),
(555,30,o),
(528,30,cs),
(470,30,l),
(470,0,l),
(765,0,l),
(765,30,l),
(710,30,ls),
(680,30,o),
(670,44,o),
(670,68,cs),
(670,602,ls),
(670,626,o),
(680,640,o),
(710,640,cs),
(765,640,l),
(765,670,l),
(557,670,l),
(385,150,l),
(408,150,l)
);
},
{
closed = 1;
nodes = (
(174,565,l),
(174,587,l),
(141,587,l),
(141,565,l)
);
},
{
closed = 1;
nodes = (
(408,173,l),
(408,190,l),
(384,190,l),
(384,173,l)
);
}
);
};
hints = (
{
name = _corner.serif.uc;
origin = (1,29);
type = Corner;
},
{
name = _corner.serif.uc;
origin = (1,27);
type = Corner;
},
{
name = _corner.serif.uc;
options = 1;
origin = (1,28);
scale = (-1,1);
type = Corner;
}
);
layerId = m002;
shapes = (
{
closed = 1;
nodes = (
(703,576,l),
(710,598,l),
(677,598,l),
(670,576,l)
);
},
{
closed = 1;
nodes = (
(380,670,l),
(155,670,l),
(145,640,l),
(203,640,ls),
(245,640,o),
(253,619,o),
(241,582,cs),
(107,180,ls),
(78,93,o),
(23,30,o),
(-48,30,cs),
(-58,30,l),
(-68,0,l),
(197,0,l),
(207,30,l),
(197,30,ls),
(126,30,o),
(113,93,o),
(142,180,cs),
(295,640,ls),
(273,670,l),
(278,150,l),
(276,0,l),
(301,0,l),
(397,150,l),
(742,670,l),
(705,640,l),
(492,0,l),
(597,0,l),
(820,670,l),
(707,670,l),
(362,150,l),
(385,150,l)
);
},
{
closed = 1;
nodes = (
(289,565,l),
(296,587,l),
(263,587,l),
(256,565,l)
);
},
{
closed = 1;
nodes = (
(392,173,l),
(398,190,l),
(374,190,l),
(368,173,l)
);
}
);
width = 770;
},
{
background = {
shapes = (
{
closed = 1;
nodes = (
(584,576,l),
(584,598,l),
(551,598,l),
(551,576,l)
);
},
{
closed = 1;
nodes = (
(230,670,l),
(5,670,l),
(5,640,l),
(63,640,ls),
(105,640,o),
(120,619,o),
(120,582,cs),
(120,180,ls),
(120,93,o),
(86,30,o),
(15,30,cs),
(5,30,l),
(5,0,l),
(270,0,l),
(270,30,l),
(260,30,ls),
(189,30,o),
(155,93,o),
(155,180,cs),
(155,640,ls),
(123,670,l),
(301,150,l),
(349,0,l),
(374,0,l),
(420,150,l),
(592,670,l),
(565,640,l),
(565,68,ls),
(565,44,o),
(555,30,o),
(528,30,cs),
(470,30,l),
(470,0,l),
(765,0,l),
(765,30,l),
(710,30,ls),
(680,30,o),
(670,44,o),
(670,68,cs),
(670,602,ls),
(670,626,o),
(680,640,o),
(710,640,cs),
(765,640,l),
(765,670,l),
(557,670,l),
(385,150,l),
(408,150,l)
);
},
{
closed = 1;
nodes = (
(174,565,l),
(174,587,l),
(141,587,l),
(141,565,l)
);
},
{
closed = 1;
nodes = (
(408,173,l),
(408,190,l),
(384,190,l),
(384,173,l)
);
}
);
};
hints = (
{
name = _corner.serif.uc;
origin = (1,29);
type = Corner;
},
{
name = _corner.serif.uc;
origin = (1,27);
type = Corner;
},
{
name = _corner.serif.uc;
options = 1;
origin = (1,28);
scale = (-1,1);
type = Corner;
}
);
layerId = m003;
shapes = (
{
closed = 1;
nodes = (
(465,576,l),
(458,598,l),
(425,598,l),
(432,576,l)
);
},
{
closed = 1;
nodes = (
(80,670,l),
(-145,670,l),
(-135,640,l),
(-77,640,ls),
(-35,640,o),
(-13,619,o),
(-1,582,cs),
(133,180,ls),
(162,93,o),
(149,30,o),
(78,30,cs),
(68,30,l),
(78,0,l),
(343,0,l),
(333,30,l),
(323,30,ls),
(252,30,o),
(197,93,o),
(168,180,cs),
(15,640,ls),
(-27,670,l),
(324,150,l),
(422,0,l),
(447,0,l),
(443,150,l),
(442,670,l),
(425,640,l),
(638,0,l),
(743,0,l),
(520,670,l),
(407,670,l),
(408,150,l),
(431,150,l)
);
},
{
closed = 1;
nodes = (
(59,565,l),
(52,587,l),
(19,587,l),
(26,565,l)
);
},
{
closed = 1;
nodes = (
(424,173,l),
(418,190,l),
(394,190,l),
(400,173,l)
);
}
);
width = 770;
}
);
metricRight = H;
unicode = 77;
userData = {
com.typemytype.robofont.layerData = {
background = {
anchors = (
);
components = (
);
contours = (
);
lib = {
};
name = M;
unicodes = (
);
width = 770;
};
};
com.typemytype.robofont.mark = (
0.9366,
0.9212,
0.4821,
1
);
};
},
{
glyphname = N;
kernLeft = M;
lastChange = "2025-02-16 21:09:55 +0000";
layers = (
{
layerId = "484F8FD9-52EC-47CF-91D8-DA5450121283";
shapes = (
{
closed = 1;
nodes = (
(519,147,l),
(519,168,l),
(474,168,l),
(474,147,l)
);
},
{
closed = 1;
nodes = (
(536,577,o),
(570,640,o),
(641,640,cs),
(651,640,l),
(651,670,l),
(386,670,l),
(386,640,l),
(396,640,ls),
(467,640,o),
(501,577,o),
(501,490,cs),
(501,150,l),
(508,150,l),
(185,670,l),
(5,670,l),
(5,640,l),
(63,640,ls),
(105,640,o),
(120,619,o),
(120,582,cs),
(120,180,ls),
(120,93,o),
(86,30,o),
(15,30,cs),
(5,30,l),
(5,0,l),
(270,0,l),
(270,30,l),
(260,30,ls),
(189,30,o),
(155,93,o),
(155,180,cs),
(155,575,l),
(132,575,l),
(396,150,l),
(485,0,l),
(536,0,l),
(536,490,ls)
);
},
{
closed = 1;
nodes = (
(182,532,l),
(182,553,l),
(137,553,l),
(137,532,l)
);
}
);
width = 656;
},
{
layerId = m002;
shapes = (
{
closed = 1;
nodes = (
(495,147,l),
(502,168,l),
(457,168,l),
(450,147,l)
);
},
{
closed = 1;
nodes = (
(655,577,o),
(710,640,o),
(781,640,cs),
(791,640,l),
(801,670,l),
(536,670,l),
(526,640,l),
(536,640,ls),
(607,640,o),
(620,577,o),
(591,490,cs),
(478,150,l),
(485,150,l),
(335,670,l),
(155,670,l),
(145,640,l),
(203,640,ls),
(245,640,o),
(253,619,o),
(241,582,cs),
(107,180,ls),
(78,93,o),
(23,30,o),
(-48,30,cs),
(-58,30,l),
(-68,0,l),
(197,0,l),
(207,30,l),
(197,30,ls),
(126,30,o),
(113,93,o),
(142,180,cs),
(273,575,l),
(250,575,l),
(373,150,l),
(412,0,l),
(463,0,l),
(626,490,ls)
);
},
{
closed = 1;
nodes = (
(286,532,l),
(293,553,l),
(248,553,l),
(241,532,l)
);
}
);
width = 656;
},
{
layerId = m003;
shapes = (
{
closed = 1;
nodes = (
(543,147,l),
(536,168,l),
(491,168,l),
(498,147,l)
);
},
{
closed = 1;
nodes = (
(417,577,o),
(430,640,o),
(501,640,cs),
(511,640,l),
(501,670,l),
(236,670,l),
(246,640,l),
(256,640,ls),
(327,640,o),
(382,577,o),
(411,490,cs),
(524,150,l),
(531,150,l),
(35,670,l),
(-145,670,l),
(-135,640,l),
(-77,640,ls),
(-35,640,o),
(-13,619,o),
(-1,582,cs),
(133,180,ls),
(162,93,o),
(149,30,o),
(78,30,cs),
(68,30,l),
(78,0,l),
(343,0,l),
(333,30,l),
(323,30,ls),
(252,30,o),
(197,93,o),
(168,180,cs),
(37,575,l),
(14,575,l),
(419,150,l),
(558,0,l),
(609,0,l),
(446,490,ls)
);
},
{
closed = 1;
nodes = (
(78,532,l),
(71,553,l),
(26,553,l),
(33,532,l)
);
}
);
width = 656;
}
);
unicode = 78;
userData = {
com.typemytype.robofont.layerData = {
background = {
anchors = (
);
components = (
);
contours = (
);
lib = {
};
name = N;
unicodes = (
);
width = 656;
};
};
com.typemytype.robofont.mark = (
0.9366,
0.9212,
0.4821,
1
);
};
},
{
glyphname = O;
kernLeft = C;
kernRight = D;
lastChange = "2025-02-16 21:23:04 +0000";
layers = (
{
anchors = (
{
name = bottom;
pos = (335,0);
},
{
name = center;
pos = (335,335);
},
{
name = ogonek;
pos = (603,10);
},
{
name = top;
pos = (335,670);
},
{
name = topleft;
pos = (20,670);
},
{
name = topright;
pos = (650,670);
}
);
layerId = "484F8FD9-52EC-47CF-91D8-DA5450121283";
shapes = (
{
closed = 1;
nodes = (
(185,686,o),
(55,557,o),
(55,335,cs),
(55,114,o),
(185,-16,o),
(335,-16,cs),
(485,-16,o),
(615,114,o),
(615,335,cs),
(615,557,o),
(485,686,o),
(335,686,cs)
);
},
{
closed = 1;
nodes = (
(456,655,o),
(500,545,o),
(500,335,cs),
(500,127,o),
(456,17,o),
(335,17,cs),
(214,17,o),
(170,127,o),
(170,335,cs),
(170,545,o),
(214,655,o),
(335,655,cs)
);
}
);
width = 670;
},
{
anchors = (
{
name = bottom;
pos = (262,0);
},
{
name = center;
pos = (373,335);
},
{
name = ogonek;
pos = (533,10);
},
{
name = top;
pos = (485,670);
},
{
name = topleft;
pos = (170,670);
},
{
name = topright;
pos = (800,670);
}
);
layerId = m002;
shapes = (
{
closed = 1;
nodes = (
(340,686,o),
(167,557,o),
(93,335,cs),
(20,114,o),
(106,-16,o),
(256,-16,cs),
(406,-16,o),
(580,114,o),
(653,335,cs),
(727,557,o),
(640,686,o),
(490,686,cs)
);
},
{
closed = 1;
nodes = (
(601,655,o),
(608,545,o),
(538,335,cs),
(469,127,o),
(388,17,o),
(267,17,cs),
(146,17,o),
(139,127,o),
(208,335,cs),
(278,545,o),
(359,655,o),
(480,655,cs)
);
}
);
width = 670;
},
{
anchors = (
{
name = bottom;
pos = (408,0);
},
{
name = center;
pos = (297,335);
},
{
name = ogonek;
pos = (673,10);
},
{
name = top;
pos = (185,670);
},
{
name = topleft;
pos = (-130,670);
},
{
name = topright;
pos = (500,670);
}
);
layerId = m003;
shapes = (
{
closed = 1;
nodes = (
(30,686,o),
(-57,557,o),
(17,335,cs),
(90,114,o),
(264,-16,o),
(414,-16,cs),
(564,-16,o),
(650,114,o),
(577,335,cs),
(503,557,o),
(330,686,o),
(180,686,cs)
);
},
{
closed = 1;
nodes = (
(311,655,o),
(392,545,o),
(462,335,cs),
(531,127,o),
(524,17,o),
(403,17,cs),
(282,17,o),
(201,127,o),
(132,335,cs),
(62,545,o),
(69,655,o),
(190,655,cs)
);
}
);
width = 670;
}
);
unicode = 79;
userData = {
com.typemytype.robofont.layerData = {
background = {
anchors = (
);
components = (
);
contours = (
);
lib = {
};
name = O;
unicodes = (
);
width = 670;
};
};
com.typemytype.robofont.mark = (
0.9366,
0.9212,
0.4821,
1
);
};
},
{
glyphname = P;
kernLeft = B;
lastChange = "2025-02-16 21:10:10 +0000";
layers = (
{
background = {
shapes = (
{
closed = 1;
nodes = (
(300,30,l),
(242,30,ls),
(215,30,o),
(205,44,o),
(205,68,cs),
(205,640,l),
(303,640,ls),
(384,640,o),
(435,590,o),
(435,487,cs),
(435,384,o),
(392,330,o),
(303,330,cs),
(166,330,l),
(166,300,l),
(312,300,ls),
(478,300,o),
(545,383,o),
(545,487,cs),
(545,591,o),
(474,670,o),
(312,670,cs),
(5,670,l),
(5,640,l),
(63,640,ls),
(90,640,o),
(100,626,o),
(100,602,cs),
(100,68,ls),
(100,44,o),
(90,30,o),
(63,30,cs),
(5,30,l),
(5,0,l),
(300,0,l)
);
}
);
};
hints = (
{
name = _corner.serif.uc;
options = 1;
origin = (0,18);
scale = (-1,1);
type = Corner;
},
{
name = _corner.serif.uc;
options = 1;
origin = (0,0);
scale = (-1,1);
type = Corner;
},
{
name = _corner.serif.uc;
origin = (0,19);
type = Corner;
}
);
layerId = "484F8FD9-52EC-47CF-91D8-DA5450121283";
shapes = (
{
closed = 1;
nodes = (
(205,0,l),
(205,640,l),
(303,640,ls),
(384,640,o),
(435,590,o),
(435,487,cs),
(435,384,o),
(392,330,o),
(303,330,cs),
(166,330,l),
(166,300,l),
(312,300,ls),
(478,300,o),
(545,383,o),
(545,487,cs),
(545,591,o),
(474,670,o),
(312,670,cs),
(100,670,l),
(100,0,l)
);
}
);
width = 563;
},
{
background = {
shapes = (
{
closed = 1;
nodes = (
(300,30,l),
(242,30,ls),
(215,30,o),
(205,44,o),
(205,68,cs),
(205,640,l),
(303,640,ls),
(384,640,o),
(435,590,o),
(435,487,cs),
(435,384,o),
(392,330,o),
(303,330,cs),
(166,330,l),
(166,300,l),
(312,300,ls),
(478,300,o),
(545,383,o),
(545,487,cs),
(545,591,o),
(474,670,o),
(312,670,cs),
(5,670,l),
(5,640,l),
(63,640,ls),
(90,640,o),
(100,626,o),
(100,602,cs),
(100,68,ls),
(100,44,o),
(90,30,o),
(63,30,cs),
(5,30,l),
(5,0,l),
(300,0,l)
);
}
);
};
hints = (
{
name = _corner.serif.uc;
options = 1;
origin = (0,18);
scale = (-1,1);
type = Corner;
},
{
name = _corner.serif.uc;
options = 1;
origin = (0,0);
scale = (-1,1);
type = Corner;
},
{
name = _corner.serif.uc;
origin = (0,19);
type = Corner;
}
);
layerId = m002;
shapes = (
{
closed = 1;
nodes = (
(132,0,l),
(345,640,l),
(443,640,ls),
(524,640,o),
(558,590,o),
(524,487,cs),
(490,384,o),
(429,330,o),
(340,330,cs),
(203,330,l),
(193,300,l),
(339,300,ls),
(505,300,o),
(599,383,o),
(634,487,cs),
(669,591,o),
(624,670,o),
(462,670,cs),
(250,670,l),
(27,0,l)
);
}
);
width = 563;
},
{
background = {
shapes = (
{
closed = 1;
nodes = (
(300,30,l),
(242,30,ls),
(215,30,o),
(205,44,o),
(205,68,cs),
(205,640,l),
(303,640,ls),
(384,640,o),
(435,590,o),
(435,487,cs),
(435,384,o),
(392,330,o),
(303,330,cs),
(166,330,l),
(166,300,l),
(312,300,ls),
(478,300,o),
(545,383,o),
(545,487,cs),
(545,591,o),
(474,670,o),
(312,670,cs),
(5,670,l),
(5,640,l),
(63,640,ls),
(90,640,o),
(100,626,o),
(100,602,cs),
(100,68,ls),
(100,44,o),
(90,30,o),
(63,30,cs),
(5,30,l),
(5,0,l),
(300,0,l)
);
}
);
};
hints = (
{
name = _corner.serif.uc;
options = 1;
origin = (0,18);
scale = (-1,1);
type = Corner;
},
{
name = _corner.serif.uc;
options = 1;
origin = (0,0);
scale = (-1,1);
type = Corner;
},
{
name = _corner.serif.uc;
origin = (0,19);
type = Corner;
}
);
layerId = m003;
shapes = (
{
closed = 1;
nodes = (
(278,0,l),
(65,640,l),
(163,640,ls),
(244,640,o),
(312,590,o),
(346,487,cs),
(380,384,o),
(355,330,o),
(266,330,cs),
(129,330,l),
(139,300,l),
(285,300,ls),
(451,300,o),
(491,383,o),
(456,487,cs),
(421,591,o),
(324,670,o),
(162,670,cs),
(-50,670,l),
(173,0,l)
);
}
);
width = 563;
}
);
metricLeft = H;
unicode = 80;
userData = {
com.typemytype.robofont.layerData = {
background = {
anchors = (
);
components = (
);
contours = (
);
lib = {
};
name = P;
unicodes = (
);
width = 563;
};
};
com.typemytype.robofont.mark = (
0.9366,
0.9212,
0.4821,
1
);
};
},
{
color = 7;
glyphname = Q;
kernLeft = C;
lastChange = "2025-02-16 21:10:15 +0000";
layers = (
{
layerId = "484F8FD9-52EC-47CF-91D8-DA5450121283";
shapes = (
{
closed = 1;
nodes = (
(313,-187,l),
(338,-187,l),
(346,-160,o),
(367,-141,o),
(395,-141,cs),
(439,-141,o),
(471,-190,o),
(520,-190,cs),
(579,-190,o),
(625,-132,o),
(672,-27,c),
(641,-13,l),
(612,-76,o),
(593,-93,o),
(568,-93,cs),
(524,-93,o),
(496,-50,o),
(449,-50,cs),
(400,-50,o),
(357,-86,o),
(320,-177,c),
(347,-147,l),
(347,160,l),
(313,160,l)
);
},
{
ref = O;
}
);
width = 670;
},
{
layerId = m002;
shapes = (
{
closed = 1;
nodes = (
(177,-187,l),
(202,-187,l),
(219,-160,o),
(247,-141,o),
(275,-141,cs),
(319,-141,o),
(334,-190,o),
(383,-190,cs),
(442,-190,o),
(508,-132,o),
(590,-27,c),
(563,-13,l),
(513,-76,o),
(489,-93,o),
(464,-93,cs),
(420,-93,o),
(406,-50,o),
(359,-50,cs),
(310,-50,o),
(255,-86,o),
(188,-177,c),
(225,-147,l),
(327,160,l),
(293,160,l)
);
},
{
ref = O;
}
);
width = 670;
},
{
layerId = m003;
shapes = (
{
closed = 1;
nodes = (
(449,-187,l),
(474,-187,l),
(473,-160,o),
(487,-141,o),
(515,-141,cs),
(559,-141,o),
(608,-190,o),
(657,-190,cs),
(716,-190,o),
(742,-132,o),
(754,-27,c),
(719,-13,l),
(711,-76,o),
(697,-93,o),
(672,-93,cs),
(628,-93,o),
(586,-50,o),
(539,-50,cs),
(490,-50,o),
(459,-86,o),
(452,-177,c),
(469,-147,l),
(367,160,l),
(333,160,l)
);
},
{
ref = O;
}
);
width = 670;
}
);
unicode = 81;
userData = {
com.typemytype.robofont.layerData = {
background = {
anchors = (
);
components = (
);
contours = (
);
lib = {
};
name = Q;
unicodes = (
);
width = 670;
};
};
com.typemytype.robofont.mark = (
0.3692,
0.5456,
0.891,
1
);
};
},
{
glyphname = R;
kernLeft = B;
lastChange = "2025-02-16 21:10:19 +0000";
layers = (
{
background = {
hints = (
{
name = _corner.serif.uc;
options = 1;
origin = (1,0);
scale = (-1,1);
type = Corner;
},
{
name = _corner.serif.uc;
options = 1;
origin = (1,36);
scale = (-1,1);
type = Corner;
},
{
name = _corner.serif.uc;
origin = (1,37);
type = Corner;
}
);
shapes = (
{
closed = 1;
nodes = (
(390,334,l),
(390,358,l),
(307,358,l),
(307,334,l)
);
},
{
closed = 1;
nodes = (
(205,0,l),
(205,640,l),
(303,640,ls),
(385,640,o),
(437,596,o),
(437,505,cs),
(437,410,o),
(393,360,o),
(303,360,cs),
(166,360,l),
(166,330,l),
(303,330,ls),
(390,330,o),
(418,291,o),
(419,218,cs),
(421,67,ls),
(422,17,o),
(444,0,o),
(492,0,cs),
(605,0,l),
(605,30,l),
(570,30,ls),
(537,30,o),
(524,45,o),
(524,78,cs),
(522,222,ls),
(521,307,o),
(458,335,o),
(315,356,c),
(312,340,l),
(479,340,o),
(547,413,o),
(547,505,cs),
(547,599,o),
(476,670,o),
(312,670,cs),
(100,670,l),
(100,0,l)
);
}
);
};
hints = (
{
name = _corner.serif.uc;
origin = (1,37);
type = Corner;
},
{
name = _corner.serif.uc;
options = 1;
origin = (1,0);
scale = (-1,1);
type = Corner;
},
{
name = _corner.serif.uc;
options = 1;
origin = (1,36);
scale = (-1,1);
type = Corner;
}
);
layerId = "484F8FD9-52EC-47CF-91D8-DA5450121283";
shapes = (
{
closed = 1;
nodes = (
(390,334,l),
(390,358,l),
(307,358,l),
(307,334,l)
);
},
{
closed = 1;
nodes = (
(205,0,l),
(205,640,l),
(303,640,ls),
(385,640,o),
(437,596,o),
(437,505,cs),
(437,410,o),
(393,360,o),
(303,360,cs),
(166,360,l),
(166,330,l),
(303,330,ls),
(392,330,o),
(421,291,o),
(421,215,cs),
(421,67,ls),
(421,17,o),
(444,0,o),
(492,0,cs),
(605,0,l),
(605,30,l),
(570,30,ls),
(537,30,o),
(524,45,o),
(524,78,cs),
(524,217,ls),
(524,307,o),
(459,335,o),
(315,356,c),
(312,340,l),
(479,340,o),
(547,413,o),
(547,505,cs),
(547,599,o),
(476,670,o),
(312,670,cs),
(100,670,l),
(100,0,l)
);
}
);
width = 620;
},
{
background = {
hints = (
{
name = _corner.serif.uc;
options = 1;
origin = (1,0);
scale = (-1,1);
type = Corner;
},
{
name = _corner.serif.uc;
options = 1;
origin = (1,36);
scale = (-1,1);
type = Corner;
},
{
name = _corner.serif.uc;
origin = (1,37);
type = Corner;
}
);
shapes = (
{
closed = 1;
nodes = (
(390,334,l),
(390,358,l),
(307,358,l),
(307,334,l)
);
},
{
closed = 1;
nodes = (
(205,0,l),
(205,640,l),
(303,640,ls),
(385,640,o),
(437,596,o),
(437,505,cs),
(437,410,o),
(393,360,o),
(303,360,cs),
(166,360,l),
(166,330,l),
(303,330,ls),
(390,330,o),
(418,291,o),
(419,218,cs),
(421,67,ls),
(422,17,o),
(444,0,o),
(492,0,cs),
(605,0,l),
(605,30,l),
(570,30,ls),
(537,30,o),
(524,45,o),
(524,78,cs),
(522,222,ls),
(521,307,o),
(458,335,o),
(315,356,c),
(312,340,l),
(479,340,o),
(547,413,o),
(547,505,cs),
(547,599,o),
(476,670,o),
(312,670,cs),
(100,670,l),
(100,0,l)
);
}
);
};
hints = (
{
name = _corner.serif.uc;
origin = (1,37);
type = Corner;
},
{
name = _corner.serif.uc;
options = 1;
origin = (1,0);
scale = (-1,1);
type = Corner;
},
{
name = _corner.serif.uc;
options = 1;
origin = (1,36);
scale = (-1,1);
type = Corner;
}
);
layerId = m002;
shapes = (
{
closed = 1;
nodes = (
(428,334,l),
(436,358,l),
(353,358,l),
(345,334,l)
);
},
{
closed = 1;
nodes = (
(132,0,l),
(345,640,l),
(443,640,ls),
(525,640,o),
(562,596,o),
(532,505,cs),
(500,410,o),
(440,360,o),
(350,360,cs),
(213,360,l),
(203,330,l),
(340,330,ls),
(428,330,o),
(445,291,o),
(419,215,cs),
(370,67,ls),
(353,17,o),
(371,0,o),
(419,0,cs),
(532,0,l),
(542,30,l),
(507,30,ls),
(474,30,o),
(466,45,o),
(477,78,cs),
(523,217,ls),
(553,307,o),
(498,335,o),
(360,356,c),
(352,340,l),
(519,340,o),
(611,413,o),
(642,505,cs),
(673,599,o),
(626,670,o),
(462,670,cs),
(250,670,l),
(27,0,l)
);
}
);
width = 620;
},
{
background = {
hints = (
{
name = _corner.serif.uc;
options = 1;
origin = (1,0);
scale = (-1,1);
type = Corner;
},
{
name = _corner.serif.uc;
options = 1;
origin = (1,36);
scale = (-1,1);
type = Corner;
},
{
name = _corner.serif.uc;
origin = (1,37);
type = Corner;
}
);
shapes = (
{
closed = 1;
nodes = (
(390,334,l),
(390,358,l),
(307,358,l),
(307,334,l)
);
},
{
closed = 1;
nodes = (
(205,0,l),
(205,640,l),
(303,640,ls),
(385,640,o),
(437,596,o),
(437,505,cs),
(437,410,o),
(393,360,o),
(303,360,cs),
(166,360,l),
(166,330,l),
(303,330,ls),
(390,330,o),
(418,291,o),
(419,218,cs),
(421,67,ls),
(422,17,o),
(444,0,o),
(492,0,cs),
(605,0,l),
(605,30,l),
(570,30,ls),
(537,30,o),
(524,45,o),
(524,78,cs),
(522,222,ls),
(521,307,o),
(458,335,o),
(315,356,c),
(312,340,l),
(479,340,o),
(547,413,o),
(547,505,cs),
(547,599,o),
(476,670,o),
(312,670,cs),
(100,670,l),
(100,0,l)
);
}
);
};
hints = (
{
name = _corner.serif.uc;
origin = (1,37);
type = Corner;
},
{
name = _corner.serif.uc;
options = 1;
origin = (1,0);
scale = (-1,1);
type = Corner;
},
{
name = _corner.serif.uc;
options = 1;
origin = (1,36);
scale = (-1,1);
type = Corner;
}
);
layerId = m003;
shapes = (
{
closed = 1;
nodes = (
(352,334,l),
(344,358,l),
(261,358,l),
(269,334,l)
);
},
{
closed = 1;
nodes = (
(278,0,l),
(65,640,l),
(163,640,ls),
(245,640,o),
(312,596,o),
(342,505,cs),
(374,410,o),
(346,360,o),
(256,360,cs),
(119,360,l),
(129,330,l),
(266,330,ls),
(355,330,o),
(397,291,o),
(423,215,cs),
(472,67,ls),
(489,17,o),
(517,0,o),
(565,0,cs),
(678,0,l),
(668,30,l),
(633,30,ls),
(600,30,o),
(582,45,o),
(571,78,cs),
(525,217,ls),
(495,307,o),
(421,335,o),
(270,356,c),
(272,340,l),
(439,340,o),
(483,413,o),
(452,505,cs),
(421,599,o),
(326,670,o),
(162,670,cs),
(-50,670,l),
(173,0,l)
);
}
);
width = 620;
}
);
metricLeft = H;
unicode = 82;
userData = {
com.typemytype.robofont.layerData = {
background = {
anchors = (
);
components = (
);
contours = (
);
lib = {
};
name = R;
unicodes = (
);
width = 620;
};
};
};
},
{
color = 3;
glyphname = R.ss01;
kernLeft = B;
lastChange = "2025-02-16 21:10:21 +0000";
layers = (
{
background = {
shapes = (
{
ref = R;
}
);
};
hints = (
{
name = _corner.serif.uc;
origin = (1,7);
type = Corner;
},
{
name = _corner.serif.uc;
options = 1;
origin = (1,8);
scale = (-1,1);
type = Corner;
},
{
name = _corner.serif.uc;
options = 1;
origin = (1,6);
scale = (-1,1);
type = Corner;
}
);
layerId = "484F8FD9-52EC-47CF-91D8-DA5450121283";
shapes = (
{
closed = 1;
nodes = (
(390,334,l),
(390,358,l),
(307,358,l),
(307,334,l)
);
},
{
closed = 1;
nodes = (
(479,340,o),
(547,413,o),
(547,505,cs),
(547,599,o),
(476,670,o),
(312,670,cs),
(100,670,l),
(100,0,l),
(205,0,l),
(205,640,l),
(303,640,ls),
(385,640,o),
(437,596,o),
(437,505,cs),
(437,410,o),
(393,360,o),
(303,360,cs),
(166,360,l),
(166,330,l),
(303,330,ls),
(381,330,o),
(404,297,o),
(407,224,cs),
(411,135,ls),
(416,11,o),
(474,-14,o),
(550,-14,cs),
(643,-14,o),
(678,37,o),
(724,112,c),
(697,128,l),
(655,61,o),
(627,32,o),
(588,32,cs),
(546,32,o),
(530,59,o),
(524,125,cs),
(515,222,ls),
(507,312,o),
(453,336,o),
(315,356,c),
(312,340,l)
);
}
);
width = 648;
},
{
background = {
shapes = (
{
ref = R;
}
);
};
hints = (
{
name = _corner.serif.uc;
origin = (1,7);
type = Corner;
},
{
name = _corner.serif.uc;
options = 1;
origin = (1,8);
scale = (-1,1);
type = Corner;
},
{
name = _corner.serif.uc;
options = 1;
origin = (1,6);
scale = (-1,1);
type = Corner;
}
);
layerId = m002;
shapes = (
{
closed = 1;
nodes = (
(428,334,l),
(436,358,l),
(353,358,l),
(345,334,l)
);
},
{
closed = 1;
nodes = (
(519,340,o),
(611,413,o),
(642,505,cs),
(673,599,o),
(626,670,o),
(462,670,cs),
(250,670,l),
(27,0,l),
(132,0,l),
(345,640,l),
(443,640,ls),
(525,640,o),
(562,596,o),
(532,505,cs),
(500,410,o),
(440,360,o),
(350,360,cs),
(213,360,l),
(203,330,l),
(340,330,ls),
(418,330,o),
(430,297,o),
(408,224,cs),
(383,135,ls),
(346,11,o),
(396,-14,o),
(472,-14,cs),
(565,-14,o),
(617,37,o),
(688,112,c),
(666,128,l),
(602,61,o),
(564,32,o),
(525,32,cs),
(483,32,o),
(476,59,o),
(492,125,cs),
(516,222,ls),
(538,312,o),
(492,336,o),
(360,356,c),
(352,340,l)
);
}
);
width = 648;
},
{
background = {
shapes = (
{
ref = R;
}
);
};
hints = (
{
name = _corner.serif.uc;
origin = (1,7);
type = Corner;
},
{
name = _corner.serif.uc;
options = 1;
origin = (1,8);
scale = (-1,1);
type = Corner;
},
{
name = _corner.serif.uc;
options = 1;
origin = (1,6);
scale = (-1,1);
type = Corner;
}
);
layerId = m003;
shapes = (
{
closed = 1;
nodes = (
(352,334,l),
(344,358,l),
(261,358,l),
(269,334,l)
);
},
{
closed = 1;
nodes = (
(439,340,o),
(483,413,o),
(452,505,cs),
(421,599,o),
(326,670,o),
(162,670,cs),
(-50,670,l),
(173,0,l),
(278,0,l),
(65,640,l),
(163,640,ls),
(245,640,o),
(312,596,o),
(342,505,cs),
(374,410,o),
(346,360,o),
(256,360,cs),
(119,360,l),
(129,330,l),
(266,330,ls),
(344,330,o),
(378,297,o),
(406,224,cs),
(439,135,ls),
(486,11,o),
(552,-14,o),
(628,-14,cs),
(721,-14,o),
(739,37,o),
(760,112,c),
(728,128,l),
(708,61,o),
(690,32,o),
(651,32,cs),
(609,32,o),
(584,59,o),
(556,125,cs),
(514,222,ls),
(476,312,o),
(414,336,o),
(270,356,c),
(272,340,l)
);
}
);
width = 648;
}
);
userData = {
com.typemytype.robofont.layerData = {
background = {
anchors = (
);
components = (
);
contours = (
);
lib = {
};
name = R;
unicodes = (
);
width = 648;
};
};
com.typemytype.robofont.mark = (
0.4827,
0.8546,
0.4678,
1
);
};
},
{
glyphname = S;
lastChange = "2025-02-16 21:10:25 +0000";
layers = (
{
background = {
shapes = (
{
closed = 1;
nodes = (
(186,182,o),
(158,209,o),
(116,209,cs),
(75,209,o),
(45,176,o),
(45,131,cs),
(45,48,o),
(132,-18,o),
(263,-18,cs),
(427,-18,o),
(507,67,o),
(507,182,cs),
(507,258,o),
(470,328,o),
(364,373,cs),
(237,427,ls),
(174,454,o),
(159,491,o),
(159,533,cs),
(159,599,o),
(199,646,o),
(278,646,cs),
(324,646,o),
(363,633,o),
(363,598,cs),
(363,585,o),
(351,571,o),
(351,542,cs),
(351,509,o),
(376,477,o),
(422,477,cs),
(467,477,o),
(489,515,o),
(489,549,cs),
(489,614,o),
(425,682,o),
(278,682,cs),
(144,682,o),
(57,607,o),
(57,500,cs),
(57,444,o),
(84,379,o),
(173,341,cs),
(315,280,ls),
(386,250,o),
(405,198,o),
(405,151,cs),
(405,69,o),
(358,18,o),
(269,18,cs),
(227,18,o),
(170,41,o),
(170,76,cs),
(170,91,o),
(186,112,o),
(186,143,cs)
);
}
);
};
layerId = "484F8FD9-52EC-47CF-91D8-DA5450121283";
shapes = (
{
closed = 1;
nodes = (
(143,684,o),
(57,623,o),
(57,525,cs),
(57,467,o),
(84,424,o),
(153,379,cs),
(349,253,ls),
(389,227,o),
(408,193,o),
(408,147,cs),
(408,79,o),
(365,22,o),
(295,22,cs),
(188,22,o),
(111,116,o),
(85,240,c),
(55,240,l),
(55,-5,l),
(80,-5,l),
(86,16,o),
(103,28,o),
(123,28,cs),
(174,28,o),
(209,-14,o),
(318,-14,cs),
(424,-14,o),
(504,59,o),
(504,172,cs),
(504,239,o),
(475,290,o),
(411,331,cs),
(215,456,ls),
(171,484,o),
(151,508,o),
(151,551,cs),
(151,607,o),
(186,652,o),
(253,652,cs),
(348,652,o),
(410,574,o),
(427,461,c),
(457,461,l),
(457,675,l),
(432,675,l),
(428,660,o),
(421,650,o),
(401,650,cs),
(366,650,o),
(335,684,o),
(253,684,cs)
);
}
);
width = 550;
},
{
background = {
shapes = (
{
closed = 1;
nodes = (
(186,182,o),
(158,209,o),
(116,209,cs),
(75,209,o),
(45,176,o),
(45,131,cs),
(45,48,o),
(132,-18,o),
(263,-18,cs),
(427,-18,o),
(507,67,o),
(507,182,cs),
(507,258,o),
(470,328,o),
(364,373,cs),
(237,427,ls),
(174,454,o),
(159,491,o),
(159,533,cs),
(159,599,o),
(199,646,o),
(278,646,cs),
(324,646,o),
(363,633,o),
(363,598,cs),
(363,585,o),
(351,571,o),
(351,542,cs),
(351,509,o),
(376,477,o),
(422,477,cs),
(467,477,o),
(489,515,o),
(489,549,cs),
(489,614,o),
(425,682,o),
(278,682,cs),
(144,682,o),
(57,607,o),
(57,500,cs),
(57,444,o),
(84,379,o),
(173,341,cs),
(315,280,ls),
(386,250,o),
(405,198,o),
(405,151,cs),
(405,69,o),
(358,18,o),
(269,18,cs),
(227,18,o),
(170,41,o),
(170,76,cs),
(170,91,o),
(186,112,o),
(186,143,cs)
);
}
);
};
layerId = m002;
shapes = (
{
closed = 1;
nodes = (
(298,684,o),
(191,623,o),
(159,525,cs),
(139,467,o),
(152,424,o),
(206,379,cs),
(360,253,ls),
(391,227,o),
(399,193,o),
(384,147,cs),
(361,79,o),
(299,22,o),
(229,22,cs),
(122,22,o),
(76,116,o),
(92,240,c),
(62,240,l),
(-20,-5,l),
(5,-5,l),
(18,16,o),
(39,28,o),
(59,28,cs),
(110,28,o),
(131,-14,o),
(240,-14,cs),
(346,-14,o),
(450,59,o),
(488,172,cs),
(510,239,o),
(498,290,o),
(448,331,cs),
(294,456,ls),
(259,484,o),
(247,508,o),
(261,551,cs),
(280,607,o),
(330,652,o),
(397,652,cs),
(492,652,o),
(528,574,o),
(507,461,c),
(537,461,l),
(609,675,l),
(584,675,l),
(575,660,o),
(564,650,o),
(544,650,cs),
(509,650,o),
(490,684,o),
(408,684,cs)
);
}
);
width = 550;
},
{
background = {
shapes = (
{
closed = 1;
nodes = (
(186,182,o),
(158,209,o),
(116,209,cs),
(75,209,o),
(45,176,o),
(45,131,cs),
(45,48,o),
(132,-18,o),
(263,-18,cs),
(427,-18,o),
(507,67,o),
(507,182,cs),
(507,258,o),
(470,328,o),
(364,373,cs),
(237,427,ls),
(174,454,o),
(159,491,o),
(159,533,cs),
(159,599,o),
(199,646,o),
(278,646,cs),
(324,646,o),
(363,633,o),
(363,598,cs),
(363,585,o),
(351,571,o),
(351,542,cs),
(351,509,o),
(376,477,o),
(422,477,cs),
(467,477,o),
(489,515,o),
(489,549,cs),
(489,614,o),
(425,682,o),
(278,682,cs),
(144,682,o),
(57,607,o),
(57,500,cs),
(57,444,o),
(84,379,o),
(173,341,cs),
(315,280,ls),
(386,250,o),
(405,198,o),
(405,151,cs),
(405,69,o),
(358,18,o),
(269,18,cs),
(227,18,o),
(170,41,o),
(170,76,cs),
(170,91,o),
(186,112,o),
(186,143,cs)
);
}
);
};
layerId = m003;
shapes = (
{
closed = 1;
nodes = (
(-12,684,o),
(-77,623,o),
(-45,525,cs),
(-25,467,o),
(16,424,o),
(100,379,cs),
(338,253,ls),
(387,227,o),
(417,193,o),
(432,147,cs),
(455,79,o),
(431,22,o),
(361,22,cs),
(254,22,o),
(146,116,o),
(78,240,c),
(48,240,l),
(130,-5,l),
(155,-5,l),
(154,16,o),
(167,28,o),
(187,28,cs),
(238,28,o),
(287,-14,o),
(396,-14,cs),
(502,-14,o),
(558,59,o),
(520,172,cs),
(498,239,o),
(452,290,o),
(374,331,cs),
(136,456,ls),
(83,484,o),
(55,508,o),
(41,551,cs),
(22,607,o),
(42,652,o),
(109,652,cs),
(204,652,o),
(292,574,o),
(347,461,c),
(377,461,l),
(305,675,l),
(280,675,l),
(281,660,o),
(278,650,o),
(258,650,cs),
(223,650,o),
(180,684,o),
(98,684,cs)
);
}
);
width = 550;
}
);
unicode = 83;
userData = {
com.typemytype.robofont.layerData = {
background = {
anchors = (
);
components = (
);
contours = (
);
lib = {
};
name = S;
unicodes = (
);
width = 550;
};
};
};
},
{
color = 3;
glyphname = S.ss01;
lastChange = "2025-02-16 21:10:29 +0000";
layers = (
{
layerId = "484F8FD9-52EC-47CF-91D8-DA5450121283";
shapes = (
{
closed = 1;
nodes = (
(186,184,o),
(158,211,o),
(116,211,cs),
(75,211,o),
(45,178,o),
(45,133,cs),
(45,50,o),
(132,-16,o),
(263,-16,cs),
(427,-16,o),
(507,68,o),
(507,182,cs),
(507,258,o),
(470,328,o),
(364,373,cs),
(237,427,ls),
(174,454,o),
(159,491,o),
(159,533,cs),
(159,598,o),
(199,644,o),
(278,644,cs),
(324,644,o),
(363,631,o),
(363,596,cs),
(363,583,o),
(351,569,o),
(351,540,cs),
(351,507,o),
(376,475,o),
(422,475,cs),
(467,475,o),
(489,513,o),
(489,547,cs),
(489,612,o),
(425,680,o),
(278,680,cs),
(144,680,o),
(57,606,o),
(57,500,cs),
(57,444,o),
(84,379,o),
(173,341,cs),
(315,280,ls),
(386,250,o),
(405,198,o),
(405,151,cs),
(405,70,o),
(358,20,o),
(269,20,cs),
(227,20,o),
(170,43,o),
(170,78,cs),
(170,93,o),
(186,114,o),
(186,145,cs)
);
}
);
width = 552;
},
{
layerId = m002;
shapes = (
{
closed = 1;
nodes = (
(173,182,o),
(154,209,o),
(112,209,cs),
(71,209,o),
(30,176,o),
(15,131,cs),
(-12,48,o),
(53,-18,o),
(184,-18,cs),
(348,-18,o),
(456,67,o),
(494,182,cs),
(520,258,o),
(506,328,o),
(415,373,cs),
(306,427,ls),
(252,454,o),
(249,491,o),
(263,533,cs),
(285,599,o),
(341,646,o),
(420,646,cs),
(466,646,o),
(501,633,o),
(489,598,cs),
(485,585,o),
(468,571,o),
(458,542,cs),
(447,509,o),
(462,477,o),
(508,477,cs),
(553,477,o),
(587,515,o),
(599,549,cs),
(620,614,o),
(579,682,o),
(432,682,cs),
(298,682,o),
(186,607,o),
(150,500,cs),
(132,444,o),
(137,379,o),
(213,341,cs),
(335,280,ls),
(396,250,o),
(398,198,o),
(382,151,cs),
(355,69,o),
(291,18,o),
(202,18,cs),
(160,18,o),
(110,41,o),
(122,76,cs),
(127,91,o),
(150,112,o),
(160,143,cs)
);
}
);
width = 552;
},
{
layerId = m003;
shapes = (
{
closed = 1;
nodes = (
(198,184,o),
(161,211,o),
(119,211,cs),
(78,211,o),
(59,178,o),
(74,133,cs),
(102,50,o),
(211,-16,o),
(342,-16,cs),
(506,-16,o),
(558,68,o),
(520,182,cs),
(494,258,o),
(434,328,o),
(313,373,cs),
(168,427,ls),
(96,454,o),
(69,491,o),
(55,533,cs),
(33,598,o),
(58,644,o),
(137,644,cs),
(183,644,o),
(226,631,o),
(238,596,cs),
(242,583,o),
(235,569,o),
(244,540,cs),
(255,507,o),
(291,475,o),
(337,475,cs),
(382,475,o),
(391,513,o),
(380,547,cs),
(358,612,o),
(272,680,o),
(125,680,cs),
(-9,680,o),
(-72,606,o),
(-36,500,cs),
(-18,444,o),
(31,379,o),
(133,341,cs),
(295,280,ls),
(376,250,o),
(412,198,o),
(428,151,cs),
(455,70,o),
(425,20,o),
(336,20,cs),
(294,20,o),
(229,43,o),
(217,78,cs),
(212,93,o),
(221,114,o),
(211,145,cs)
);
}
);
width = 552;
}
);
userData = {
com.typemytype.robofont.layerData = {
background = {
anchors = (
);
components = (
);
contours = (
);
lib = {
};
name = S;
unicodes = (
);
width = 552;
};
};
com.typemytype.robofont.mark = (
0.4827,
0.8546,
0.4678,
1
);
};
},
{
glyphname = T;
kernLeft = T;
kernRight = T;
lastChange = "2025-02-16 21:10:32 +0000";
layers = (
{
hints = (
{
name = _corner.serif.uc;
origin = (0,15);
type = Corner;
},
{
name = _corner.serif.uc;
options = 1;
origin = (0,0);
scale = (-1,1);
type = Corner;
}
);
layerId = "484F8FD9-52EC-47CF-91D8-DA5450121283";
shapes = (
{
closed = 1;
nodes = (
(335,0,l),
(335,640,l),
(355,640,ls),
(436,640,o),
(489,572,o),
(501,440,c),
(535,440,l),
(535,670,l),
(30,670,l),
(30,440,l),
(64,440,l),
(76,572,o),
(129,640,o),
(210,640,cs),
(230,640,l),
(230,0,l)
);
}
);
width = 565;
},
{
hints = (
{
name = _corner.serif.uc;
origin = (0,15);
type = Corner;
},
{
name = _corner.serif.uc;
options = 1;
origin = (0,0);
scale = (-1,1);
type = Corner;
}
);
layerId = m002;
shapes = (
{
closed = 1;
nodes = (
(262,0,l),
(475,640,l),
(495,640,ls),
(576,640,o),
(606,572,o),
(574,440,c),
(608,440,l),
(685,670,l),
(180,670,l),
(103,440,l),
(137,440,l),
(193,572,o),
(269,640,o),
(350,640,cs),
(370,640,l),
(157,0,l)
);
}
);
width = 565;
},
{
hints = (
{
name = _corner.serif.uc;
origin = (0,15);
type = Corner;
},
{
name = _corner.serif.uc;
options = 1;
origin = (0,0);
scale = (-1,1);
type = Corner;
}
);
layerId = m003;
shapes = (
{
closed = 1;
nodes = (
(408,0,l),
(195,640,l),
(215,640,ls),
(296,640,o),
(372,572,o),
(428,440,c),
(462,440,l),
(385,670,l),
(-120,670,l),
(-43,440,l),
(-9,440,l),
(-41,572,o),
(-11,640,o),
(70,640,cs),
(90,640,l),
(303,0,l)
);
}
);
width = 565;
}
);
unicode = 84;
userData = {
com.typemytype.robofont.layerData = {
background = {
anchors = (
);
components = (
);
contours = (
);
lib = {
};
name = E;
unicodes = (
);
width = 565;
};
};
com.typemytype.robofont.mark = (
0.9366,
0.9212,
0.4821,
1
);
};
},
{
glyphname = U;
kernLeft = U;
kernRight = U;
lastChange = "2025-02-16 21:10:36 +0000";
layers = (
{
anchors = (
{
name = bottom;
pos = (321,0);
},
{
name = ogonek;
pos = (577,10);
},
{
name = top;
pos = (335,670);
},
{
name = topright;
pos = (621,670);
}
);
hints = (
{
name = _corner.serif.uc;
options = 1;
origin = (0,23);
scale = (-1,1);
type = Corner;
},
{
name = _corner.serif.uc;
origin = (0,22);
type = Corner;
}
);
layerId = "484F8FD9-52EC-47CF-91D8-DA5450121283";
shapes = (
{
closed = 1;
nodes = (
(446,-18,o),
(531,60,o),
(531,198,cs),
(531,490,ls),
(531,577,o),
(565,640,o),
(636,640,cs),
(646,640,l),
(646,670,l),
(381,670,l),
(381,640,l),
(391,640,ls),
(462,640,o),
(496,577,o),
(496,490,cs),
(496,200,ls),
(496,96,o),
(435,33,o),
(347,33,cs),
(265,33,o),
(200,79,o),
(200,194,cs),
(200,670,l),
(95,670,l),
(95,216,ls),
(95,48,o),
(194,-18,o),
(330,-18,cs)
);
}
);
width = 641;
},
{
anchors = (
{
name = bottom;
pos = (248,0);
},
{
name = ogonek;
pos = (507,10);
},
{
name = top;
pos = (485,670);
},
{
name = topright;
pos = (771,670);
}
);
hints = (
{
name = _corner.serif.uc;
options = 1;
origin = (0,23);
scale = (-1,1);
type = Corner;
},
{
name = _corner.serif.uc;
origin = (0,22);
type = Corner;
}
);
layerId = m002;
shapes = (
{
closed = 1;
nodes = (
(367,-18,o),
(478,60,o),
(524,198,cs),
(621,490,ls),
(650,577,o),
(705,640,o),
(776,640,cs),
(786,640,l),
(796,670,l),
(531,670,l),
(521,640,l),
(531,640,ls),
(602,640,o),
(615,577,o),
(586,490,cs),
(489,200,ls),
(455,96,o),
(373,33,o),
(285,33,cs),
(203,33,o),
(153,79,o),
(191,194,cs),
(350,670,l),
(245,670,l),
(94,216,ls),
(38,48,o),
(115,-18,o),
(251,-18,cs)
);
}
);
width = 641;
},
{
anchors = (
{
name = bottom;
pos = (321,0);
},
{
name = ogonek;
pos = (577,10);
},
{
name = top;
pos = (335,670);
},
{
name = topright;
pos = (621,670);
}
);
hints = (
{
name = _corner.serif.uc;
options = 1;
origin = (0,23);
scale = (-1,1);
type = Corner;
},
{
name = _corner.serif.uc;
origin = (0,22);
type = Corner;
}
);
layerId = m003;
shapes = (
{
closed = 1;
nodes = (
(525,-18,o),
(584,60,o),
(538,198,cs),
(441,490,ls),
(412,577,o),
(425,640,o),
(496,640,cs),
(506,640,l),
(496,670,l),
(231,670,l),
(241,640,l),
(251,640,ls),
(322,640,o),
(377,577,o),
(406,490,cs),
(503,200,ls),
(537,96,o),
(497,33,o),
(409,33,cs),
(327,33,o),
(247,79,o),
(209,194,cs),
(50,670,l),
(-55,670,l),
(96,216,ls),
(152,48,o),
(273,-18,o),
(409,-18,cs)
);
}
);
width = 641;
}
);
unicode = 85;
userData = {
com.typemytype.robofont.layerData = {
background = {
anchors = (
);
components = (
);
contours = (
);
lib = {
};
name = H;
unicodes = (
);
width = 641;
};
};
com.typemytype.robofont.mark = (
0.9366,
0.9212,
0.4821,
1
);
};
},
{
glyphname = V;
kernLeft = T;
kernRight = T;
lastChange = "2025-02-16 21:10:40 +0000";
layers = (
{
layerId = "484F8FD9-52EC-47CF-91D8-DA5450121283";
shapes = (
{
closed = 1;
nodes = (
(372,120,l),
(466,444,ls),
(486,506,o),
(506,556,o),
(528,588,cs),
(552,623,o),
(584,640,o),
(615,640,cs),
(625,640,l),
(625,670,l),
(360,670,l),
(360,640,l),
(370,640,ls),
(429,640,o),
(450,598,o),
(450,549,cs),
(450,518,o),
(442,482,o),
(432,450,cs),
(338,120,ls),
(342,120,l),
(185,564,ls),
(164,620,o),
(175,640,o),
(223,640,cs),
(260,640,l),
(260,670,l),
(-35,670,l),
(-35,640,l),
(-5,640,ls),
(41,640,o),
(64,617,o),
(82,569,cs),
(241,119,l),
(282,0,ls),
(338,0,l)
);
},
{
closed = 1;
nodes = (
(359,106,l),
(359,132,l),
(320,132,l),
(320,106,l)
);
}
);
width = 620;
},
{
layerId = m002;
shapes = (
{
closed = 1;
nodes = (
(339,120,l),
(541,444,ls),
(581,506,o),
(618,556,o),
(651,588,cs),
(686,623,o),
(724,640,o),
(755,640,cs),
(765,640,l),
(775,670,l),
(510,670,l),
(500,640,l),
(510,640,ls),
(569,640,o),
(576,598,o),
(560,549,cs),
(549,518,o),
(529,482,o),
(509,450,cs),
(305,120,ls),
(309,120,l),
(300,564,ls),
(297,620,o),
(315,640,o),
(363,640,cs),
(400,640,l),
(410,670,l),
(115,670,l),
(105,640,l),
(135,640,ls),
(181,640,o),
(196,617,o),
(198,569,cs),
(207,119,l),
(209,0,ls),
(265,0,l)
);
},
{
closed = 1;
nodes = (
(321,106,l),
(330,132,l),
(291,132,l),
(282,106,l)
);
}
);
width = 620;
},
{
layerId = m003;
shapes = (
{
closed = 1;
nodes = (
(405,120,l),
(391,444,ls),
(391,506,o),
(394,556,o),
(405,588,cs),
(418,623,o),
(444,640,o),
(475,640,cs),
(485,640,l),
(475,670,l),
(210,670,l),
(220,640,l),
(230,640,ls),
(289,640,o),
(324,598,o),
(340,549,cs),
(351,518,o),
(355,482,o),
(355,450,cs),
(371,120,ls),
(375,120,l),
(70,564,ls),
(31,620,o),
(35,640,o),
(83,640,cs),
(120,640,l),
(110,670,l),
(-185,670,l),
(-175,640,l),
(-145,640,ls),
(-99,640,o),
(-68,617,o),
(-34,569,cs),
(275,119,l),
(355,0,ls),
(411,0,l)
);
},
{
closed = 1;
nodes = (
(397,106,l),
(388,132,l),
(349,132,l),
(358,106,l)
);
}
);
width = 620;
}
);
unicode = 86;
userData = {
com.typemytype.robofont.layerData = {
background = {
anchors = (
);
components = (
);
contours = (
);
lib = {
};
name = V;
unicodes = (
);
width = 620;
};
};
com.typemytype.robofont.mark = (
0.9366,
0.9212,
0.4821,
1
);
};
},
{
glyphname = W;
kernLeft = T;
kernRight = T;
lastChange = "2025-02-16 21:10:42 +0000";
layers = (
{
layerId = "484F8FD9-52EC-47CF-91D8-DA5450121283";
shapes = (
{
closed = 1;
nodes = (
(309,116,ls),
(331,116,l),
(195,564,ls),
(182,606,o),
(185,640,o),
(233,640,cs),
(270,640,l),
(270,670,l),
(-25,670,l),
(-25,640,l),
(5,640,ls),
(51,640,o),
(76,619,o),
(92,569,cs),
(229,116,l),
(262,0,ls),
(313,0,l),
(342,116,l),
(451,529,ls),
(423,504,l),
(548,116,l),
(583,0,l),
(634,0,l),
(665,116,l),
(756,444,ls),
(775,506,o),
(796,556,o),
(818,588,cs),
(842,623,o),
(874,640,o),
(905,640,cs),
(915,640,l),
(915,670,l),
(650,670,l),
(650,640,l),
(660,640,ls),
(719,640,o),
(740,598,o),
(740,549,cs),
(740,518,o),
(732,482,o),
(722,450,cs),
(630,116,ls),
(650,116,l),
(516,532,l),
(474,670,l),
(452,670,l),
(417,529,l)
);
},
{
closed = 1;
nodes = (
(339,136,l),
(339,162,l),
(300,162,l),
(300,136,l)
);
},
{
closed = 1;
nodes = (
(451,460,l),
(451,478,l),
(420,478,l),
(420,460,l)
);
},
{
closed = 1;
nodes = (
(659,130,l),
(659,156,l),
(620,156,l),
(620,130,l)
);
}
);
width = 920;
},
{
layerId = m002;
shapes = (
{
closed = 1;
nodes = (
(274,116,ls),
(296,116,l),
(310,564,ls),
(311,606,o),
(325,640,o),
(373,640,cs),
(410,640,l),
(420,670,l),
(125,670,l),
(115,640,l),
(145,640,ls),
(191,640,o),
(209,619,o),
(208,569,cs),
(194,116,l),
(189,0,ls),
(240,0,l),
(307,116,l),
(554,529,ls),
(518,504,l),
(513,116,l),
(510,0,l),
(561,0,l),
(630,116,l),
(831,444,ls),
(870,506,o),
(908,556,o),
(941,588,cs),
(976,623,o),
(1014,640,o),
(1045,640,cs),
(1055,640,l),
(1065,670,l),
(800,670,l),
(790,640,l),
(800,640,ls),
(859,640,o),
(866,598,o),
(850,549,cs),
(839,518,o),
(819,482,o),
(799,450,cs),
(595,116,ls),
(615,116,l),
(620,532,l),
(624,670,l),
(602,670,l),
(520,529,l)
);
},
{
closed = 1;
nodes = (
(311,136,l),
(320,162,l),
(281,162,l),
(272,136,l)
);
},
{
closed = 1;
nodes = (
(531,460,l),
(537,478,l),
(506,478,l),
(500,460,l)
);
},
{
closed = 1;
nodes = (
(629,130,l),
(638,156,l),
(599,156,l),
(590,130,l)
);
}
);
width = 920;
},
{
layerId = m003;
shapes = (
{
closed = 1;
nodes = (
(344,116,ls),
(366,116,l),
(80,564,ls),
(53,606,o),
(45,640,o),
(93,640,cs),
(130,640,l),
(120,670,l),
(-175,670,l),
(-165,640,l),
(-135,640,ls),
(-89,640,o),
(-57,619,o),
(-24,569,cs),
(264,116,l),
(335,0,ls),
(386,0,l),
(377,116,l),
(348,529,ls),
(328,504,l),
(583,116,l),
(656,0,l),
(707,0,l),
(700,116,l),
(681,444,ls),
(680,506,o),
(684,556,o),
(695,588,cs),
(708,623,o),
(734,640,o),
(765,640,cs),
(775,640,l),
(765,670,l),
(500,670,l),
(510,640,l),
(520,640,ls),
(579,640,o),
(614,598,o),
(630,549,cs),
(641,518,o),
(645,482,o),
(645,450,cs),
(665,116,ls),
(685,116,l),
(412,532,l),
(324,670,l),
(302,670,l),
(314,529,l)
);
},
{
closed = 1;
nodes = (
(367,136,l),
(358,162,l),
(319,162,l),
(328,136,l)
);
},
{
closed = 1;
nodes = (
(371,460,l),
(365,478,l),
(334,478,l),
(340,460,l)
);
},
{
closed = 1;
nodes = (
(689,130,l),
(680,156,l),
(641,156,l),
(650,130,l)
);
}
);
width = 920;
}
);
unicode = 87;
userData = {
com.typemytype.robofont.layerData = {
background = {
anchors = (
);
components = (
);
contours = (
);
lib = {
};
name = W;
unicodes = (
);
width = 920;
};
};
com.typemytype.robofont.mark = (
0.9366,
0.9212,
0.4821,
1
);
};
},
{
glyphname = X;
lastChange = "2025-02-16 21:10:44 +0000";
layers = (
{
layerId = "484F8FD9-52EC-47CF-91D8-DA5450121283";
shapes = (
{
closed = 1;
nodes = (
(87,68,o),
(42,30,o),
(-20,30,cs),
(-30,30,l),
(-30,0,l),
(240,0,l),
(240,30,l),
(230,30,ls),
(155,30,o),
(136,86,o),
(188,161,cs),
(430,515,ls),
(489,602,o),
(543,640,o),
(605,640,cs),
(615,640,l),
(615,670,l),
(345,670,l),
(345,640,l),
(355,640,ls),
(394,640,o),
(412,616,o),
(412,580,cs),
(412,553,o),
(402,527,o),
(381,496,cs),
(150,159,ls)
);
},
{
closed = 1;
nodes = (
(438,67,o),
(423,30,o),
(365,30,cs),
(335,30,l),
(335,0,l),
(640,0,l),
(640,30,l),
(620,30,ls),
(576,30,o),
(557,59,o),
(528,104,cs),
(225,579,ls),
(204,614,o),
(207,640,o),
(244,640,cs),
(281,640,l),
(281,670,l),
(1,670,l),
(1,640,l),
(25,640,ls),
(71,640,o),
(89,614,o),
(118,569,cs),
(402,122,ls)
);
}
);
width = 610;
},
{
layerId = m002;
shapes = (
{
closed = 1;
nodes = (
(36,68,o),
(-21,30,o),
(-83,30,cs),
(-93,30,l),
(-103,0,l),
(167,0,l),
(177,30,l),
(167,30,ls),
(92,30,o),
(91,86,o),
(168,161,cs),
(528,515,ls),
(616,602,o),
(683,640,o),
(745,640,cs),
(755,640,l),
(765,670,l),
(495,670,l),
(485,640,l),
(495,640,ls),
(534,640,o),
(544,616,o),
(532,580,cs),
(523,553,o),
(504,527,o),
(473,496,cs),
(130,159,ls)
);
},
{
closed = 1;
nodes = (
(387,67,o),
(360,30,o),
(302,30,cs),
(272,30,l),
(262,0,l),
(567,0,l),
(577,30,l),
(557,30,ls),
(513,30,o),
(503,59,o),
(489,104,cs),
(345,579,ls),
(335,614,o),
(347,640,o),
(384,640,cs),
(421,640,l),
(431,670,l),
(151,670,l),
(141,640,l),
(165,640,ls),
(211,640,o),
(220,614,o),
(234,569,cs),
(369,122,ls)
);
}
);
width = 610;
},
{
layerId = m003;
shapes = (
{
closed = 1;
nodes = (
(138,68,o),
(105,30,o),
(43,30,cs),
(33,30,l),
(43,0,l),
(313,0,l),
(303,30,l),
(293,30,ls),
(218,30,o),
(181,86,o),
(208,161,cs),
(332,515,ls),
(362,602,o),
(403,640,o),
(465,640,cs),
(475,640,l),
(465,670,l),
(195,670,l),
(205,640,l),
(215,640,ls),
(254,640,o),
(280,616,o),
(292,580,cs),
(301,553,o),
(300,527,o),
(289,496,cs),
(170,159,ls)
);
},
{
closed = 1;
nodes = (
(489,67,o),
(486,30,o),
(428,30,cs),
(398,30,l),
(408,0,l),
(713,0,l),
(703,30,l),
(683,30,ls),
(639,30,o),
(611,59,o),
(567,104,cs),
(105,579,ls),
(73,614,o),
(67,640,o),
(104,640,cs),
(141,640,l),
(131,670,l),
(-149,670,l),
(-139,640,l),
(-115,640,ls),
(-69,640,o),
(-42,614,o),
(2,569,cs),
(435,122,ls)
);
}
);
width = 610;
}
);
unicode = 88;
userData = {
com.typemytype.robofont.layerData = {
background = {
anchors = (
);
components = (
);
contours = (
);
lib = {
};
name = X;
unicodes = (
);
width = 610;
};
};
com.typemytype.robofont.mark = (
0.9366,
0.9212,
0.4821,
1
);
};
},
{
glyphname = Y;
kernLeft = T;
kernRight = T;
lastChange = "2025-02-16 21:10:45 +0000";
layers = (
{
hints = (
{
name = _corner.serif.uc;
origin = (1,3);
type = Corner;
},
{
name = _corner.serif.uc;
options = 1;
origin = (1,0);
scale = (-1,1);
type = Corner;
}
);
layerId = "484F8FD9-52EC-47CF-91D8-DA5450121283";
shapes = (
{
closed = 1;
nodes = (
(314,276,l),
(463,511,ls),
(523,606,o),
(555,640,o),
(619,640,cs),
(629,640,l),
(629,670,l),
(364,670,l),
(364,640,l),
(374,640,ls),
(439,640,o),
(464,570,o),
(428,513,cs),
(318,340,ls),
(345,340,l),
(196,571,ls),
(167,615,o),
(182,640,o),
(219,640,cs),
(256,640,l),
(256,670,l),
(-39,670,l),
(-39,640,l),
(-16,640,ls),
(21,640,o),
(42,623,o),
(68,585,cs),
(275,276,ls)
);
},
{
closed = 1;
nodes = (
(355,0,l),
(355,353,ls),
(250,353,l),
(250,0,l)
);
}
);
width = 605;
},
{
hints = (
{
name = _corner.serif.uc;
origin = (1,3);
type = Corner;
},
{
name = _corner.serif.uc;
options = 1;
origin = (1,0);
scale = (-1,1);
type = Corner;
}
);
layerId = m002;
shapes = (
{
closed = 1;
nodes = (
(333,276,l),
(560,511,ls),
(652,606,o),
(695,640,o),
(759,640,cs),
(769,640,l),
(779,670,l),
(514,670,l),
(504,640,l),
(514,640,ls),
(579,640,o),
(581,570,o),
(526,513,cs),
(358,340,ls),
(385,340,l),
(313,571,ls),
(299,615,o),
(322,640,o),
(359,640,cs),
(396,640,l),
(406,670,l),
(111,670,l),
(101,640,l),
(124,640,ls),
(161,640,o),
(176,623,o),
(190,585,cs),
(294,276,ls)
);
},
{
closed = 1;
nodes = (
(282,0,l),
(399,353,ls),
(294,353,l),
(177,0,l)
);
}
);
width = 605;
},
{
hints = (
{
name = _corner.serif.uc;
origin = (1,3);
type = Corner;
},
{
name = _corner.serif.uc;
options = 1;
origin = (1,0);
scale = (-1,1);
type = Corner;
}
);
layerId = m003;
shapes = (
{
closed = 1;
nodes = (
(295,276,l),
(366,511,ls),
(394,606,o),
(415,640,o),
(479,640,cs),
(489,640,l),
(479,670,l),
(214,670,l),
(224,640,l),
(234,640,ls),
(299,640,o),
(347,570,o),
(330,513,cs),
(278,340,ls),
(305,340,l),
(79,571,ls),
(35,615,o),
(42,640,o),
(79,640,cs),
(116,640,l),
(106,670,l),
(-189,670,l),
(-179,640,l),
(-156,640,ls),
(-119,640,o),
(-92,623,o),
(-54,585,cs),
(256,276,ls)
);
},
{
closed = 1;
nodes = (
(428,0,l),
(311,353,ls),
(206,353,l),
(323,0,l)
);
}
);
width = 605;
}
);
unicode = 89;
userData = {
com.typemytype.robofont.layerData = {
background = {
anchors = (
);
components = (
);
contours = (
);
lib = {
};
name = I;
unicodes = (
);
width = 605;
};
};
com.typemytype.robofont.mark = (
0.9366,
0.9212,
0.4821,
1
);
};
},
{
glyphname = Z;
lastChange = "2025-02-16 21:10:46 +0000";
layers = (
{
layerId = "484F8FD9-52EC-47CF-91D8-DA5450121283";
shapes = (
{
closed = 1;
nodes = (
(75,430,l),
(105,571,o),
(148,640,o),
(280,640,cs),
(393,640,l),
(387,650,l),
(25,20,l),
(25,0,l),
(493,0,l),
(493,245,l),
(468,245,l),
(434,97,o),
(384,30,o),
(275,30,cs),
(138,30,l),
(138,20,l),
(500,650,l),
(500,670,l),
(50,670,l),
(50,430,l)
);
}
);
width = 541;
},
{
layerId = m002;
shapes = (
{
closed = 1;
nodes = (
(145,430,l),
(222,571,o),
(288,640,o),
(420,640,cs),
(533,640,l),
(530,650,l),
(-42,20,l),
(-48,0,l),
(420,0,l),
(501,245,l),
(476,245,l),
(393,97,o),
(321,30,o),
(212,30,cs),
(75,30,l),
(71,20,l),
(643,650,l),
(650,670,l),
(200,670,l),
(120,430,l)
);
}
);
width = 541;
},
{
layerId = m003;
shapes = (
{
closed = 1;
nodes = (
(5,430,l),
(-12,571,o),
(8,640,o),
(140,640,cs),
(253,640,l),
(244,650,l),
(92,20,l),
(98,0,l),
(566,0,l),
(485,245,l),
(460,245,l),
(475,97,o),
(447,30,o),
(338,30,cs),
(201,30,l),
(205,20,l),
(357,650,l),
(350,670,l),
(-100,670,l),
(-20,430,l)
);
}
);
width = 541;
}
);
unicode = 90;
userData = {
com.typemytype.robofont.layerData = {
background = {
anchors = (
);
components = (
);
contours = (
{
points = (
{
segmentType = line;
smooth = 0;
x = 50;
y = 430;
},
{
segmentType = line;
smooth = 0;
x = 50;
y = 670;
},
{
segmentType = line;
smooth = 0;
x = 500;
y = 670;
},
{
segmentType = line;
smooth = 0;
x = 500;
y = 650;
},
{
segmentType = line;
smooth = 0;
x = 138;
y = 20;
},
{
segmentType = line;
smooth = 0;
x = 138;
y = 30;
},
{
segmentType = line;
smooth = 1;
x = 275;
y = 30;
},
{
smooth = 0;
x = 384;
y = 30;
},
{
smooth = 0;
x = 434;
y = 97;
},
{
segmentType = curve;
smooth = 0;
x = 468;
y = 245;
},
{
segmentType = line;
smooth = 0;
x = 493;
y = 245;
},
{
segmentType = line;
smooth = 0;
x = 493;
y = 0;
},
{
segmentType = line;
smooth = 0;
x = 25;
y = 0;
},
{
segmentType = line;
smooth = 0;
x = 25;
y = 20;
},
{
segmentType = line;
smooth = 0;
x = 387;
y = 650;
},
{
segmentType = line;
smooth = 0;
x = 393;
y = 640;
},
{
segmentType = line;
smooth = 1;
x = 280;
y = 640;
},
{
smooth = 0;
x = 148;
y = 640;
},
{
smooth = 0;
x = 105;
y = 571;
},
{
segmentType = curve;
smooth = 0;
x = 75;
y = 430;
}
);
}
);
lib = {
};
name = Z;
unicodes = (
);
width = 541;
};
};
com.typemytype.robofont.mark = (
0.9366,
0.9212,
0.4821,
1
);
};
},
{
color = 3;
export = 0;
glyphname = C_h.ss01;
kernLeft = C;
kernRight = c_h;
lastChange = "2025-02-16 21:10:52 +0000";
layers = (
{
layerId = "484F8FD9-52EC-47CF-91D8-DA5450121283";
shapes = (
{
closed = 1;
nodes = (
(471,686,o),
(329,686,cs),
(180,686,o),
(50,571,o),
(50,335,cs),
(50,99,o),
(177,-16,o),
(366,-16,cs),
(523,-16,o),
(673,63,o),
(673,257,c),
(651,257,l),
(651,105,o),
(522,26,o),
(385,26,cs),
(213,26,o),
(165,134,o),
(165,335,cs),
(165,545,o),
(209,655,o),
(328,655,cs),
(370,655,o),
(399,638,o),
(399,611,cs),
(399,584,o),
(383,580,o),
(383,545,cs),
(383,506,o),
(410,480,o),
(452,480,cs),
(493,480,o),
(525,511,o),
(525,558,cs),
(525,620,o)
);
},
{
pos = (566,0);
ref = h.ss01;
}
);
width = 1089;
},
{
layerId = m002;
shapes = (
{
closed = 1;
nodes = (
(627,688,o),
(485,688,cs),
(336,688,o),
(167,572,o),
(88,335,cs),
(9,98,o),
(98,-18,o),
(287,-18,cs),
(444,-18,o),
(620,62,o),
(685,257,c),
(663,257,l),
(612,104,o),
(457,24,o),
(320,24,cs),
(148,24,o),
(136,132,o),
(203,335,cs),
(274,546,o),
(355,657,o),
(474,657,cs),
(516,657,o),
(539,640,o),
(530,613,cs),
(521,586,o),
(504,582,o),
(492,547,cs),
(479,508,o),
(497,482,o),
(539,482,cs),
(580,482,o),
(623,513,o),
(638,560,cs),
(659,622,o)
);
},
{
pos = (564,0);
ref = h.ss01;
}
);
width = 1089;
},
{
layerId = m003;
shapes = (
{
closed = 1;
nodes = (
(316,686,o),
(174,686,cs),
(25,686,o),
(-67,571,o),
(12,335,cs),
(90,99,o),
(256,-16,o),
(445,-16,cs),
(602,-16,o),
(725,63,o),
(661,257,c),
(639,257,l),
(689,105,o),
(587,26,o),
(450,26,cs),
(278,26,o),
(194,134,o),
(127,335,cs),
(57,545,o),
(64,655,o),
(183,655,cs),
(225,655,o),
(260,638,o),
(269,611,cs),
(278,584,o),
(263,580,o),
(275,545,cs),
(288,506,o),
(323,480,o),
(365,480,cs),
(406,480,o),
(428,511,o),
(412,558,cs),
(392,620,o)
);
},
{
pos = (566,0);
ref = h.ss01;
}
);
width = 1089;
}
);
userData = {
com.typemytype.robofont.layerData = {
background = {
anchors = (
);
components = (
);
contours = (
{
points = (
{
smooth = 0;
x = 525;
y = 622;
},
{
smooth = 0;
x = 471;
y = 688;
},
{
segmentType = curve;
smooth = 1;
x = 329;
y = 688;
},
{
smooth = 0;
x = 180;
y = 688;
},
{
smooth = 0;
x = 50;
y = 572;
},
{
segmentType = curve;
smooth = 1;
x = 50;
y = 335;
},
{
smooth = 0;
x = 50;
y = 98;
},
{
smooth = 0;
x = 180;
y = -18;
},
{
segmentType = curve;
smooth = 1;
x = 340;
y = -18;
},
{
smooth = 0;
x = 460;
y = -18;
},
{
smooth = 0;
x = 537;
y = 40;
},
{
segmentType = curve;
smooth = 0;
x = 606;
y = 165;
},
{
segmentType = line;
smooth = 0;
x = 578;
y = 180;
},
{
smooth = 0;
x = 515;
y = 74;
},
{
smooth = 0;
x = 452;
y = 22;
},
{
segmentType = curve;
smooth = 1;
x = 369;
y = 22;
},
{
smooth = 0;
x = 219;
y = 22;
},
{
smooth = 0;
x = 165;
y = 131;
},
{
segmentType = curve;
smooth = 1;
x = 165;
y = 335;
},
{
smooth = 0;
x = 165;
y = 546;
},
{
smooth = 0;
x = 209;
y = 657;
},
{
segmentType = curve;
smooth = 1;
x = 328;
y = 657;
},
{
smooth = 0;
x = 370;
y = 657;
},
{
smooth = 0;
x = 399;
y = 640;
},
{
segmentType = curve;
smooth = 1;
x = 399;
y = 613;
},
{
smooth = 0;
x = 399;
y = 586;
},
{
smooth = 0;
x = 383;
y = 582;
},
{
segmentType = curve;
smooth = 1;
x = 383;
y = 547;
},
{
smooth = 0;
x = 383;
y = 508;
},
{
smooth = 0;
x = 410;
y = 482;
},
{
segmentType = curve;
smooth = 1;
x = 452;
y = 482;
},
{
smooth = 0;
x = 493;
y = 482;
},
{
smooth = 0;
x = 525;
y = 513;
},
{
segmentType = curve;
smooth = 1;
x = 525;
y = 560;
}
);
}
);
lib = {
};
name = C_h;
unicodes = (
);
width = 1089;
};
};
com.typemytype.robofont.mark = (
0.3692,
0.5456,
0.891,
1
);
};
},
{
glyphname = a;
kernLeft = a;
kernRight = a;
lastChange = "2025-02-16 21:10:53 +0000";
layers = (
{
anchors = (
{
name = bottom;
pos = (258,0);
},
{
name = ogonek;
pos = (510,0);
},
{
name = top;
pos = (258,440);
}
);
background = {
shapes = (
{
closed = 1;
nodes = (
(510,0,l),
(510,30,l),
(468,30,ls),
(437,30,o),
(425,44,o),
(425,68,cs),
(425,331,ls),
(425,405,o),
(375,454,o),
(258,454,cs),
(146,454,o),
(83,407,o),
(83,347,cs),
(83,311,o),
(108,286,o),
(145,286,cs),
(179,286,o),
(202,306,o),
(202,338,cs),
(202,368,o),
(182,376,o),
(182,395,cs),
(182,414,o),
(211,421,o),
(249,421,cs),
(307,421,o),
(325,391,o),
(325,331,cs),
(325,182,l),
(333,168,l),
(333,49,l),
(333,0,l)
);
},
{
closed = 1;
nodes = (
(296,-16,o),
(355,29,o),
(355,113,cs),
(355,197,o),
(296,248,o),
(206,248,cs),
(113,248,o),
(49,194,o),
(49,113,cs),
(49,35,o),
(113,-16,o),
(206,-16,cs)
);
},
{
closed = 1;
nodes = (
(183,24,o),
(147,59,o),
(147,113,cs),
(147,170,o),
(183,208,o),
(239,208,cs),
(294,208,o),
(331,170,o),
(331,113,cs),
(331,59,o),
(294,24,o),
(237,24,cs)
);
}
);
};
hints = (
{
name = _corner.serif.lc;
options = 1;
origin = (0,0);
scale = (1,-1);
type = Corner;
}
);
layerId = "484F8FD9-52EC-47CF-91D8-DA5450121283";
shapes = (
{
closed = 1;
nodes = (
(425,0,l),
(425,331,ls),
(425,405,o),
(375,454,o),
(258,454,cs),
(146,454,o),
(83,407,o),
(83,347,cs),
(83,311,o),
(108,286,o),
(145,286,cs),
(179,286,o),
(202,306,o),
(202,338,cs),
(202,368,o),
(182,376,o),
(182,395,cs),
(182,414,o),
(211,421,o),
(249,421,cs),
(307,421,o),
(325,391,o),
(325,331,cs),
(325,182,l),
(333,168,l),
(333,49,l),
(333,0,l)
);
},
{
closed = 1;
nodes = (
(296,-16,o),
(355,29,o),
(355,113,cs),
(355,197,o),
(296,248,o),
(206,248,cs),
(113,248,o),
(49,194,o),
(49,113,cs),
(49,35,o),
(113,-16,o),
(206,-16,cs)
);
},
{
closed = 1;
nodes = (
(183,24,o),
(147,59,o),
(147,113,cs),
(147,170,o),
(183,208,o),
(239,208,cs),
(294,208,o),
(331,170,o),
(331,113,cs),
(331,59,o),
(294,24,o),
(237,24,cs)
);
}
);
width = 515;
},
{
anchors = (
{
name = bottom;
pos = (185,0);
},
{
name = ogonek;
pos = (437,0);
},
{
name = top;
pos = (331,440);
}
);
background = {
shapes = (
{
closed = 1;
nodes = (
(510,0,l),
(510,30,l),
(468,30,ls),
(437,30,o),
(425,44,o),
(425,68,cs),
(425,331,ls),
(425,405,o),
(375,454,o),
(258,454,cs),
(146,454,o),
(83,407,o),
(83,347,cs),
(83,311,o),
(108,286,o),
(145,286,cs),
(179,286,o),
(202,306,o),
(202,338,cs),
(202,368,o),
(182,376,o),
(182,395,cs),
(182,414,o),
(211,421,o),
(249,421,cs),
(307,421,o),
(325,391,o),
(325,331,cs),
(325,182,l),
(333,168,l),
(333,49,l),
(333,0,l)
);
},
{
closed = 1;
nodes = (
(296,-16,o),
(355,29,o),
(355,113,cs),
(355,197,o),
(296,248,o),
(206,248,cs),
(113,248,o),
(49,194,o),
(49,113,cs),
(49,35,o),
(113,-16,o),
(206,-16,cs)
);
},
{
closed = 1;
nodes = (
(183,24,o),
(147,59,o),
(147,113,cs),
(147,170,o),
(183,208,o),
(239,208,cs),
(294,208,o),
(331,170,o),
(331,113,cs),
(331,59,o),
(294,24,o),
(237,24,cs)
);
}
);
};
hints = (
{
name = _corner.serif.lc;
options = 1;
origin = (0,0);
scale = (1,-1);
type = Corner;
}
);
layerId = m002;
shapes = (
{
closed = 1;
nodes = (
(352,0,l),
(462,331,ls),
(487,405,o),
(453,454,o),
(336,454,cs),
(224,454,o),
(145,407,o),
(125,347,cs),
(113,311,o),
(130,286,o),
(167,286,cs),
(201,286,o),
(231,306,o),
(241,338,cs),
(251,368,o),
(234,376,o),
(240,395,cs),
(247,414,o),
(278,421,o),
(316,421,cs),
(374,421,o),
(382,391,o),
(362,331,cs),
(312,182,l),
(316,168,l),
(276,49,l),
(260,0,l)
);
},
{
closed = 1;
nodes = (
(217,-16,o),
(291,29,o),
(319,113,cs),
(347,197,o),
(305,248,o),
(215,248,cs),
(122,248,o),
(40,194,o),
(13,113,cs),
(-13,35,o),
(34,-16,o),
(127,-16,cs)
);
},
{
closed = 1;
nodes = (
(118,24,o),
(93,59,o),
(111,113,cs),
(130,170,o),
(179,208,o),
(235,208,cs),
(290,208,o),
(314,170,o),
(295,113,cs),
(277,59,o),
(229,24,o),
(172,24,cs)
);
}
);
width = 515;
},
{
anchors = (
{
name = bottom;
pos = (331,0);
},
{
name = ogonek;
pos = (583,0);
},
{
name = top;
pos = (185,440);
}
);
background = {
shapes = (
{
closed = 1;
nodes = (
(510,0,l),
(510,30,l),
(468,30,ls),
(437,30,o),
(425,44,o),
(425,68,cs),
(425,331,ls),
(425,405,o),
(375,454,o),
(258,454,cs),
(146,454,o),
(83,407,o),
(83,347,cs),
(83,311,o),
(108,286,o),
(145,286,cs),
(179,286,o),
(202,306,o),
(202,338,cs),
(202,368,o),
(182,376,o),
(182,395,cs),
(182,414,o),
(211,421,o),
(249,421,cs),
(307,421,o),
(325,391,o),
(325,331,cs),
(325,182,l),
(333,168,l),
(333,49,l),
(333,0,l)
);
},
{
closed = 1;
nodes = (
(296,-16,o),
(355,29,o),
(355,113,cs),
(355,197,o),
(296,248,o),
(206,248,cs),
(113,248,o),
(49,194,o),
(49,113,cs),
(49,35,o),
(113,-16,o),
(206,-16,cs)
);
},
{
closed = 1;
nodes = (
(183,24,o),
(147,59,o),
(147,113,cs),
(147,170,o),
(183,208,o),
(239,208,cs),
(294,208,o),
(331,170,o),
(331,113,cs),
(331,59,o),
(294,24,o),
(237,24,cs)
);
}
);
};
hints = (
{
name = _corner.serif.lc;
options = 1;
origin = (0,0);
scale = (1,-1);
type = Corner;
}
);
layerId = m003;
shapes = (
{
closed = 1;
nodes = (
(498,0,l),
(388,331,ls),
(363,405,o),
(297,454,o),
(180,454,cs),
(68,454,o),
(21,407,o),
(41,347,cs),
(53,311,o),
(86,286,o),
(123,286,cs),
(157,286,o),
(173,306,o),
(163,338,cs),
(153,368,o),
(130,376,o),
(124,395,cs),
(117,414,o),
(144,421,o),
(182,421,cs),
(240,421,o),
(268,391,o),
(288,331,cs),
(338,182,l),
(350,168,l),
(390,49,l),
(406,0,l)
);
},
{
closed = 1;
nodes = (
(375,-16,o),
(419,29,o),
(391,113,cs),
(363,197,o),
(287,248,o),
(197,248,cs),
(104,248,o),
(58,194,o),
(85,113,cs),
(111,35,o),
(192,-16,o),
(285,-16,cs)
);
},
{
closed = 1;
nodes = (
(248,24,o),
(201,59,o),
(183,113,cs),
(164,170,o),
(187,208,o),
(243,208,cs),
(298,208,o),
(348,170,o),
(367,113,cs),
(385,59,o),
(359,24,o),
(302,24,cs)
);
}
);
width = 515;
}
);
unicode = 97;
userData = {
com.typemytype.robofont.layerData = {
background = {
anchors = (
);
components = (
);
contours = (
{
points = (
{
segmentType = curve;
smooth = 1;
x = 202;
y = 337;
},
{
smooth = 0;
x = 202;
y = 370;
},
{
smooth = 0;
x = 182;
y = 378;
},
{
segmentType = curve;
smooth = 1;
x = 182;
y = 397;
},
{
smooth = 0;
x = 182;
y = 416.44;
},
{
smooth = 0;
x = 211;
y = 424;
},
{
segmentType = curve;
smooth = 1;
x = 249;
y = 424;
},
{
smooth = 0;
x = 307;
y = 424;
},
{
smooth = 0;
x = 325;
y = 394;
},
{
segmentType = curve;
smooth = 1;
x = 325;
y = 335;
},
{
segmentType = line;
smooth = 0;
x = 325;
y = 182;
},
{
segmentType = line;
smooth = 0;
x = 333;
y = 168;
},
{
segmentType = line;
smooth = 0;
x = 333;
y = 0;
},
{
segmentType = line;
smooth = 0;
x = 515;
y = 0;
},
{
segmentType = line;
smooth = 0;
x = 515;
y = 30;
},
{
segmentType = line;
smooth = 1;
x = 468;
y = 30;
},
{
smooth = 0;
x = 437;
y = 30;
},
{
smooth = 0;
x = 425;
y = 44;
},
{
segmentType = curve;
smooth = 1;
x = 425;
y = 68;
},
{
segmentType = line;
smooth = 1;
x = 425;
y = 335;
},
{
smooth = 0;
x = 425;
y = 409;
},
{
smooth = 0;
x = 375;
y = 458;
},
{
segmentType = curve;
smooth = 1;
x = 258;
y = 458;
},
{
smooth = 0;
x = 146;
y = 458;
},
{
smooth = 0;
x = 83;
y = 410;
},
{
segmentType = curve;
smooth = 1;
x = 83;
y = 349;
},
{
smooth = 0;
x = 83;
y = 312;
},
{
smooth = 0;
x = 108;
y = 287;
},
{
segmentType = curve;
smooth = 1;
x = 145;
y = 287;
},
{
smooth = 0;
x = 179;
y = 287;
},
{
smooth = 0;
x = 202;
y = 307;
}
);
},
{
points = (
{
segmentType = curve;
smooth = 1;
x = 239;
y = 210;
},
{
smooth = 0;
x = 294;
y = 210;
},
{
smooth = 0;
x = 331;
y = 171;
},
{
segmentType = curve;
smooth = 1;
x = 331;
y = 113;
},
{
smooth = 0;
x = 331;
y = 58;
},
{
smooth = 0;
x = 294;
y = 22;
},
{
segmentType = curve;
smooth = 1;
x = 237;
y = 22;
},
{
smooth = 0;
x = 182;
y = 22;
},
{
smooth = 0;
x = 145;
y = 58;
},
{
segmentType = curve;
smooth = 1;
x = 145;
y = 113;
},
{
smooth = 0;
x = 145;
y = 171;
},
{
smooth = 0;
x = 182;
y = 210;
}
);
},
{
points = (
{
segmentType = curve;
smooth = 1;
x = 206;
y = 250;
},
{
smooth = 0;
x = 113;
y = 250;
},
{
smooth = 0;
x = 49;
y = 195;
},
{
segmentType = curve;
smooth = 1;
x = 49;
y = 113;
},
{
smooth = 0;
x = 49;
y = 34;
},
{
smooth = 0;
x = 113;
y = -18;
},
{
segmentType = curve;
smooth = 1;
x = 206;
y = -18;
},
{
smooth = 0;
x = 296;
y = -18;
},
{
smooth = 0;
x = 355;
y = 34;
},
{
segmentType = curve;
smooth = 1;
x = 355;
y = 113;
},
{
smooth = 0;
x = 355;
y = 195;
},
{
smooth = 0;
x = 296;
y = 250;
}
);
}
);
lib = {
};
name = a;
unicodes = (
);
width = 515;
};
};
com.typemytype.robofont.mark = (
0.9366,
0.9212,
0.4821,
1
);
};
},
{
glyphname = a.alt001;
lastChange = "2025-02-16 21:10:55 +0000";
layers = (
{
layerId = "484F8FD9-52EC-47CF-91D8-DA5450121283";
shapes = (
{
closed = 1;
nodes = (
(499,-16,o),
(529,18,o),
(551,76,c),
(521,89,l),
(505,51,o),
(485,24,o),
(453,24,cs),
(424,24,o),
(410,44,o),
(410,85,cs),
(410,331,ls),
(410,405,o),
(360,454,o),
(243,454,cs),
(131,454,o),
(68,407,o),
(68,347,cs),
(68,311,o),
(93,286,o),
(130,286,cs),
(164,286,o),
(187,306,o),
(187,338,cs),
(187,368,o),
(167,376,o),
(167,395,cs),
(167,414,o),
(196,421,o),
(234,421,cs),
(292,421,o),
(310,391,o),
(310,331,cs),
(310,182,l),
(318,168,l),
(318,100,ls),
(318,24,o),
(358,-16,o),
(432,-16,cs)
);
},
{
closed = 1;
nodes = (
(168,24,o),
(132,59,o),
(132,113,cs),
(132,170,o),
(168,208,o),
(224,208,cs),
(279,208,o),
(316,170,o),
(316,113,cs),
(316,59,o),
(279,24,o),
(222,24,cs)
);
},
{
closed = 1;
nodes = (
(281,-16,o),
(340,29,o),
(340,113,cs),
(340,197,o),
(281,248,o),
(191,248,cs),
(98,248,o),
(34,194,o),
(34,113,cs),
(34,35,o),
(98,-16,o),
(191,-16,cs)
);
}
);
width = 520;
},
{
layerId = m002;
shapes = (
{
closed = 1;
nodes = (
(420,-16,o),
(462,18,o),
(503,76,c),
(477,89,l),
(449,51,o),
(420,24,o),
(388,24,cs),
(359,24,o),
(351,44,o),
(365,85,cs),
(447,331,ls),
(472,405,o),
(438,454,o),
(321,454,cs),
(209,454,o),
(130,407,o),
(110,347,cs),
(98,311,o),
(115,286,o),
(152,286,cs),
(186,286,o),
(216,306,o),
(226,338,cs),
(236,368,o),
(219,376,o),
(225,395,cs),
(232,414,o),
(263,421,o),
(301,421,cs),
(359,421,o),
(367,391,o),
(347,331,cs),
(297,182,l),
(301,168,l),
(278,100,ls),
(253,24,o),
(279,-16,o),
(353,-16,cs)
);
},
{
closed = 1;
nodes = (
(103,24,o),
(78,59,o),
(96,113,cs),
(115,170,o),
(164,208,o),
(220,208,cs),
(275,208,o),
(299,170,o),
(280,113,cs),
(262,59,o),
(214,24,o),
(157,24,cs)
);
},
{
closed = 1;
nodes = (
(202,-16,o),
(276,29,o),
(304,113,cs),
(332,197,o),
(290,248,o),
(200,248,cs),
(107,248,o),
(25,194,o),
(-2,113,cs),
(-28,35,o),
(19,-16,o),
(112,-16,cs)
);
}
);
width = 520;
},
{
layerId = m003;
shapes = (
{
closed = 1;
nodes = (
(578,-16,o),
(596,18,o),
(599,76,c),
(565,89,l),
(561,51,o),
(550,24,o),
(518,24,cs),
(489,24,o),
(469,44,o),
(455,85,cs),
(373,331,ls),
(348,405,o),
(282,454,o),
(165,454,cs),
(53,454,o),
(6,407,o),
(26,347,cs),
(38,311,o),
(71,286,o),
(108,286,cs),
(142,286,o),
(158,306,o),
(148,338,cs),
(138,368,o),
(115,376,o),
(109,395,cs),
(102,414,o),
(129,421,o),
(167,421,cs),
(225,421,o),
(253,391,o),
(273,331,cs),
(323,182,l),
(335,168,l),
(358,100,ls),
(383,24,o),
(437,-16,o),
(511,-16,cs)
);
},
{
closed = 1;
nodes = (
(233,24,o),
(186,59,o),
(168,113,cs),
(149,170,o),
(172,208,o),
(228,208,cs),
(283,208,o),
(333,170,o),
(352,113,cs),
(370,59,o),
(344,24,o),
(287,24,cs)
);
},
{
closed = 1;
nodes = (
(360,-16,o),
(404,29,o),
(376,113,cs),
(348,197,o),
(272,248,o),
(182,248,cs),
(89,248,o),
(43,194,o),
(70,113,cs),
(96,35,o),
(177,-16,o),
(270,-16,cs)
);
}
);
width = 520;
}
);
userData = {
com.typemytype.robofont.layerData = {
background = {
anchors = (
);
components = (
);
contours = (
{
points = (
{
segmentType = line;
smooth = 0;
x = 333;
y = 0;
},
{
segmentType = line;
smooth = 0;
x = 510;
y = 0;
},
{
segmentType = line;
smooth = 0;
x = 510;
y = 30;
},
{
segmentType = line;
smooth = 1;
x = 468;
y = 30;
},
{
smooth = 0;
x = 437;
y = 30;
},
{
smooth = 0;
x = 425;
y = 44;
},
{
segmentType = curve;
smooth = 1;
x = 425;
y = 68;
},
{
segmentType = line;
smooth = 1;
x = 425;
y = 331;
},
{
smooth = 0;
x = 425;
y = 405;
},
{
smooth = 0;
x = 375;
y = 454;
},
{
segmentType = curve;
smooth = 1;
x = 258;
y = 454;
},
{
smooth = 0;
x = 146;
y = 454;
},
{
smooth = 0;
x = 83;
y = 407.12381;
},
{
segmentType = curve;
smooth = 1;
x = 83;
y = 347;
},
{
smooth = 0;
x = 83;
y = 310.59677;
},
{
smooth = 0;
x = 108;
y = 286;
},
{
segmentType = curve;
smooth = 1;
x = 145;
y = 286;
},
{
smooth = 0;
x = 179;
y = 286;
},
{
smooth = 0;
x = 202;
y = 306;
},
{
segmentType = curve;
smooth = 1;
x = 202;
y = 338;
},
{
smooth = 0;
x = 202;
y = 368;
},
{
smooth = 0;
x = 182;
y = 376;
},
{
segmentType = curve;
smooth = 1;
x = 182;
y = 395;
},
{
smooth = 0;
x = 182;
y = 414.21739;
},
{
smooth = 0;
x = 211;
y = 421;
},
{
segmentType = curve;
smooth = 1;
x = 249;
y = 421;
},
{
smooth = 0;
x = 307;
y = 421;
},
{
smooth = 0;
x = 325;
y = 390.66292;
},
{
segmentType = curve;
smooth = 1;
x = 325;
y = 331;
},
{
segmentType = line;
smooth = 0;
x = 325;
y = 182;
},
{
segmentType = line;
smooth = 0;
x = 333;
y = 168;
}
);
},
{
points = (
{
segmentType = curve;
smooth = 1;
x = 237;
y = 24;
},
{
smooth = 0;
x = 183.19565;
y = 24;
},
{
smooth = 0;
x = 147;
y = 59;
},
{
segmentType = curve;
smooth = 1;
x = 147;
y = 113;
},
{
smooth = 0;
x = 147;
y = 170;
},
{
smooth = 0;
x = 183.21277;
y = 208;
},
{
segmentType = curve;
smooth = 1;
x = 239;
y = 208;
},
{
smooth = 0;
x = 294;
y = 208;
},
{
smooth = 0;
x = 331;
y = 169.80412;
},
{
segmentType = curve;
smooth = 1;
x = 331;
y = 113;
},
{
smooth = 0;
x = 331;
y = 59.20879;
},
{
smooth = 0;
x = 294;
y = 24;
}
);
},
{
points = (
{
segmentType = curve;
smooth = 1;
x = 206;
y = -16;
},
{
smooth = 0;
x = 296;
y = -16;
},
{
smooth = 0;
x = 355;
y = 29;
},
{
segmentType = curve;
smooth = 1;
x = 355;
y = 113;
},
{
smooth = 0;
x = 355;
y = 197;
},
{
smooth = 0;
x = 296;
y = 248;
},
{
segmentType = curve;
smooth = 1;
x = 206;
y = 248;
},
{
smooth = 0;
x = 113;
y = 248;
},
{
smooth = 0;
x = 49;
y = 193.80292;
},
{
segmentType = curve;
smooth = 1;
x = 49;
y = 113;
},
{
smooth = 0;
x = 49;
y = 35.20611;
},
{
smooth = 0;
x = 113;
y = -16;
}
);
}
);
lib = {
};
name = a;
unicodes = (
);
width = 520;
};
};
com.typemytype.robofont.mark = (
0.9366,
0.9212,
0.4821,
1
);
};
},
{
color = 3;
glyphname = a.ss01;
kernLeft = a;
kernRight = a;
lastChange = "2025-02-16 21:10:56 +0000";
layers = (
{
anchors = (
{
name = bottom;
pos = (270,0);
},
{
name = ogonek;
pos = (486,10);
},
{
name = top;
pos = (270,440);
}
);
layerId = "484F8FD9-52EC-47CF-91D8-DA5450121283";
shapes = (
{
closed = 1;
nodes = (
(334,-8,o),
(378,45,o),
(378,220,cs),
(378,388,o),
(334,448,o),
(230,448,cs),
(125,448,o),
(50,368,o),
(50,220,cs),
(50,72,o),
(125,-8,o),
(230,-8,cs)
);
},
{
closed = 1;
nodes = (
(191,26,o),
(155,79,o),
(155,220,cs),
(155,361,o),
(191,414,o),
(250,414,cs),
(303,414,o),
(353,380,o),
(353,220,cs),
(353,60,o),
(303,26,o),
(250,26,cs)
);
},
{
closed = 1;
nodes = (
(547,-10,o),
(604,28,o),
(661,130,c),
(633,145,l),
(589,65,o),
(546,32,o),
(506,32,cs),
(474,32,o),
(450,56,o),
(450,118,cs),
(450,440,l),
(356,440,l),
(356,308,ls),
(367,219,l),
(350,120,l),
(350,57,o),
(373,-10,o),
(476,-10,cs)
);
}
);
width = 540;
},
{
anchors = (
{
name = bottom;
pos = (197,0);
},
{
name = ogonek;
pos = (416,10);
},
{
name = top;
pos = (343,440);
}
);
layerId = m002;
shapes = (
{
closed = 1;
nodes = (
(258,-8,o),
(320,45,o),
(378,220,cs),
(434,388,o),
(410,448,o),
(306,448,cs),
(201,448,o),
(99,368,o),
(50,220,cs),
(1,72,o),
(49,-8,o),
(154,-8,cs)
);
},
{
closed = 1;
nodes = (
(126,26,o),
(108,79,o),
(155,220,cs),
(202,361,o),
(256,414,o),
(315,414,cs),
(368,414,o),
(406,380,o),
(353,220,cs),
(300,60,o),
(238,26,o),
(185,26,cs)
);
},
{
closed = 1;
nodes = (
(470,-10,o),
(540,28,o),
(631,130,c),
(608,145,l),
(537,65,o),
(483,32,o),
(443,32,cs),
(411,32,o),
(395,56,o),
(416,118,cs),
(523,440,l),
(429,440,l),
(385,308,ls),
(367,219,l),
(317,120,l),
(296,57,o),
(296,-10,o),
(399,-10,cs)
);
}
);
width = 540;
},
{
anchors = (
{
name = bottom;
pos = (343,0);
},
{
name = ogonek;
pos = (556,10);
},
{
name = top;
pos = (197,440);
}
);
layerId = m003;
shapes = (
{
closed = 1;
nodes = (
(410,-8,o),
(436,45,o),
(378,220,cs),
(322,388,o),
(258,448,o),
(154,448,cs),
(49,448,o),
(1,368,o),
(50,220,cs),
(99,72,o),
(201,-8,o),
(306,-8,cs)
);
},
{
closed = 1;
nodes = (
(256,26,o),
(202,79,o),
(155,220,cs),
(108,361,o),
(126,414,o),
(185,414,cs),
(238,414,o),
(300,380,o),
(353,220,cs),
(406,60,o),
(368,26,o),
(315,26,cs)
);
},
{
closed = 1;
nodes = (
(624,-10,o),
(668,28,o),
(691,130,c),
(658,145,l),
(641,65,o),
(609,32,o),
(569,32,cs),
(537,32,o),
(505,56,o),
(484,118,cs),
(377,440,l),
(283,440,l),
(327,308,ls),
(367,219,l),
(383,120,l),
(404,57,o),
(450,-10,o),
(553,-10,cs)
);
}
);
width = 540;
}
);
userData = {
com.typemytype.robofont.layerData = {
background = {
anchors = (
);
components = (
);
contours = (
{
points = (
{
segmentType = line;
smooth = 0;
x = 450;
y = -265;
},
{
segmentType = line;
smooth = 1;
x = 450;
y = 367;
},
{
smooth = 0;
x = 450;
y = 395;
},
{
smooth = 0;
x = 461;
y = 410;
},
{
segmentType = curve;
smooth = 1;
x = 493;
y = 410;
},
{
segmentType = line;
smooth = 0;
x = 551;
y = 410;
},
{
segmentType = line;
smooth = 0;
x = 551;
y = 440;
},
{
segmentType = line;
smooth = 0;
x = 356;
y = 440;
},
{
segmentType = line;
smooth = 0;
x = 356;
y = 306;
},
{
segmentType = line;
smooth = 0;
x = 367;
y = 219;
},
{
segmentType = line;
smooth = 0;
x = 350;
y = 81;
},
{
segmentType = line;
smooth = 1;
x = 350;
y = -265;
}
);
},
{
points = (
{
segmentType = curve;
smooth = 1;
x = 378;
y = 220;
},
{
smooth = 0;
x = 378;
y = 388;
},
{
smooth = 0;
x = 334;
y = 448;
},
{
segmentType = curve;
smooth = 1;
x = 230;
y = 448;
},
{
smooth = 0;
x = 125;
y = 448;
},
{
smooth = 0;
x = 50;
y = 368;
},
{
segmentType = curve;
smooth = 1;
x = 50;
y = 220;
},
{
smooth = 0;
x = 50;
y = 72;
},
{
smooth = 0;
x = 125;
y = -8;
},
{
segmentType = curve;
smooth = 1;
x = 230;
y = -8;
},
{
smooth = 0;
x = 334;
y = -8;
},
{
smooth = 0;
x = 378;
y = 45;
}
);
},
{
points = (
{
segmentType = curve;
smooth = 1;
x = 250;
y = 26;
},
{
smooth = 0;
x = 191;
y = 26;
},
{
smooth = 0;
x = 155;
y = 79;
},
{
segmentType = curve;
smooth = 1;
x = 155;
y = 220;
},
{
smooth = 0;
x = 155;
y = 361;
},
{
smooth = 0;
x = 191;
y = 414;
},
{
segmentType = curve;
smooth = 1;
x = 250;
y = 414;
},
{
smooth = 0;
x = 303;
y = 414;
},
{
smooth = 0;
x = 353;
y = 380;
},
{
segmentType = curve;
smooth = 1;
x = 353;
y = 220;
},
{
smooth = 0;
x = 353;
y = 60;
},
{
smooth = 0;
x = 303;
y = 26;
}
);
}
);
lib = {
};
name = a;
unicodes = (
);
width = 540;
};
};
com.typemytype.robofont.mark = (
0.4827,
0.8546,
0.4678,
1
);
};
},
{
glyphname = b;
kernLeft = b;
kernRight = b;
lastChange = "2025-02-16 21:11:01 +0000";
layers = (
{
hints = (
{
name = _corner.serif.lc;
options = 1;
origin = (0,8);
scale = (1,-1);
type = Corner;
}
);
layerId = "484F8FD9-52EC-47CF-91D8-DA5450121283";
shapes = (
{
closed = 1;
nodes = (
(484,391,o),
(410,452,o),
(304,452,cs),
(234,452,o),
(164,417,o),
(164,306,c),
(185,306,l),
(185,670,l),
(85,670,l),
(85,201,ls),
(85,60,o),
(154,-12,o),
(271,-12,cs),
(394,-12,o),
(484,59,o),
(484,220,cs)
);
},
{
closed = 1;
nodes = (
(204,20,o),
(185,63,o),
(185,220,cs),
(185,363,o),
(212,416,o),
(282,416,cs),
(356,416,o),
(379,363,o),
(379,220,cs),
(379,77,o),
(343,20,o),
(274,20,cs)
);
}
);
width = 534;
},
{
hints = (
{
name = _corner.serif.lc;
options = 1;
origin = (0,8);
scale = (1,-1);
type = Corner;
}
);
layerId = m002;
shapes = (
{
closed = 1;
nodes = (
(541,391,o),
(487,452,o),
(381,452,cs),
(311,452,o),
(230,417,o),
(193,306,c),
(214,306,l),
(335,670,l),
(235,670,l),
(79,201,ls),
(32,60,o),
(77,-12,o),
(194,-12,cs),
(317,-12,o),
(430,59,o),
(484,220,cs)
);
},
{
closed = 1;
nodes = (
(137,20,o),
(133,63,o),
(185,220,cs),
(233,363,o),
(277,416,o),
(347,416,cs),
(421,416,o),
(427,363,o),
(379,220,cs),
(331,77,o),
(276,20,o),
(207,20,cs)
);
}
);
width = 534;
},
{
hints = (
{
name = _corner.serif.lc;
options = 1;
origin = (0,8);
scale = (1,-1);
type = Corner;
}
);
layerId = m003;
shapes = (
{
closed = 1;
nodes = (
(427,391,o),
(333,452,o),
(227,452,cs),
(157,452,o),
(98,417,o),
(135,306,c),
(156,306,l),
(35,670,l),
(-65,670,l),
(91,201,ls),
(138,60,o),
(231,-12,o),
(348,-12,cs),
(471,-12,o),
(538,59,o),
(484,220,cs)
);
},
{
closed = 1;
nodes = (
(271,20,o),
(237,63,o),
(185,220,cs),
(137,363,o),
(147,416,o),
(217,416,cs),
(291,416,o),
(331,363,o),
(379,220,cs),
(427,77,o),
(410,20,o),
(341,20,cs)
);
}
);
width = 534;
}
);
unicode = 98;
userData = {
com.typemytype.robofont.guides = (
);
com.typemytype.robofont.layerData = {
background = {
anchors = (
);
components = (
);
contours = (
);
lib = {
};
name = b;
unicodes = (
);
width = 534;
};
};
com.typemytype.robofont.mark = (
0.4827,
0.8546,
0.4678,
1
);
};
},
{
glyphname = c;
kernLeft = c;
lastChange = "2025-02-16 21:11:07 +0000";
layers = (
{
background = {
shapes = (
{
closed = 1;
nodes = (
(405,281,o),
(431,309,o),
(431,350,cs),
(431,411,o),
(370,452,o),
(256,452,cs),
(128,452,o),
(50,366,o),
(50,220,cs),
(50,74,o),
(128,-12,o),
(265,-12,cs),
(376,-12,o),
(446,37,o),
(515,116,c),
(492,137,l),
(420,56,o),
(365,26,o),
(290,26,cs),
(189,26,o),
(155,96,o),
(155,223,cs),
(155,355,o),
(184,421,o),
(258,421,cs),
(284,421,o),
(304,408,o),
(304,387,cs),
(304,374,o),
(299,365,o),
(299,346,cs),
(299,306,o),
(329,281,o),
(363,281,cs)
);
}
);
};
layerId = "484F8FD9-52EC-47CF-91D8-DA5450121283";
shapes = (
{
closed = 1;
nodes = (
(395,74,o),
(354,24,o),
(270,24,cs),
(182,24,o),
(155,95,o),
(155,223,cs),
(155,355,o),
(184,421,o),
(258,421,cs),
(323,421,o),
(375,367,o),
(386,269,c),
(415,269,l),
(415,455,l),
(385,455,l),
(383,442,o),
(375,432,o),
(361,432,cs),
(341,432,o),
(315,452,o),
(254,452,cs),
(128,452,o),
(50,366,o),
(50,220,cs),
(50,71,o),
(126,-16,o),
(257,-16,cs),
(364,-16,o),
(435,49,o),
(436,160,c),
(402,160,l)
);
}
);
width = 486;
},
{
background = {
shapes = (
{
closed = 1;
nodes = (
(405,281,o),
(431,309,o),
(431,350,cs),
(431,411,o),
(370,452,o),
(256,452,cs),
(128,452,o),
(50,366,o),
(50,220,cs),
(50,74,o),
(128,-12,o),
(265,-12,cs),
(376,-12,o),
(446,37,o),
(515,116,c),
(492,137,l),
(420,56,o),
(365,26,o),
(290,26,cs),
(189,26,o),
(155,96,o),
(155,223,cs),
(155,355,o),
(184,421,o),
(258,421,cs),
(284,421,o),
(304,408,o),
(304,387,cs),
(304,374,o),
(299,365,o),
(299,346,cs),
(299,306,o),
(329,281,o),
(363,281,cs)
);
}
);
};
layerId = m002;
shapes = (
{
closed = 1;
nodes = (
(346,74,o),
(289,24,o),
(205,24,cs),
(117,24,o),
(113,95,o),
(156,223,cs),
(200,355,o),
(251,421,o),
(325,421,cs),
(390,421,o),
(424,367,o),
(402,269,c),
(431,269,l),
(493,455,l),
(463,455,l),
(457,442,o),
(446,432,o),
(432,432,cs),
(412,432,o),
(392,452,o),
(331,452,cs),
(205,452,o),
(99,366,o),
(50,220,cs),
(0,71,o),
(47,-16,o),
(178,-16,cs),
(285,-16,o),
(378,49,o),
(416,160,c),
(382,160,l)
);
}
);
width = 486;
},
{
background = {
shapes = (
{
closed = 1;
nodes = (
(405,281,o),
(431,309,o),
(431,350,cs),
(431,411,o),
(370,452,o),
(256,452,cs),
(128,452,o),
(50,366,o),
(50,220,cs),
(50,74,o),
(128,-12,o),
(265,-12,cs),
(376,-12,o),
(446,37,o),
(515,116,c),
(492,137,l),
(420,56,o),
(365,26,o),
(290,26,cs),
(189,26,o),
(155,96,o),
(155,223,cs),
(155,355,o),
(184,421,o),
(258,421,cs),
(284,421,o),
(304,408,o),
(304,387,cs),
(304,374,o),
(299,365,o),
(299,346,cs),
(299,306,o),
(329,281,o),
(363,281,cs)
);
}
);
};
layerId = m003;
shapes = (
{
closed = 1;
nodes = (
(444,74,o),
(419,24,o),
(335,24,cs),
(247,24,o),
(197,95,o),
(154,223,cs),
(110,355,o),
(117,421,o),
(191,421,cs),
(256,421,o),
(326,367,o),
(370,269,c),
(399,269,l),
(337,455,l),
(307,455,l),
(309,442,o),
(304,432,o),
(290,432,cs),
(270,432,o),
(238,452,o),
(177,452,cs),
(51,452,o),
(1,366,o),
(50,220,cs),
(100,71,o),
(205,-16,o),
(336,-16,cs),
(443,-16,o),
(492,49,o),
(456,160,c),
(422,160,l)
);
}
);
width = 486;
}
);
unicode = 99;
userData = {
com.typemytype.robofont.layerData = {
background = {
anchors = (
);
components = (
);
contours = (
{
points = (
{
segmentType = line;
smooth = 0;
x = 402;
y = 160;
},
{
smooth = 0;
x = 397.00105;
y = 73.0182;
},
{
smooth = 0;
x = 348.9037;
y = 24;
},
{
segmentType = curve;
smooth = 1;
x = 274;
y = 24;
},
{
smooth = 0;
x = 180;
y = 24;
},
{
smooth = 0;
x = 155;
y = 94.79808;
},
{
segmentType = curve;
smooth = 1;
x = 155;
y = 223;
},
{
smooth = 0;
x = 155;
y = 355;
},
{
smooth = 0;
x = 178;
y = 421;
},
{
segmentType = curve;
smooth = 1;
x = 254;
y = 421;
},
{
smooth = 0;
x = 328;
y = 421;
},
{
smooth = 0;
x = 340;
y = 365;
},
{
segmentType = curve;
smooth = 0;
x = 340;
y = 261;
},
{
segmentType = line;
smooth = 0;
x = 122;
y = 261;
},
{
segmentType = line;
smooth = 0;
x = 122;
y = 231;
},
{
segmentType = line;
smooth = 0;
x = 452;
y = 231;
},
{
smooth = 0;
x = 452;
y = 363;
},
{
smooth = 0;
x = 387;
y = 452;
},
{
segmentType = curve;
smooth = 1;
x = 254;
y = 452;
},
{
smooth = 0;
x = 125;
y = 452;
},
{
smooth = 0;
x = 50;
y = 366.21849;
},
{
segmentType = curve;
smooth = 1;
x = 50;
y = 220;
},
{
smooth = 0;
x = 50;
y = 71.2605;
},
{
smooth = 0;
x = 125;
y = -16;
},
{
segmentType = curve;
smooth = 1;
x = 253;
y = -16;
},
{
smooth = 0;
x = 371.1875;
y = -16;
},
{
smooth = 0;
x = 436;
y = 56;
},
{
segmentType = curve;
smooth = 0;
x = 436;
y = 160;
}
);
},
{
points = (
{
smooth = 0;
x = 923;
y = 163;
},
{
smooth = 0;
x = 902;
y = 163;
},
{
segmentType = curve;
smooth = 0;
x = 889;
y = 158;
},
{
smooth = 0;
x = 882;
y = 65;
},
{
smooth = 0;
x = 846;
y = 18;
},
{
segmentType = curve;
smooth = 1;
x = 769;
y = 18;
},
{
smooth = 0;
x = 682;
y = 18;
},
{
smooth = 0;
x = 655;
y = 91;
},
{
segmentType = curve;
smooth = 1;
x = 655;
y = 223;
},
{
smooth = 0;
x = 655;
y = 359;
},
{
smooth = 0;
x = 684;
y = 427;
},
{
segmentType = curve;
smooth = 1;
x = 759;
y = 427;
},
{
smooth = 0;
x = 823;
y = 427;
},
{
smooth = 0;
x = 875;
y = 373;
},
{
segmentType = curve;
smooth = 0;
x = 886;
y = 275;
},
{
segmentType = line;
smooth = 0;
x = 915;
y = 275;
},
{
segmentType = line;
smooth = 0;
x = 915;
y = 461;
},
{
segmentType = line;
smooth = 0;
x = 885;
y = 461;
},
{
smooth = 0;
x = 883;
y = 448;
},
{
smooth = 0;
x = 875;
y = 438;
},
{
segmentType = curve;
smooth = 1;
x = 861;
y = 438;
},
{
smooth = 0;
x = 841;
y = 438;
},
{
smooth = 0;
x = 815;
y = 458;
},
{
segmentType = curve;
smooth = 1;
x = 754;
y = 458;
},
{
smooth = 0;
x = 628;
y = 458;
},
{
smooth = 0;
x = 550;
y = 370;
},
{
segmentType = curve;
smooth = 1;
x = 550;
y = 220;
},
{
smooth = 0;
x = 550;
y = 70;
},
{
smooth = 0;
x = 628;
y = -18;
},
{
segmentType = curve;
smooth = 1;
x = 760;
y = -18;
},
{
smooth = 0;
x = 867;
y = -18;
},
{
smooth = 0;
x = 926;
y = 47;
},
{
segmentType = curve;
smooth = 0;
x = 936;
y = 158;
}
);
}
);
lib = {
};
name = c;
unicodes = (
);
width = 486;
};
};
com.typemytype.robofont.mark = (
0.9366,
0.9212,
0.4821,
1
);
};
},
{
glyphname = c.alt001;
lastChange = "2025-02-16 21:11:09 +0000";
layers = (
{
layerId = "484F8FD9-52EC-47CF-91D8-DA5450121283";
shapes = (
{
closed = 1;
nodes = (
(405,281,o),
(431,309,o),
(431,350,cs),
(431,411,o),
(370,452,o),
(256,452,cs),
(128,452,o),
(50,366,o),
(50,220,cs),
(50,74,o),
(128,-12,o),
(265,-12,cs),
(420,-12,o),
(524,84,o),
(524,266,c),
(502,266,l),
(502,110,o),
(402,26,o),
(290,26,cs),
(189,26,o),
(155,96,o),
(155,223,cs),
(155,355,o),
(184,421,o),
(258,421,cs),
(284,421,o),
(304,408,o),
(304,387,cs),
(304,374,o),
(299,365,o),
(299,346,cs),
(299,306,o),
(329,281,o),
(363,281,cs)
);
}
);
width = 485;
},
{
layerId = m002;
shapes = (
{
closed = 1;
nodes = (
(425,281,o),
(461,309,o),
(474,350,cs),
(495,411,o),
(447,452,o),
(333,452,cs),
(205,452,o),
(99,366,o),
(50,220,cs),
(1,74,o),
(51,-12,o),
(188,-12,cs),
(343,-12,o),
(479,84,o),
(539,266,c),
(517,266,l),
(465,110,o),
(337,26,o),
(225,26,cs),
(124,26,o),
(114,96,o),
(156,223,cs),
(200,355,o),
(251,421,o),
(325,421,cs),
(351,421,o),
(367,408,o),
(360,387,cs),
(355,374,o),
(347,365,o),
(341,346,cs),
(328,306,o),
(349,281,o),
(383,281,cs)
);
}
);
width = 485;
},
{
layerId = m003;
shapes = (
{
closed = 1;
nodes = (
(385,281,o),
(401,309,o),
(388,350,cs),
(367,411,o),
(293,452,o),
(179,452,cs),
(51,452,o),
(1,366,o),
(50,220,cs),
(99,74,o),
(205,-12,o),
(342,-12,cs),
(497,-12,o),
(569,84,o),
(509,266,c),
(487,266,l),
(539,110,o),
(467,26,o),
(355,26,cs),
(254,26,o),
(196,96,o),
(154,223,cs),
(110,355,o),
(117,421,o),
(191,421,cs),
(217,421,o),
(241,408,o),
(248,387,cs),
(253,374,o),
(251,365,o),
(257,346,cs),
(270,306,o),
(309,281,o),
(343,281,cs)
);
}
);
width = 485;
}
);
userData = {
com.typemytype.robofont.layerData = {
background = {
anchors = (
);
components = (
);
contours = (
{
points = (
{
segmentType = curve;
smooth = 1;
x = 363;
y = 281;
},
{
smooth = 0;
x = 405;
y = 281;
},
{
smooth = 0;
x = 431;
y = 309;
},
{
segmentType = curve;
smooth = 1;
x = 431;
y = 350;
},
{
smooth = 0;
x = 431;
y = 411;
},
{
smooth = 0;
x = 370;
y = 452;
},
{
segmentType = curve;
smooth = 1;
x = 256;
y = 452;
},
{
smooth = 0;
x = 128;
y = 452;
},
{
smooth = 0;
x = 50;
y = 366;
},
{
segmentType = curve;
smooth = 1;
x = 50;
y = 220;
},
{
smooth = 0;
x = 50;
y = 74;
},
{
smooth = 0;
x = 128;
y = -12;
},
{
segmentType = curve;
smooth = 1;
x = 265;
y = -12;
},
{
smooth = 0;
x = 376;
y = -12;
},
{
smooth = 0;
x = 446;
y = 37;
},
{
segmentType = curve;
smooth = 0;
x = 515;
y = 116;
},
{
segmentType = line;
smooth = 0;
x = 492;
y = 137;
},
{
smooth = 0;
x = 420;
y = 56;
},
{
smooth = 0;
x = 365;
y = 26;
},
{
segmentType = curve;
smooth = 1;
x = 290;
y = 26;
},
{
smooth = 0;
x = 189;
y = 26;
},
{
smooth = 0;
x = 155;
y = 96;
},
{
segmentType = curve;
smooth = 1;
x = 155;
y = 223;
},
{
smooth = 0;
x = 155;
y = 355;
},
{
smooth = 0;
x = 184;
y = 421;
},
{
segmentType = curve;
smooth = 1;
x = 258;
y = 421;
},
{
smooth = 0;
x = 284;
y = 421;
},
{
smooth = 0;
x = 304;
y = 408;
},
{
segmentType = curve;
smooth = 1;
x = 304;
y = 387;
},
{
smooth = 0;
x = 304;
y = 374;
},
{
smooth = 0;
x = 299;
y = 365;
},
{
segmentType = curve;
smooth = 1;
x = 299;
y = 346;
},
{
smooth = 0;
x = 299;
y = 306;
},
{
smooth = 0;
x = 329;
y = 281;
}
);
}
);
lib = {
};
name = c.alt001;
unicodes = (
);
width = 485;
};
};
com.typemytype.robofont.mark = (
0.4827,
0.8546,
0.4678,
1
);
};
},
{
color = 3;
glyphname = c.ss01;
kernLeft = c;
kernRight = c;
lastChange = "2025-02-16 21:11:10 +0000";
layers = (
{
layerId = "484F8FD9-52EC-47CF-91D8-DA5450121283";
shapes = (
{
closed = 1;
nodes = (
(405,281,o),
(431,309,o),
(431,350,cs),
(431,411,o),
(370,452,o),
(256,452,cs),
(128,452,o),
(50,366,o),
(50,220,cs),
(50,74,o),
(128,-12,o),
(265,-12,cs),
(376,-12,o),
(446,37,o),
(515,116,c),
(492,137,l),
(420,56,o),
(365,26,o),
(290,26,cs),
(189,26,o),
(155,96,o),
(155,223,cs),
(155,355,o),
(184,421,o),
(258,421,cs),
(284,421,o),
(304,408,o),
(304,387,cs),
(304,374,o),
(299,365,o),
(299,346,cs),
(299,306,o),
(329,281,o),
(363,281,cs)
);
}
);
width = 485;
},
{
layerId = m002;
shapes = (
{
closed = 1;
nodes = (
(425,281,o),
(461,309,o),
(474,350,cs),
(495,411,o),
(447,452,o),
(333,452,cs),
(205,452,o),
(99,366,o),
(50,220,cs),
(1,74,o),
(51,-12,o),
(188,-12,cs),
(299,-12,o),
(385,37,o),
(480,116,c),
(464,137,l),
(365,56,o),
(300,26,o),
(225,26,cs),
(124,26,o),
(114,96,o),
(156,223,cs),
(200,355,o),
(251,421,o),
(325,421,cs),
(351,421,o),
(367,408,o),
(360,387,cs),
(355,374,o),
(347,365,o),
(341,346,cs),
(328,306,o),
(349,281,o),
(383,281,cs)
);
}
);
width = 485;
},
{
layerId = m003;
shapes = (
{
closed = 1;
nodes = (
(385,281,o),
(401,309,o),
(388,350,cs),
(367,411,o),
(293,452,o),
(179,452,cs),
(51,452,o),
(1,366,o),
(50,220,cs),
(99,74,o),
(205,-12,o),
(342,-12,cs),
(453,-12,o),
(507,37,o),
(550,116,c),
(520,137,l),
(475,56,o),
(430,26,o),
(355,26,cs),
(254,26,o),
(196,96,o),
(154,223,cs),
(110,355,o),
(117,421,o),
(191,421,cs),
(217,421,o),
(241,408,o),
(248,387,cs),
(253,374,o),
(251,365,o),
(257,346,cs),
(270,306,o),
(309,281,o),
(343,281,cs)
);
}
);
width = 485;
}
);
userData = {
com.typemytype.robofont.layerData = {
background = {
anchors = (
);
components = (
);
contours = (
{
points = (
{
segmentType = move;
x = 338;
y = -10;
},
{
smooth = 0;
x = 409;
y = -10;
},
{
smooth = 0;
x = 466;
y = 28;
},
{
segmentType = curve;
smooth = 0;
x = 523;
y = 130;
},
{
segmentType = line;
smooth = 0;
x = 495;
y = 145;
},
{
smooth = 0;
x = 451;
y = 65;
},
{
smooth = 0;
x = 408;
y = 32;
},
{
segmentType = curve;
smooth = 1;
x = 368;
y = 32;
}
);
}
);
lib = {
};
name = c;
unicodes = (
);
width = 485;
};
};
com.typemytype.robofont.mark = (
0.4827,
0.8546,
0.4678,
1
);
};
},
{
glyphname = d;
kernLeft = c;
kernRight = d;
lastChange = "2025-02-16 21:11:14 +0000";
layers = (
{
background = {
shapes = (
{
closed = 1;
nodes = (
(367,221,l),
(358,134,l),
(358,0,l),
(541,0,l),
(541,30,l),
(493,30,ls),
(461,30,o),
(450,45,o),
(450,73,cs),
(450,670,l),
(260,670,l),
(260,640,l),
(313,640,ls),
(340,640,o),
(350,626,o),
(350,602,cs),
(350,359,l)
);
},
{
closed = 1;
nodes = (
(309,420,o),
(353,364.66,o),
(353,220,cs),
(353,73.893,o),
(309,18,o),
(250,18,cs),
(191,18,o),
(155,73.893,o),
(155,220,cs),
(155,364.66,o),
(191,420,o),
(250,420,cs)
);
},
{
closed = 1;
nodes = (
(378,395.462,o),
(335,452,o),
(230,452,cs),
(125,452,o),
(50,371.092,o),
(50,220,cs),
(50,67.605,o),
(125,-14,o),
(230,-14,cs),
(335,-14,o),
(378,43.025,o),
(378,220,cs)
);
}
);
};
hints = (
{
name = _corner.serif.lc;
options = 1;
origin = (0,10);
scale = (1,-1);
type = Corner;
}
);
layerId = "484F8FD9-52EC-47CF-91D8-DA5450121283";
shapes = (
{
closed = 1;
nodes = (
(367,221,l),
(358,134,l),
(358,0,l),
(541,0,l),
(541,30,l),
(493,30,ls),
(461,30,o),
(450,45,o),
(450,73,cs),
(450,670,l),
(350,670,l),
(350,359,l)
);
},
{
closed = 1;
nodes = (
(309,420,o),
(353,365,o),
(353,220,cs),
(353,74,o),
(309,18,o),
(250,18,cs),
(191,18,o),
(155,74,o),
(155,220,cs),
(155,365,o),
(191,420,o),
(250,420,cs)
);
},
{
closed = 1;
nodes = (
(378,395,o),
(335,452,o),
(230,452,cs),
(125,452,o),
(50,371,o),
(50,220,cs),
(50,68,o),
(125,-14,o),
(230,-14,cs),
(335,-14,o),
(378,43,o),
(378,220,cs)
);
}
);
width = 545;
},
{
background = {
shapes = (
{
closed = 1;
nodes = (
(367,221,l),
(358,134,l),
(358,0,l),
(541,0,l),
(541,30,l),
(493,30,ls),
(461,30,o),
(450,45,o),
(450,73,cs),
(450,670,l),
(260,670,l),
(260,640,l),
(313,640,ls),
(340,640,o),
(350,626,o),
(350,602,cs),
(350,359,l)
);
},
{
closed = 1;
nodes = (
(309,420,o),
(353,364.66,o),
(353,220,cs),
(353,73.893,o),
(309,18,o),
(250,18,cs),
(191,18,o),
(155,73.893,o),
(155,220,cs),
(155,364.66,o),
(191,420,o),
(250,420,cs)
);
},
{
closed = 1;
nodes = (
(378,395.462,o),
(335,452,o),
(230,452,cs),
(125,452,o),
(50,371.092,o),
(50,220,cs),
(50,67.605,o),
(125,-14,o),
(230,-14,cs),
(335,-14,o),
(378,43.025,o),
(378,220,cs)
);
}
);
};
hints = (
{
name = _corner.serif.lc;
options = 1;
origin = (0,10);
scale = (1,-1);
type = Corner;
}
);
layerId = m002;
shapes = (
{
closed = 1;
nodes = (
(367,221,l),
(329,134,l),
(285,0,l),
(468,0,l),
(478,30,l),
(430,30,ls),
(398,30,o),
(392,45,o),
(401,73,cs),
(600,670,l),
(500,670,l),
(396,359,l)
);
},
{
closed = 1;
nodes = (
(376,420,o),
(401,365,o),
(353,220,cs),
(304,74,o),
(242,18,o),
(183,18,cs),
(124,18,o),
(106,74,o),
(155,220,cs),
(203,365,o),
(258,420,o),
(317,420,cs)
);
},
{
closed = 1;
nodes = (
(436,395,o),
(412,452,o),
(307,452,cs),
(202,452,o),
(100,371,o),
(50,220,cs),
(-1,68,o),
(47,-14,o),
(152,-14,cs),
(257,-14,o),
(319,43,o),
(378,220,cs)
);
}
);
width = 545;
},
{
background = {
shapes = (
{
closed = 1;
nodes = (
(367,221,l),
(358,134,l),
(358,0,l),
(541,0,l),
(541,30,l),
(493,30,ls),
(461,30,o),
(450,45,o),
(450,73,cs),
(450,670,l),
(260,670,l),
(260,640,l),
(313,640,ls),
(340,640,o),
(350,626,o),
(350,602,cs),
(350,359,l)
);
},
{
closed = 1;
nodes = (
(309,420,o),
(353,364.66,o),
(353,220,cs),
(353,73.893,o),
(309,18,o),
(250,18,cs),
(191,18,o),
(155,73.893,o),
(155,220,cs),
(155,364.66,o),
(191,420,o),
(250,420,cs)
);
},
{
closed = 1;
nodes = (
(378,395.462,o),
(335,452,o),
(230,452,cs),
(125,452,o),
(50,371.092,o),
(50,220,cs),
(50,67.605,o),
(125,-14,o),
(230,-14,cs),
(335,-14,o),
(378,43.025,o),
(378,220,cs)
);
}
);
};
hints = (
{
name = _corner.serif.lc;
options = 1;
origin = (0,10);
scale = (1,-1);
type = Corner;
}
);
layerId = m003;
shapes = (
{
closed = 1;
nodes = (
(367,221,l),
(387,134,l),
(431,0,l),
(614,0,l),
(604,30,l),
(556,30,ls),
(524,30,o),
(508,45,o),
(499,73,cs),
(300,670,l),
(200,670,l),
(304,359,l)
);
},
{
closed = 1;
nodes = (
(242,420,o),
(305,365,o),
(353,220,cs),
(402,74,o),
(376,18,o),
(317,18,cs),
(258,18,o),
(204,74,o),
(155,220,cs),
(107,365,o),
(124,420,o),
(183,420,cs)
);
},
{
closed = 1;
nodes = (
(320,395,o),
(258,452,o),
(153,452,cs),
(48,452,o),
(0,371,o),
(50,220,cs),
(101,68,o),
(203,-14,o),
(308,-14,cs),
(413,-14,o),
(437,43,o),
(378,220,cs)
);
}
);
width = 545;
}
);
unicode = 100;
userData = {
com.typemytype.robofont.guides = (
);
com.typemytype.robofont.layerData = {
background = {
anchors = (
);
components = (
);
contours = (
);
lib = {
};
name = d;
unicodes = (
);
width = 545;
};
};
com.typemytype.robofont.mark = (
0.9366,
0.9212,
0.4821,
1
);
};
},
{
color = 3;
glyphname = d.ss01;
kernLeft = c;
kernRight = d;
lastChange = "2025-02-16 21:11:17 +0000";
layers = (
{
hints = (
{
name = _corner.serif.lc;
options = 1;
origin = (0,11);
scale = (1,-1);
type = Corner;
}
);
layerId = "484F8FD9-52EC-47CF-91D8-DA5450121283";
shapes = (
{
closed = 1;
nodes = (
(547,-10,o),
(604,28,o),
(661,130,c),
(633,145,l),
(589,65,o),
(546,32,o),
(506,32,cs),
(474,32,o),
(450,56,o),
(450,118,cs),
(450,670,l),
(350,670,l),
(350,308,l),
(367,219,l),
(350,120,l),
(350,57,o),
(373,-10,o),
(476,-10,cs)
);
},
{
closed = 1;
nodes = (
(334,-8,o),
(378,45,o),
(378,220,cs),
(378,388,o),
(334,448,o),
(230,448,cs),
(125,448,o),
(50,368,o),
(50,220,cs),
(50,72,o),
(125,-8,o),
(230,-8,cs)
);
},
{
closed = 1;
nodes = (
(191,26,o),
(155,79,o),
(155,220,cs),
(155,361,o),
(191,414,o),
(250,414,cs),
(303,414,o),
(353,380,o),
(353,220,cs),
(353,60,o),
(303,26,o),
(250,26,cs)
);
}
);
width = 540;
},
{
hints = (
{
name = _corner.serif.lc;
options = 1;
origin = (0,11);
scale = (1,-1);
type = Corner;
}
);
layerId = m002;
shapes = (
{
closed = 1;
nodes = (
(470,-10,o),
(540,28,o),
(631,130,c),
(608,145,l),
(537,65,o),
(483,32,o),
(443,32,cs),
(411,32,o),
(395,56,o),
(416,118,cs),
(600,670,l),
(500,670,l),
(379,308,l),
(367,219,l),
(317,120,l),
(296,57,o),
(296,-10,o),
(399,-10,cs)
);
},
{
closed = 1;
nodes = (
(258,-8,o),
(320,45,o),
(378,220,cs),
(434,388,o),
(410,448,o),
(306,448,cs),
(201,448,o),
(99,368,o),
(50,220,cs),
(1,72,o),
(49,-8,o),
(154,-8,cs)
);
},
{
closed = 1;
nodes = (
(126,26,o),
(108,79,o),
(155,220,cs),
(202,361,o),
(256,414,o),
(315,414,cs),
(368,414,o),
(406,380,o),
(353,220,cs),
(300,60,o),
(238,26,o),
(185,26,cs)
);
}
);
width = 540;
},
{
hints = (
{
name = _corner.serif.lc;
options = 1;
origin = (0,11);
scale = (1,-1);
type = Corner;
}
);
layerId = m003;
shapes = (
{
closed = 1;
nodes = (
(624,-10,o),
(668,28,o),
(691,130,c),
(658,145,l),
(641,65,o),
(609,32,o),
(569,32,cs),
(537,32,o),
(505,56,o),
(484,118,cs),
(300,670,l),
(200,670,l),
(321,308,l),
(367,219,l),
(383,120,l),
(404,57,o),
(450,-10,o),
(553,-10,cs)
);
},
{
closed = 1;
nodes = (
(410,-8,o),
(436,45,o),
(378,220,cs),
(322,388,o),
(258,448,o),
(154,448,cs),
(49,448,o),
(1,368,o),
(50,220,cs),
(99,72,o),
(201,-8,o),
(306,-8,cs)
);
},
{
closed = 1;
nodes = (
(256,26,o),
(202,79,o),
(155,220,cs),
(108,361,o),
(126,414,o),
(185,414,cs),
(238,414,o),
(300,380,o),
(353,220,cs),
(406,60,o),
(368,26,o),
(315,26,cs)
);
}
);
width = 540;
}
);
userData = {
com.typemytype.robofont.guides = (
);
com.typemytype.robofont.layerData = {
background = {
anchors = (
);
components = (
);
contours = (
{
points = (
{
segmentType = curve;
smooth = 1;
x = 250;
y = 426;
},
{
smooth = 0;
x = 309;
y = 426;
},
{
smooth = 0;
x = 353;
y = 369;
},
{
segmentType = curve;
smooth = 1;
x = 353;
y = 220;
},
{
smooth = 0;
x = 353;
y = 71;
},
{
smooth = 0;
x = 309;
y = 14;
},
{
segmentType = curve;
smooth = 1;
x = 250;
y = 14;
},
{
smooth = 0;
x = 191;
y = 14;
},
{
smooth = 0;
x = 155;
y = 71;
},
{
segmentType = curve;
smooth = 1;
x = 155;
y = 220;
},
{
smooth = 0;
x = 155;
y = 369;
},
{
smooth = 0;
x = 191;
y = 426;
}
);
},
{
points = (
{
segmentType = line;
smooth = 0;
x = 350;
y = 359;
},
{
segmentType = line;
smooth = 0;
x = 367;
y = 221;
},
{
segmentType = line;
smooth = 0;
x = 358;
y = 134;
},
{
segmentType = line;
smooth = 0;
x = 358;
y = 0;
},
{
segmentType = line;
smooth = 0;
x = 541;
y = 0;
},
{
segmentType = line;
smooth = 0;
x = 541;
y = 30;
},
{
segmentType = line;
smooth = 1;
x = 493;
y = 30;
},
{
smooth = 0;
x = 461;
y = 30;
},
{
smooth = 0;
x = 450;
y = 45;
},
{
segmentType = curve;
smooth = 0;
x = 450;
y = 73;
},
{
smooth = 0;
x = 450;
y = 73;
},
{
smooth = 0;
x = 450;
y = 670;
},
{
segmentType = curve;
smooth = 0;
x = 450;
y = 670;
},
{
segmentType = line;
smooth = 0;
x = 265;
y = 670;
},
{
segmentType = line;
smooth = 0;
x = 265;
y = 640;
},
{
segmentType = line;
smooth = 1;
x = 313;
y = 640;
},
{
smooth = 0;
x = 340;
y = 640;
},
{
smooth = 0;
x = 350;
y = 626;
},
{
segmentType = curve;
smooth = 1;
x = 350;
y = 602;
}
);
},
{
points = (
{
segmentType = curve;
smooth = 1;
x = 378;
y = 220;
},
{
smooth = 0;
x = 378;
y = 400;
},
{
smooth = 0;
x = 335;
y = 458;
},
{
segmentType = curve;
smooth = 1;
x = 230;
y = 458;
},
{
smooth = 0;
x = 125;
y = 458;
},
{
smooth = 0;
x = 50;
y = 375;
},
{
segmentType = curve;
smooth = 1;
x = 50;
y = 220;
},
{
smooth = 0;
x = 50;
y = 65;
},
{
smooth = 0;
x = 125;
y = -18;
},
{
segmentType = curve;
smooth = 1;
x = 230;
y = -18;
},
{
smooth = 0;
x = 335;
y = -18;
},
{
smooth = 0;
x = 378;
y = 40;
}
);
}
);
lib = {
};
name = l;
unicodes = (
);
width = 540;
};
};
com.typemytype.robofont.mark = (
0.4827,
0.8546,
0.4678,
1
);
};
},
{
glyphname = e;
kernLeft = c;
kernRight = b;
lastChange = "2025-02-16 21:11:19 +0000";
layers = (
{
anchors = (
{
name = bottom;
pos = (254,0);
},
{
name = ogonek;
pos = (456,10);
},
{
name = top;
pos = (254,440);
}
);
background = {
shapes = (
{
closed = 1;
nodes = (
(377,-16,o),
(445,56,o),
(445,160,c),
(411,160,l),
(406,73,o),
(354,24,o),
(274,24,cs),
(180,24,o),
(155,95,o),
(155,223,cs),
(155,355,o),
(178,421,o),
(254,421,cs),
(328,421,o),
(340,365,o),
(340,261,c),
(122,261,l),
(122,231,l),
(452,231,l),
(452,363,o),
(387,452,o),
(254,452,cs),
(125,452,o),
(50,366,o),
(50,220,cs),
(50,71,o),
(125,-16,o),
(253,-16,cs)
);
}
);
};
layerId = "484F8FD9-52EC-47CF-91D8-DA5450121283";
shapes = (
{
closed = 1;
nodes = (
(377,-16,o),
(445,56,o),
(445,160,c),
(411,160,l),
(406,73,o),
(354,24,o),
(274,24,cs),
(180,24,o),
(155,95,o),
(155,223,cs),
(155,355,o),
(178,421,o),
(254,421,cs),
(328,421,o),
(340,365,o),
(340,261,c),
(411,261,l),
(122,261,l),
(122,231,l),
(452,231,l),
(452,363,o),
(387,452,o),
(254,452,cs),
(125,452,o),
(50,366,o),
(50,220,cs),
(50,71,o),
(125,-16,o),
(253,-16,cs)
);
}
);
width = 507;
},
{
anchors = (
{
name = bottom;
pos = (181,0);
},
{
name = ogonek;
pos = (386,10);
},
{
name = top;
pos = (327,440);
}
);
background = {
shapes = (
{
closed = 1;
nodes = (
(377,-16,o),
(445,56,o),
(445,160,c),
(411,160,l),
(406,73,o),
(354,24,o),
(274,24,cs),
(180,24,o),
(155,95,o),
(155,223,cs),
(155,355,o),
(178,421,o),
(254,421,cs),
(328,421,o),
(340,365,o),
(340,261,c),
(122,261,l),
(122,231,l),
(452,231,l),
(452,363,o),
(387,452,o),
(254,452,cs),
(125,452,o),
(50,366,o),
(50,220,cs),
(50,71,o),
(125,-16,o),
(253,-16,cs)
);
}
);
};
layerId = m002;
shapes = (
{
closed = 1;
nodes = (
(298,-16,o),
(390,56,o),
(425,160,c),
(391,160,l),
(357,73,o),
(289,24,o),
(209,24,cs),
(115,24,o),
(113,95,o),
(156,223,cs),
(200,355,o),
(245,421,o),
(321,421,cs),
(395,421,o),
(388,365,o),
(354,261,c),
(425,261,l),
(136,261,l),
(126,231,l),
(456,231,l),
(500,363,o),
(464,452,o),
(331,452,cs),
(202,452,o),
(99,366,o),
(50,220,cs),
(0,71,o),
(46,-16,o),
(174,-16,cs)
);
}
);
width = 507;
},
{
anchors = (
{
name = bottom;
pos = (327,0);
},
{
name = ogonek;
pos = (526,10);
},
{
name = top;
pos = (181,440);
}
);
background = {
shapes = (
{
closed = 1;
nodes = (
(377,-16,o),
(445,56,o),
(445,160,c),
(411,160,l),
(406,73,o),
(354,24,o),
(274,24,cs),
(180,24,o),
(155,95,o),
(155,223,cs),
(155,355,o),
(178,421,o),
(254,421,cs),
(328,421,o),
(340,365,o),
(340,261,c),
(122,261,l),
(122,231,l),
(452,231,l),
(452,363,o),
(387,452,o),
(254,452,cs),
(125,452,o),
(50,366,o),
(50,220,cs),
(50,71,o),
(125,-16,o),
(253,-16,cs)
);
}
);
};
layerId = m003;
shapes = (
{
closed = 1;
nodes = (
(456,-16,o),
(500,56,o),
(465,160,c),
(431,160,l),
(455,73,o),
(419,24,o),
(339,24,cs),
(245,24,o),
(197,95,o),
(154,223,cs),
(110,355,o),
(111,421,o),
(187,421,cs),
(261,421,o),
(292,365,o),
(326,261,c),
(397,261,l),
(108,261,l),
(118,231,l),
(448,231,l),
(404,363,o),
(310,452,o),
(177,452,cs),
(48,452,o),
(1,366,o),
(50,220,cs),
(100,71,o),
(204,-16,o),
(332,-16,cs)
);
}
);
width = 507;
}
);
unicode = 101;
userData = {
com.typemytype.robofont.layerData = {
background = {
anchors = (
);
components = (
);
contours = (
{
points = (
{
segmentType = curve;
smooth = 1;
x = -240;
y = 454;
},
{
smooth = 0;
x = -372;
y = 454;
},
{
smooth = 0;
x = -450;
y = 367;
},
{
segmentType = curve;
smooth = 1;
x = -450;
y = 220;
},
{
smooth = 0;
x = -450;
y = 71;
},
{
smooth = 0;
x = -372;
y = -16;
},
{
segmentType = curve;
smooth = 1;
x = -240;
y = -16;
},
{
smooth = 0;
x = -108;
y = -16;
},
{
smooth = 0;
x = -30;
y = 71;
},
{
segmentType = curve;
smooth = 1;
x = -30;
y = 220;
},
{
smooth = 0;
x = -30;
y = 367;
},
{
smooth = 0;
x = -108;
y = 454;
}
);
},
{
points = (
{
segmentType = curve;
smooth = 1;
x = -240;
y = 423;
},
{
smooth = 0;
x = -160;
y = 423;
},
{
smooth = 0;
x = -135;
y = 353;
},
{
segmentType = curve;
smooth = 1;
x = -135;
y = 220;
},
{
smooth = 0;
x = -135;
y = 87;
},
{
smooth = 0;
x = -160;
y = 17;
},
{
segmentType = curve;
smooth = 1;
x = -240;
y = 17;
},
{
smooth = 0;
x = -320;
y = 17;
},
{
smooth = 0;
x = -345;
y = 87;
},
{
segmentType = curve;
smooth = 1;
x = -345;
y = 220;
},
{
smooth = 0;
x = -345;
y = 353;
},
{
smooth = 0;
x = -320;
y = 423;
}
);
},
{
points = (
{
smooth = 0;
x = 1048;
y = 146;
},
{
smooth = 0;
x = 1024;
y = 149;
},
{
segmentType = curve;
smooth = 0;
x = 1007;
y = 145;
},
{
smooth = 0;
x = 994;
y = 66;
},
{
smooth = 0;
x = 961;
y = 20;
},
{
segmentType = curve;
smooth = 1;
x = 881;
y = 20;
},
{
smooth = 0;
x = 782;
y = 20;
},
{
smooth = 0;
x = 755;
y = 92;
},
{
segmentType = curve;
smooth = 1;
x = 755;
y = 223;
},
{
smooth = 0;
x = 755;
y = 359;
},
{
smooth = 0;
x = 780;
y = 427;
},
{
segmentType = curve;
smooth = 1;
x = 863;
y = 427;
},
{
smooth = 0;
x = 943;
y = 427;
},
{
smooth = 0;
x = 956;
y = 369;
},
{
segmentType = curve;
smooth = 0;
x = 956;
y = 261;
},
{
segmentType = line;
smooth = 0;
x = 722;
y = 261;
},
{
segmentType = line;
smooth = 0;
x = 722;
y = 231;
},
{
segmentType = line;
smooth = 0;
x = 1068;
y = 231;
},
{
smooth = 0;
x = 1068;
y = 377;
},
{
smooth = 0;
x = 1000;
y = 458;
},
{
segmentType = curve;
smooth = 1;
x = 863;
y = 458;
},
{
smooth = 0;
x = 728;
y = 458;
},
{
smooth = 0;
x = 650;
y = 370;
},
{
segmentType = curve;
smooth = 1;
x = 650;
y = 220;
},
{
smooth = 0;
x = 650;
y = 70;
},
{
smooth = 0;
x = 728;
y = -18;
},
{
segmentType = curve;
smooth = 1;
x = 860;
y = -18;
},
{
smooth = 0;
x = 967;
y = -18;
},
{
smooth = 0;
x = 1038;
y = 39;
},
{
segmentType = curve;
smooth = 0;
x = 1061;
y = 140;
}
);
},
{
points = (
{
smooth = 0;
x = 432;
y = 146;
},
{
smooth = 0;
x = 408;
y = 149;
},
{
segmentType = curve;
smooth = 0;
x = 391;
y = 145;
},
{
smooth = 0;
x = 378.02214;
y = 67.13286;
},
{
smooth = 0;
x = 347.73333;
y = 22;
},
{
segmentType = curve;
smooth = 1;
x = 273;
y = 22;
},
{
smooth = 0;
x = 180.43103;
y = 22;
},
{
smooth = 0;
x = 155;
y = 93.50962;
},
{
segmentType = curve;
smooth = 1;
x = 155;
y = 223;
},
{
smooth = 0;
x = 155;
y = 355;
},
{
smooth = 0;
x = 178;
y = 421;
},
{
segmentType = curve;
smooth = 1;
x = 254;
y = 421;
},
{
smooth = 0;
x = 328;
y = 421;
},
{
smooth = 0;
x = 340;
y = 365;
},
{
segmentType = curve;
smooth = 0;
x = 340;
y = 261;
},
{
segmentType = line;
smooth = 0;
x = 122;
y = 261;
},
{
segmentType = line;
smooth = 0;
x = 122;
y = 231;
},
{
segmentType = line;
smooth = 0;
x = 452;
y = 231;
},
{
smooth = 0;
x = 452;
y = 373;
},
{
smooth = 0;
x = 387;
y = 452;
},
{
segmentType = curve;
smooth = 1;
x = 253;
y = 452;
},
{
smooth = 0;
x = 125;
y = 452;
},
{
smooth = 0;
x = 50;
y = 366.21849;
},
{
segmentType = curve;
smooth = 1;
x = 50;
y = 220;
},
{
smooth = 0;
x = 50;
y = 71.2605;
},
{
smooth = 0;
x = 124.74;
y = -16;
},
{
segmentType = curve;
smooth = 1;
x = 252;
y = -16;
},
{
smooth = 0;
x = 354.93333;
y = -16;
},
{
smooth = 0;
x = 422.04578;
y = 40.19905;
},
{
segmentType = curve;
smooth = 0;
x = 445;
y = 140;
}
);
}
);
lib = {
};
name = e;
unicodes = (
);
width = 507;
};
};
com.typemytype.robofont.mark = (
0.9366,
0.9212,
0.4821,
1
);
};
},
{
color = 3;
glyphname = e.ss01;
kernLeft = c;
kernRight = c;
lastChange = "2025-02-16 21:11:20 +0000";
layers = (
{
layerId = "484F8FD9-52EC-47CF-91D8-DA5450121283";
shapes = (
{
closed = 1;
nodes = (
(187,213,o),
(159,249,o),
(159,311,cs),
(159,379,o),
(194,421,o),
(243,421,cs),
(290,421,o),
(326,384,o),
(326,322,cs),
(326,260,o),
(294,213,o),
(236,213,cs)
);
},
{
closed = 1;
nodes = (
(398,-12,o),
(473,40,o),
(557,140,c),
(533,159,l),
(443,54,o),
(384,26,o),
(302,26,cs),
(180,26,o),
(155,112,o),
(155,220,cs),
(155,302,l),
(132,314,l),
(132,235,o),
(175,174,o),
(271,174,cs),
(365,174,o),
(430,224,o),
(430,307,cs),
(430,394,o),
(354,452,o),
(245,452,cs),
(126,452,o),
(50,372,o),
(50,220,cs),
(50,74,o),
(128,-12,o),
(273,-12,cs)
);
}
);
width = 482;
},
{
layerId = m002;
shapes = (
{
closed = 1;
nodes = (
(185,213,o),
(169,249,o),
(189,311,cs),
(212,379,o),
(261,421,o),
(310,421,cs),
(357,421,o),
(381,384,o),
(360,322,cs),
(339,260,o),
(292,213,o),
(234,213,cs)
);
},
{
closed = 1;
nodes = (
(321,-12,o),
(413,40,o),
(530,140,c),
(513,159,l),
(388,54,o),
(319,26,o),
(237,26,cs),
(115,26,o),
(119,112,o),
(155,220,cs),
(182,302,l),
(163,314,l),
(137,235,o),
(160,174,o),
(256,174,cs),
(350,174,o),
(431,224,o),
(459,307,cs),
(488,394,o),
(431,452,o),
(322,452,cs),
(203,452,o),
(101,372,o),
(50,220,cs),
(1,74,o),
(51,-12,o),
(196,-12,cs)
);
}
);
width = 482;
},
{
layerId = m003;
shapes = (
{
closed = 1;
nodes = (
(189,213,o),
(149,249,o),
(129,311,cs),
(106,379,o),
(127,421,o),
(176,421,cs),
(223,421,o),
(271,384,o),
(292,322,cs),
(313,260,o),
(296,213,o),
(238,213,cs)
);
},
{
closed = 1;
nodes = (
(475,-12,o),
(533,40,o),
(584,140,c),
(553,159,l),
(498,54,o),
(449,26,o),
(367,26,cs),
(245,26,o),
(191,112,o),
(155,220,cs),
(128,302,l),
(101,314,l),
(127,235,o),
(190,174,o),
(286,174,cs),
(380,174,o),
(429,224,o),
(401,307,cs),
(372,394,o),
(277,452,o),
(168,452,cs),
(49,452,o),
(-1,372,o),
(50,220,cs),
(99,74,o),
(205,-12,o),
(350,-12,cs)
);
}
);
width = 482;
}
);
userData = {
com.typemytype.robofont.layerData = {
background = {
anchors = (
);
components = (
);
contours = (
);
lib = {
};
name = e;
unicodes = (
);
width = 482;
};
};
com.typemytype.robofont.mark = (
0.4827,
0.8546,
0.4678,
1
);
};
},
{
color = 7;
glyphname = f;
kernLeft = f;
kernRight = f;
lastChange = "2025-02-16 21:20:30 +0000";
layers = (
{
background = {
shapes = (
{
closed = 1;
nodes = (
(280,408,l),
(286,416,o),
(286,432,o),
(280,440,c),
(25,440,l),
(19,432,o),
(19,416,o),
(25,408,c)
);
}
);
};
layerId = "484F8FD9-52EC-47CF-91D8-DA5450121283";
shapes = (
{
closed = 1;
nodes = (
(280,408,l),
(286,416,o),
(286,432,o),
(280,440,c),
(25,440,l),
(19,432,o),
(19,416,o),
(25,408,c)
);
},
{
pos = (10,0);
ref = longs;
}
);
width = 325;
},
{
background = {
shapes = (
{
closed = 1;
nodes = (
(343,408,l),
(353,440,l),
(98,440,l),
(88,408,l)
);
}
);
};
layerId = m002;
shapes = (
{
closed = 1;
nodes = (
(347,408,l),
(353,416,o),
(353,432,o),
(347,440,c),
(92,440,l),
(86,432,o),
(86,416,o),
(92,408,c)
);
},
{
pos = (10,0);
ref = longs;
}
);
width = 325;
},
{
background = {
shapes = (
{
closed = 1;
nodes = (
(217,408,l),
(207,440,l),
(-48,440,l),
(-38,408,l)
);
}
);
};
layerId = m003;
shapes = (
{
closed = 1;
nodes = (
(212,408,l),
(218,416,o),
(218,432,o),
(212,440,c),
(-43,440,l),
(-49,432,o),
(-49,416,o),
(-43,408,c)
);
},
{
pos = (10,0);
ref = longs;
}
);
width = 325;
}
);
unicode = 102;
userData = {
com.typemytype.robofont.guides = (
);
com.typemytype.robofont.layerData = {
background = {
anchors = (
);
components = (
);
contours = (
);
lib = {
};
name = f;
unicodes = (
);
width = 325;
};
};
com.typemytype.robofont.mark = (
0.3692,
0.5456,
0.891,
1
);
};
},
{
color = 3;
glyphname = f.ss01;
kernLeft = f;
kernRight = f;
lastChange = "2025-02-16 21:21:36 +0000";
layers = (
{
background = {
shapes = (
{
closed = 1;
nodes = (
(285,408,l),
(291,416,o),
(291,432,o),
(285,440,c),
(10,440,l),
(4,432,o),
(4,416,o),
(10,408,c)
);
}
);
};
layerId = "484F8FD9-52EC-47CF-91D8-DA5450121283";
shapes = (
{
closed = 1;
nodes = (
(285,408,l),
(291,416,o),
(291,432,o),
(285,440,c),
(10,440,l),
(4,432,o),
(4,416,o),
(10,408,c)
);
},
{
pos = (5,0);
ref = longs.ss01;
}
);
width = 310;
},
{
background = {
shapes = (
{
closed = 1;
nodes = (
(353,408,l),
(359,416,o),
(359,432,o),
(353,440,c),
(78,440,l),
(72,432,o),
(72,416,o),
(78,408,c)
);
}
);
};
layerId = m002;
shapes = (
{
closed = 1;
nodes = (
(353,408,l),
(359,416,o),
(359,432,o),
(353,440,c),
(78,440,l),
(72,432,o),
(72,416,o),
(78,408,c)
);
},
{
ref = longs.ss01;
}
);
width = 310;
},
{
background = {
shapes = (
{
closed = 1;
nodes = (
(217,408,l),
(223,416,o),
(223,432,o),
(217,440,c),
(-58,440,l),
(-64,432,o),
(-64,416,o),
(-58,408,c)
);
}
);
};
layerId = m003;
shapes = (
{
closed = 1;
nodes = (
(217,408,l),
(223,416,o),
(223,432,o),
(217,440,c),
(-58,440,l),
(-64,432,o),
(-64,416,o),
(-58,408,c)
);
},
{
pos = (5,0);
ref = longs.ss01;
}
);
width = 310;
}
);
userData = {
com.typemytype.robofont.guides = (
);
com.typemytype.robofont.layerData = {
background = {
anchors = (
);
components = (
);
contours = (
);
lib = {
};
name = f;
unicodes = (
);
width = 310;
};
};
com.typemytype.robofont.mark = (
0.3692,
0.5456,
0.891,
1
);
};
},
{
glyphname = g;
lastChange = "2025-02-16 21:11:34 +0000";
layers = (
{
background = {
shapes = (
{
closed = 1;
nodes = (
(378,388,o),
(334,448,o),
(230,448,cs),
(125,448,o),
(50,368,o),
(50,220,cs),
(50,72,o),
(125,-8,o),
(230,-8,cs),
(334,-8,o),
(378,45,o),
(378,220,cs)
);
},
{
closed = 1;
nodes = (
(191,26,o),
(155,79,o),
(155,220,cs),
(155,361,o),
(191,414,o),
(250,414,cs),
(303,414,o),
(353,380,o),
(353,220,cs),
(353,60,o),
(303,26,o),
(250,26,cs)
);
},
{
closed = 1;
nodes = (
(356,332,l),
(366,220,l),
(350,99,l),
(350,-102,ls),
(350,-200,o),
(312,-240,o),
(250,-240,cs),
(218,-240,o),
(194,-221,o),
(194,-190,cs),
(194,-168,o),
(207,-160,o),
(207,-131,cs),
(207,-94,o),
(180,-67,o),
(140,-67,cs),
(101,-67,o),
(73,-96,o),
(73,-142,cs),
(73,-215,o),
(142,-272,o),
(258,-272,cs),
(381,-272,o),
(450,-203,o),
(450,-98,cs),
(450,440,l),
(356,440,l)
);
}
);
};
layerId = "484F8FD9-52EC-47CF-91D8-DA5450121283";
shapes = (
{
closed = 1;
nodes = (
(265,-10,l),
(265,15,l),
(137,15,l),
(135,-10,l)
);
},
{
closed = 1;
nodes = (
(436,-275,o),
(497,-169,o),
(497,-83,cs),
(497,-7,o),
(452,52,o),
(367,66,cs),
(324,73,o),
(262,76,o),
(222,77,cs),
(166,79,o),
(143,92,o),
(143,118,cs),
(143,150,o),
(174,163,o),
(257,165,cs),
(382,168,o),
(462,222,o),
(462,310,cs),
(462,394,o),
(382,450,o),
(257,450,cs),
(131,450,o),
(53,394,o),
(53,310,cs),
(53,229,o),
(125,174,o),
(242,174,c),
(242,191,l),
(117,191,o),
(74,140,o),
(74,90,cs),
(74,30,o),
(129,-1,o),
(175,-7,c),
(258,14,l),
(92,14,o),
(28,-42,o),
(28,-114,cs),
(28,-188,o),
(108,-275,o),
(257,-275,cs)
);
},
{
closed = 1;
nodes = (
(146,-225,o),
(64,-177,o),
(64,-113,cs),
(64,-57,o),
(118,-13,o),
(257,-13,cs),
(412,-13,o),
(448,-63,o),
(448,-110,cs),
(448,-177,o),
(366,-225,o),
(257,-225,cs)
);
},
{
closed = 1;
nodes = (
(200,196,o),
(158,239,o),
(158,310,cs),
(158,380,o),
(200,420,o),
(257,420,cs),
(314,420,o),
(357,380,o),
(357,310,cs),
(357,239,o),
(314,196,o),
(257,196,cs)
);
},
{
closed = 1;
nodes = (
(273,435,l),
(273,521,ls),
(273,565,o),
(284,581,o),
(302,581,cs),
(314,581,o),
(318,574,o),
(318,566,cs),
(318,560,o),
(316,549,o),
(316,542,cs),
(316,515,o),
(338,495,o),
(368,495,cs),
(403,495,o),
(428,522,o),
(428,558,cs),
(428,603,o),
(391,635,o),
(340,635,cs),
(270,635,o),
(241,588,o),
(241,525,cs),
(241,435,l)
);
},
{
closed = 1;
nodes = (
(248,170,l),
(248,195,l),
(159,195,l),
(159,170,l)
);
}
);
width = 527;
},
{
background = {
shapes = (
{
closed = 1;
nodes = (
(378,388,o),
(334,448,o),
(230,448,cs),
(125,448,o),
(50,368,o),
(50,220,cs),
(50,72,o),
(125,-8,o),
(230,-8,cs),
(334,-8,o),
(378,45,o),
(378,220,cs)
);
},
{
closed = 1;
nodes = (
(191,26,o),
(155,79,o),
(155,220,cs),
(155,361,o),
(191,414,o),
(250,414,cs),
(303,414,o),
(353,380,o),
(353,220,cs),
(353,60,o),
(303,26,o),
(250,26,cs)
);
},
{
closed = 1;
nodes = (
(356,332,l),
(366,220,l),
(350,99,l),
(350,-102,ls),
(350,-200,o),
(312,-240,o),
(250,-240,cs),
(218,-240,o),
(194,-221,o),
(194,-190,cs),
(194,-168,o),
(207,-160,o),
(207,-131,cs),
(207,-94,o),
(180,-67,o),
(140,-67,cs),
(101,-67,o),
(73,-96,o),
(73,-142,cs),
(73,-215,o),
(142,-272,o),
(258,-272,cs),
(381,-272,o),
(450,-203,o),
(450,-98,cs),
(450,440,l),
(356,440,l)
);
}
);
};
layerId = m002;
shapes = (
{
closed = 1;
nodes = (
(188,-10,l),
(197,15,l),
(69,15,l),
(58,-10,l)
);
},
{
closed = 1;
nodes = (
(271,-275,o),
(367,-169,o),
(396,-83,cs),
(421,-7,o),
(396,52,o),
(316,66,cs),
(275,73,o),
(214,76,o),
(174,77,cs),
(119,79,o),
(100,92,o),
(109,118,cs),
(120,150,o),
(155,163,o),
(239,165,cs),
(365,168,o),
(463,222,o),
(492,310,cs),
(520,394,o),
(459,450,o),
(334,450,cs),
(208,450,o),
(111,394,o),
(83,310,cs),
(56,229,o),
(110,174,o),
(227,174,c),
(232,191,l),
(107,191,o),
(47,140,o),
(31,90,cs),
(11,30,o),
(55,-1,o),
(99,-7,c),
(189,14,l),
(23,14,o),
(-59,-42,o),
(-83,-114,cs),
(-108,-188,o),
(-57,-275,o),
(92,-275,cs)
);
},
{
closed = 1;
nodes = (
(-2,-225,o),
(-68,-177,o),
(-47,-113,cs),
(-28,-57,o),
(40,-13,o),
(179,-13,cs),
(334,-13,o),
(354,-63,o),
(338,-110,cs),
(316,-177,o),
(218,-225,o),
(109,-225,cs)
);
},
{
closed = 1;
nodes = (
(192,196,o),
(164,239,o),
(188,310,cs),
(211,380,o),
(267,420,o),
(324,420,cs),
(381,420,o),
(410,380,o),
(387,310,cs),
(363,239,o),
(306,196,o),
(249,196,cs)
);
},
{
closed = 1;
nodes = (
(345,435,l),
(373,521,ls),
(388,565,o),
(404,581,o),
(422,581,cs),
(434,581,o),
(436,574,o),
(433,566,cs),
(431,560,o),
(426,549,o),
(423,542,cs),
(414,515,o),
(430,495,o),
(460,495,cs),
(495,495,o),
(529,522,o),
(541,558,cs),
(556,603,o),
(529,635,o),
(478,635,cs),
(408,635,o),
(364,588,o),
(343,525,cs),
(313,435,l)
);
},
{
closed = 1;
nodes = (
(231,170,l),
(240,195,l),
(151,195,l),
(142,170,l)
);
}
);
width = 527;
},
{
background = {
shapes = (
{
closed = 1;
nodes = (
(378,388,o),
(334,448,o),
(230,448,cs),
(125,448,o),
(50,368,o),
(50,220,cs),
(50,72,o),
(125,-8,o),
(230,-8,cs),
(334,-8,o),
(378,45,o),
(378,220,cs)
);
},
{
closed = 1;
nodes = (
(191,26,o),
(155,79,o),
(155,220,cs),
(155,361,o),
(191,414,o),
(250,414,cs),
(303,414,o),
(353,380,o),
(353,220,cs),
(353,60,o),
(303,26,o),
(250,26,cs)
);
},
{
closed = 1;
nodes = (
(356,332,l),
(366,220,l),
(350,99,l),
(350,-102,ls),
(350,-200,o),
(312,-240,o),
(250,-240,cs),
(218,-240,o),
(194,-221,o),
(194,-190,cs),
(194,-168,o),
(207,-160,o),
(207,-131,cs),
(207,-94,o),
(180,-67,o),
(140,-67,cs),
(101,-67,o),
(73,-96,o),
(73,-142,cs),
(73,-215,o),
(142,-272,o),
(258,-272,cs),
(381,-272,o),
(450,-203,o),
(450,-98,cs),
(450,440,l),
(356,440,l)
);
}
);
};
layerId = m003;
shapes = (
{
closed = 1;
nodes = (
(342,-10,l),
(333,15,l),
(205,15,l),
(212,-10,l)
);
},
{
closed = 1;
nodes = (
(601,-275,o),
(627,-169,o),
(598,-83,cs),
(573,-7,o),
(508,52,o),
(418,66,cs),
(373,73,o),
(310,76,o),
(270,77,cs),
(213,79,o),
(186,92,o),
(177,118,cs),
(166,150,o),
(193,163,o),
(275,165,cs),
(399,168,o),
(461,222,o),
(432,310,cs),
(404,394,o),
(305,450,o),
(180,450,cs),
(54,450,o),
(-5,394,o),
(23,310,cs),
(50,229,o),
(140,174,o),
(257,174,c),
(252,191,l),
(127,191,o),
(101,140,o),
(117,90,cs),
(137,30,o),
(203,-1,o),
(251,-7,c),
(327,14,l),
(161,14,o),
(115,-42,o),
(139,-114,cs),
(164,-188,o),
(273,-275,o),
(422,-275,cs)
);
},
{
closed = 1;
nodes = (
(294,-225,o),
(196,-177,o),
(175,-113,cs),
(156,-57,o),
(196,-13,o),
(335,-13,cs),
(490,-13,o),
(542,-63,o),
(558,-110,cs),
(580,-177,o),
(514,-225,o),
(405,-225,cs)
);
},
{
closed = 1;
nodes = (
(208,196,o),
(152,239,o),
(128,310,cs),
(105,380,o),
(133,420,o),
(190,420,cs),
(247,420,o),
(304,380,o),
(327,310,cs),
(351,239,o),
(322,196,o),
(265,196,cs)
);
},
{
closed = 1;
nodes = (
(201,435,l),
(173,521,ls),
(158,565,o),
(164,581,o),
(182,581,cs),
(194,581,o),
(200,574,o),
(203,566,cs),
(205,560,o),
(206,549,o),
(209,542,cs),
(218,515,o),
(246,495,o),
(276,495,cs),
(311,495,o),
(327,522,o),
(315,558,cs),
(300,603,o),
(253,635,o),
(202,635,cs),
(132,635,o),
(118,588,o),
(139,525,cs),
(169,435,l)
);
},
{
closed = 1;
nodes = (
(265,170,l),
(256,195,l),
(167,195,l),
(176,170,l)
);
}
);
width = 527;
}
);
unicode = 103;
userData = {
com.typemytype.robofont.guides = (
);
com.typemytype.robofont.layerData = {
background = {
anchors = (
);
components = (
);
contours = (
{
points = (
{
segmentType = curve;
smooth = 1;
x = 257;
y = -275;
},
{
smooth = 0;
x = 436.4958;
y = -275;
},
{
smooth = 0;
x = 497;
y = -169;
},
{
segmentType = curve;
smooth = 1;
x = 497;
y = -83;
},
{
smooth = 0;
x = 497;
y = -7;
},
{
smooth = 0;
x = 452;
y = 52;
},
{
segmentType = curve;
smooth = 1;
x = 367;
y = 66;
},
{
smooth = 0;
x = 324;
y = 73;
},
{
smooth = 0;
x = 262.12526;
y = 76.02134;
},
{
segmentType = curve;
smooth = 1;
x = 222;
y = 77;
},
{
smooth = 0;
x = 166;
y = 79;
},
{
smooth = 0;
x = 143;
y = 92;
},
{
segmentType = curve;
smooth = 1;
x = 143;
y = 118;
},
{
smooth = 0;
x = 143;
y = 150;
},
{
smooth = 0;
x = 174;
y = 163;
},
{
segmentType = curve;
smooth = 1;
x = 257;
y = 165;
},
{
smooth = 0;
x = 382.3887;
y = 167.98545;
},
{
smooth = 0;
x = 462;
y = 222;
},
{
segmentType = curve;
smooth = 1;
x = 462;
y = 310;
},
{
smooth = 0;
x = 462;
y = 394;
},
{
smooth = 0;
x = 382.38835;
y = 450;
},
{
segmentType = curve;
smooth = 1;
x = 257;
y = 450;
},
{
smooth = 0;
x = 131;
y = 450;
},
{
smooth = 0;
x = 53;
y = 394;
},
{
segmentType = curve;
smooth = 1;
x = 53;
y = 310;
},
{
smooth = 0;
x = 53;
y = 229;
},
{
smooth = 0;
x = 125;
y = 174;
},
{
segmentType = curve;
smooth = 0;
x = 242;
y = 174;
},
{
segmentType = line;
smooth = 0;
x = 242;
y = 191;
},
{
smooth = 0;
x = 117;
y = 191;
},
{
smooth = 0;
x = 74;
y = 139.52885;
},
{
segmentType = curve;
smooth = 1;
x = 74;
y = 90;
},
{
smooth = 0;
x = 74;
y = 30;
},
{
smooth = 0;
x = 129;
y = -1;
},
{
segmentType = curve;
smooth = 0;
x = 175;
y = -7;
},
{
segmentType = line;
smooth = 0;
x = 258;
y = 14;
},
{
smooth = 0;
x = 92;
y = 14;
},
{
smooth = 0;
x = 28;
y = -42;
},
{
segmentType = curve;
smooth = 1;
x = 28;
y = -114;
},
{
smooth = 0;
x = 28;
y = -188;
},
{
smooth = 0;
x = 107.95259;
y = -275;
}
);
},
{
points = (
{
segmentType = line;
smooth = 0;
x = 242;
y = 335;
},
{
segmentType = line;
smooth = 0;
x = 274;
y = 335;
},
{
segmentType = line;
smooth = 1;
x = 274;
y = 521;
},
{
smooth = 0;
x = 274;
y = 565;
},
{
smooth = 0;
x = 284.63333;
y = 581;
},
{
segmentType = curve;
smooth = 1;
x = 303;
y = 581;
},
{
smooth = 0;
x = 326;
y = 581;
},
{
smooth = 0;
x = 317;
y = 557;
},
{
segmentType = curve;
smooth = 1;
x = 317;
y = 542;
},
{
smooth = 0;
x = 317;
y = 515;
},
{
smooth = 0;
x = 339;
y = 495;
},
{
segmentType = curve;
smooth = 1;
x = 369;
y = 495;
},
{
smooth = 0;
x = 404;
y = 495;
},
{
smooth = 0;
x = 429;
y = 522;
},
{
segmentType = curve;
smooth = 1;
x = 429;
y = 558;
},
{
smooth = 0;
x = 429;
y = 603;
},
{
smooth = 0;
x = 392;
y = 635;
},
{
segmentType = curve;
smooth = 1;
x = 341;
y = 635;
},
{
smooth = 0;
x = 271.29592;
y = 635;
},
{
smooth = 0;
x = 242;
y = 588;
},
{
segmentType = curve;
smooth = 1;
x = 242;
y = 525;
}
);
},
{
points = (
{
segmentType = line;
smooth = 0;
x = 135;
y = -10;
},
{
segmentType = line;
smooth = 0;
x = 265;
y = -10;
},
{
segmentType = line;
smooth = 0;
x = 265;
y = 15;
},
{
segmentType = line;
smooth = 0;
x = 137;
y = 15;
}
);
},
{
points = (
{
segmentType = line;
smooth = 0;
x = 159;
y = 170;
},
{
segmentType = line;
smooth = 0;
x = 248;
y = 170;
},
{
segmentType = line;
smooth = 0;
x = 248;
y = 195;
},
{
segmentType = line;
smooth = 0;
x = 159;
y = 195;
}
);
},
{
points = (
{
segmentType = curve;
smooth = 1;
x = 257;
y = -13;
},
{
smooth = 0;
x = 412;
y = -13;
},
{
smooth = 0;
x = 448;
y = -63;
},
{
segmentType = curve;
smooth = 1;
x = 448;
y = -110;
},
{
smooth = 0;
x = 448;
y = -177;
},
{
smooth = 0;
x = 365.72308;
y = -225;
},
{
segmentType = curve;
smooth = 1;
x = 257;
y = -225;
},
{
smooth = 0;
x = 146;
y = -225;
},
{
smooth = 0;
x = 64;
y = -177;
},
{
segmentType = curve;
smooth = 1;
x = 64;
y = -113;
},
{
smooth = 0;
x = 64;
y = -57;
},
{
smooth = 0;
x = 118;
y = -13;
}
);
},
{
points = (
{
segmentType = curve;
smooth = 1;
x = 257;
y = 420;
},
{
smooth = 0;
x = 314;
y = 420;
},
{
smooth = 0;
x = 357;
y = 380;
},
{
segmentType = curve;
smooth = 1;
x = 357;
y = 310;
},
{
smooth = 0;
x = 357;
y = 239;
},
{
smooth = 0;
x = 314;
y = 196;
},
{
segmentType = curve;
smooth = 1;
x = 257;
y = 196;
},
{
smooth = 0;
x = 200;
y = 196;
},
{
smooth = 0;
x = 158;
y = 239;
},
{
segmentType = curve;
smooth = 1;
x = 158;
y = 310;
},
{
smooth = 0;
x = 158;
y = 380;
},
{
smooth = 0;
x = 200;
y = 420;
}
);
}
);
lib = {
};
name = g;
unicodes = (
);
width = 527;
};
};
com.typemytype.robofont.mark = (
0.9366,
0.9212,
0.4821,
1
);
};
},
{
color = 3;
glyphname = g.ss01;
kernRight = g;
lastChange = "2025-02-16 21:11:38 +0000";
layers = (
{
layerId = "484F8FD9-52EC-47CF-91D8-DA5450121283";
shapes = (
{
closed = 1;
nodes = (
(378,388,o),
(334,448,o),
(230,448,cs),
(125,448,o),
(50,368,o),
(50,220,cs),
(50,72,o),
(125,-8,o),
(230,-8,cs),
(334,-8,o),
(378,45,o),
(378,220,cs)
);
},
{
closed = 1;
nodes = (
(191,26,o),
(155,79,o),
(155,220,cs),
(155,361,o),
(191,414,o),
(250,414,cs),
(303,414,o),
(353,380,o),
(353,220,cs),
(353,60,o),
(303,26,o),
(250,26,cs)
);
},
{
closed = 1;
nodes = (
(356,332,l),
(366,220,l),
(350,99,l),
(350,-110,ls),
(350,-208,o),
(312,-248,o),
(250,-248,cs),
(218,-248,o),
(194,-229,o),
(194,-198,cs),
(194,-176,o),
(207,-168,o),
(207,-139,cs),
(207,-102,o),
(180,-75,o),
(140,-75,cs),
(101,-75,o),
(73,-104,o),
(73,-150,cs),
(73,-223,o),
(142,-280,o),
(258,-280,cs),
(381,-280,o),
(450,-211,o),
(450,-106,cs),
(450,440,l),
(356,440,l)
);
}
);
width = 535;
},
{
layerId = m002;
shapes = (
{
closed = 1;
nodes = (
(434,388,o),
(410,448,o),
(306,448,cs),
(201,448,o),
(99,368,o),
(50,220,cs),
(1,72,o),
(49,-8,o),
(154,-8,cs),
(258,-8,o),
(320,45,o),
(378,220,cs)
);
},
{
closed = 1;
nodes = (
(126,26,o),
(108,79,o),
(155,220,cs),
(202,361,o),
(256,414,o),
(315,414,cs),
(368,414,o),
(406,380,o),
(353,220,cs),
(300,60,o),
(238,26,o),
(185,26,cs)
);
},
{
closed = 1;
nodes = (
(393,332,l),
(366,220,l),
(310,99,l),
(240,-110,ls),
(207,-208,o),
(156,-248,o),
(94,-248,cs),
(62,-248,o),
(44,-229,o),
(55,-198,cs),
(62,-176,o),
(78,-168,o),
(87,-139,cs),
(100,-102,o),
(82,-75,o),
(42,-75,cs),
(3,-75,o),
(-35,-104,o),
(-50,-150,cs),
(-75,-223,o),
(-25,-280,o),
(91,-280,cs),
(214,-280,o),
(306,-211,o),
(341,-106,cs),
(523,440,l),
(429,440,l)
);
}
);
width = 535;
},
{
layerId = m003;
shapes = (
{
closed = 1;
nodes = (
(322,388,o),
(258,448,o),
(154,448,cs),
(49,448,o),
(1,368,o),
(50,220,cs),
(99,72,o),
(201,-8,o),
(306,-8,cs),
(410,-8,o),
(436,45,o),
(378,220,cs)
);
},
{
closed = 1;
nodes = (
(256,26,o),
(202,79,o),
(155,220,cs),
(108,361,o),
(126,414,o),
(185,414,cs),
(238,414,o),
(300,380,o),
(353,220,cs),
(406,60,o),
(368,26,o),
(315,26,cs)
);
},
{
closed = 1;
nodes = (
(319,332,l),
(366,220,l),
(390,99,l),
(460,-110,ls),
(493,-208,o),
(468,-248,o),
(406,-248,cs),
(374,-248,o),
(344,-229,o),
(333,-198,cs),
(326,-176,o),
(336,-168,o),
(327,-139,cs),
(314,-102,o),
(278,-75,o),
(238,-75,cs),
(199,-75,o),
(181,-104,o),
(196,-150,cs),
(221,-223,o),
(309,-280,o),
(425,-280,cs),
(548,-280,o),
(594,-211,o),
(559,-106,cs),
(377,440,l),
(283,440,l)
);
}
);
width = 535;
}
);
userData = {
com.typemytype.robofont.guides = (
);
com.typemytype.robofont.layerData = {
background = {
anchors = (
);
components = (
);
contours = (
);
lib = {
};
name = g;
unicodes = (
);
width = 535;
};
};
com.typemytype.robofont.mark = (
0.4827,
0.8546,
0.4678,
1
);
};
},
{
glyphname = h;
kernLeft = h;
kernRight = a;
lastChange = "2025-02-16 21:11:40 +0000";
layers = (
{
background = {
shapes = (
{
closed = 1;
nodes = (
(280,0,l),
(280,30,l),
(235,30,ls),
(205,30,o),
(195,44,o),
(195,68,cs),
(195,266,ls),
(195,365,o),
(232,414,o),
(290,414,cs),
(348,414,o),
(367,383,o),
(367,314,cs),
(367,68,l),
(367,55,o),
(367,43,o),
(367,30,c),
(367,30,l),
(367,0,l),
(552,0,l),
(552,30,l),
(510,30,ls),
(479,30,o),
(467,44,o),
(467,68,cs),
(467,316,ls),
(467,400,o),
(423,450,o),
(319,450,cs),
(248,450,o),
(177,418,o),
(177,306,c),
(195,306,l),
(195,670,l),
(5,670,l),
(5,640,l),
(52,640,ls),
(84,640,o),
(95,625,o),
(95,597,cs),
(95,68,ls),
(95,44,o),
(85,30,o),
(58,30,cs),
(10,30,l),
(10,0,l)
);
}
);
};
hints = (
{
name = _corner.serif.lc;
origin = (0,20);
type = Corner;
},
{
name = _corner.serif.lc;
options = 1;
origin = (0,0);
scale = (1,-1);
type = Corner;
},
{
name = _corner.serif.lc;
options = 1;
origin = (0,19);
scale = (1,-1);
type = Corner;
},
{
name = _corner.serif.lc;
options = 1;
origin = (0,9);
scale = (1,-1);
type = Corner;
}
);
layerId = "484F8FD9-52EC-47CF-91D8-DA5450121283";
shapes = (
{
closed = 1;
nodes = (
(195,0,l),
(195,266,ls),
(195,365,o),
(232,414,o),
(290,414,cs),
(348,414,o),
(367,383,o),
(367,314,cs),
(367,0,l),
(467,0,l),
(467,316,ls),
(467,400,o),
(423,450,o),
(319,450,cs),
(248,450,o),
(177,418,o),
(177,306,c),
(195,306,l),
(195,670,l),
(95,670,l),
(95,0,l)
);
}
);
width = 557;
},
{
background = {
shapes = (
{
closed = 1;
nodes = (
(280,0,l),
(280,30,l),
(235,30,ls),
(205,30,o),
(195,44,o),
(195,68,cs),
(195,266,ls),
(195,365,o),
(232,414,o),
(290,414,cs),
(348,414,o),
(367,383,o),
(367,314,cs),
(367,68,l),
(367,55,o),
(367,43,o),
(367,30,c),
(367,30,l),
(367,0,l),
(552,0,l),
(552,30,l),
(510,30,ls),
(479,30,o),
(467,44,o),
(467,68,cs),
(467,316,ls),
(467,400,o),
(423,450,o),
(319,450,cs),
(248,450,o),
(177,418,o),
(177,306,c),
(195,306,l),
(195,670,l),
(5,670,l),
(5,640,l),
(52,640,ls),
(84,640,o),
(95,625,o),
(95,597,cs),
(95,68,ls),
(95,44,o),
(85,30,o),
(58,30,cs),
(10,30,l),
(10,0,l)
);
}
);
};
hints = (
{
name = _corner.serif.lc;
origin = (0,20);
type = Corner;
},
{
name = _corner.serif.lc;
options = 1;
origin = (0,0);
scale = (1,-1);
type = Corner;
},
{
name = _corner.serif.lc;
options = 1;
origin = (0,19);
scale = (1,-1);
type = Corner;
},
{
name = _corner.serif.lc;
options = 1;
origin = (0,9);
scale = (1,-1);
type = Corner;
}
);
layerId = m002;
shapes = (
{
closed = 1;
nodes = (
(122,0,l),
(210,266,ls),
(243,365,o),
(297,414,o),
(355,414,cs),
(413,414,o),
(421,383,o),
(398,314,cs),
(294,0,l),
(394,0,l),
(499,316,ls),
(527,400,o),
(500,450,o),
(396,450,cs),
(325,450,o),
(243,418,o),
(206,306,c),
(224,306,l),
(345,670,l),
(245,670,l),
(22,0,l)
);
}
);
width = 557;
},
{
background = {
shapes = (
{
closed = 1;
nodes = (
(280,0,l),
(280,30,l),
(235,30,ls),
(205,30,o),
(195,44,o),
(195,68,cs),
(195,266,ls),
(195,365,o),
(232,414,o),
(290,414,cs),
(348,414,o),
(367,383,o),
(367,314,cs),
(367,68,l),
(367,55,o),
(367,43,o),
(367,30,c),
(367,30,l),
(367,0,l),
(552,0,l),
(552,30,l),
(510,30,ls),
(479,30,o),
(467,44,o),
(467,68,cs),
(467,316,ls),
(467,400,o),
(423,450,o),
(319,450,cs),
(248,450,o),
(177,418,o),
(177,306,c),
(195,306,l),
(195,670,l),
(5,670,l),
(5,640,l),
(52,640,ls),
(84,640,o),
(95,625,o),
(95,597,cs),
(95,68,ls),
(95,44,o),
(85,30,o),
(58,30,cs),
(10,30,l),
(10,0,l)
);
}
);
};
hints = (
{
name = _corner.serif.lc;
origin = (0,20);
type = Corner;
},
{
name = _corner.serif.lc;
options = 1;
origin = (0,0);
scale = (1,-1);
type = Corner;
},
{
name = _corner.serif.lc;
options = 1;
origin = (0,19);
scale = (1,-1);
type = Corner;
},
{
name = _corner.serif.lc;
options = 1;
origin = (0,9);
scale = (1,-1);
type = Corner;
}
);
layerId = m003;
shapes = (
{
closed = 1;
nodes = (
(268,0,l),
(180,266,ls),
(147,365,o),
(167,414,o),
(225,414,cs),
(283,414,o),
(313,383,o),
(336,314,cs),
(440,0,l),
(540,0,l),
(435,316,ls),
(407,400,o),
(346,450,o),
(242,450,cs),
(171,450,o),
(111,418,o),
(148,306,c),
(166,306,l),
(45,670,l),
(-55,670,l),
(168,0,l)
);
}
);
width = 557;
}
);
metricLeft = n;
metricRight = n;
unicode = 104;
userData = {
com.typemytype.robofont.layerData = {
background = {
anchors = (
);
components = (
);
contours = (
{
points = (
{
segmentType = line;
smooth = 0;
x = 190;
y = 670;
},
{
segmentType = line;
smooth = 0;
x = -1;
y = 670;
},
{
segmentType = line;
smooth = 0;
x = -1;
y = 640;
},
{
segmentType = line;
smooth = 1;
x = 47;
y = 640;
},
{
smooth = 0;
x = 79;
y = 640;
},
{
smooth = 0;
x = 90;
y = 625;
},
{
segmentType = curve;
smooth = 1;
x = 90;
y = 597;
},
{
segmentType = line;
smooth = 1;
x = 90;
y = 68;
},
{
smooth = 0;
x = 90;
y = 44;
},
{
smooth = 0;
x = 80;
y = 30;
},
{
segmentType = curve;
smooth = 1;
x = 53;
y = 30;
},
{
segmentType = line;
smooth = 0;
x = 6;
y = 30;
},
{
segmentType = line;
smooth = 0;
x = 6;
y = 0;
},
{
segmentType = line;
smooth = 0;
x = 275;
y = 0;
},
{
segmentType = line;
smooth = 0;
x = 275;
y = 30;
},
{
segmentType = line;
smooth = 1;
x = 230;
y = 30;
},
{
smooth = 0;
x = 200;
y = 30;
},
{
smooth = 0;
x = 190;
y = 44;
},
{
segmentType = curve;
smooth = 1;
x = 190;
y = 68;
},
{
segmentType = line;
smooth = 1;
x = 190;
y = 266;
},
{
smooth = 0;
x = 190;
y = 370;
},
{
smooth = 0;
x = 224;
y = 422;
},
{
segmentType = curve;
smooth = 1;
x = 286;
y = 422;
},
{
smooth = 0;
x = 344;
y = 422;
},
{
smooth = 0;
x = 362;
y = 391;
},
{
segmentType = curve;
smooth = 1;
x = 362;
y = 327;
},
{
segmentType = line;
smooth = 0;
x = 362;
y = 0;
},
{
segmentType = line;
smooth = 0;
x = 552;
y = 0;
},
{
segmentType = line;
smooth = 0;
x = 552;
y = 30;
},
{
segmentType = line;
smooth = 1;
x = 505;
y = 30;
},
{
smooth = 0;
x = 474;
y = 30;
},
{
smooth = 0;
x = 462;
y = 44;
},
{
segmentType = curve;
smooth = 1;
x = 462;
y = 68;
},
{
segmentType = line;
smooth = 1;
x = 462;
y = 328;
},
{
smooth = 0;
x = 462;
y = 409;
},
{
smooth = 0;
x = 418;
y = 458;
},
{
segmentType = curve;
smooth = 1;
x = 314;
y = 458;
},
{
smooth = 0;
x = 243;
y = 458;
},
{
smooth = 0;
x = 171;
y = 427;
},
{
segmentType = curve;
smooth = 0;
x = 171;
y = 306;
},
{
segmentType = line;
smooth = 0;
x = 190;
y = 306;
}
);
}
);
lib = {
};
name = h;
unicodes = (
);
width = 552;
};
};
com.typemytype.robofont.mark = (
0.9366,
0.9212,
0.4821,
1
);
};
},
{
color = 3;
glyphname = h.ss01;
kernLeft = h;
kernRight = c_h;
lastChange = "2025-02-16 21:11:41 +0000";
layers = (
{
background = {
shapes = (
{
ref = h;
}
);
};
hints = (
{
name = _corner.serif.lc;
options = 1;
origin = (0,19);
scale = (1,-1);
type = Corner;
}
);
layerId = "484F8FD9-52EC-47CF-91D8-DA5450121283";
shapes = (
{
closed = 1;
nodes = (
(530,-10,o),
(587,28,o),
(644,130,c),
(616,145,l),
(572,65,o),
(529,32,o),
(489,32,cs),
(457,32,o),
(433,56,o),
(433,118,cs),
(433,328,ls),
(433,404,o),
(393,450,o),
(300,450,cs),
(235,450,o),
(166,417,o),
(166,306,c),
(185,306,l),
(185,670,l),
(85,670,l),
(85,0,l),
(185,0,l),
(185,281,ls),
(185,364,o),
(215,412,o),
(268,412,cs),
(313,412,o),
(333,384,o),
(333,327,cs),
(333,120,ls),
(333,57,o),
(356,-10,o),
(459,-10,cs)
);
}
);
width = 523;
},
{
background = {
shapes = (
{
ref = h;
}
);
};
hints = (
{
name = _corner.serif.lc;
options = 1;
origin = (0,19);
scale = (1,-1);
type = Corner;
}
);
layerId = m002;
shapes = (
{
closed = 1;
nodes = (
(453,-10,o),
(523,28,o),
(614,130,c),
(591,145,l),
(520,65,o),
(466,32,o),
(426,32,cs),
(394,32,o),
(378,56,o),
(399,118,cs),
(469,328,ls),
(494,404,o),
(470,450,o),
(377,450,cs),
(312,450,o),
(232,417,o),
(195,306,c),
(214,306,l),
(335,670,l),
(235,670,l),
(12,0,l),
(112,0,l),
(205,281,ls),
(233,364,o),
(279,412,o),
(332,412,cs),
(377,412,o),
(388,384,o),
(369,327,cs),
(300,120,ls),
(279,57,o),
(279,-10,o),
(382,-10,cs)
);
}
);
width = 523;
},
{
background = {
shapes = (
{
ref = h;
}
);
};
hints = (
{
name = _corner.serif.lc;
options = 1;
origin = (0,19);
scale = (1,-1);
type = Corner;
}
);
layerId = m003;
shapes = (
{
closed = 1;
nodes = (
(607,-10,o),
(651,28,o),
(674,130,c),
(641,145,l),
(624,65,o),
(592,32,o),
(552,32,cs),
(520,32,o),
(488,56,o),
(467,118,cs),
(397,328,ls),
(372,404,o),
(316,450,o),
(223,450,cs),
(158,450,o),
(100,417,o),
(137,306,c),
(156,306,l),
(35,670,l),
(-65,670,l),
(158,0,l),
(258,0,l),
(165,281,ls),
(137,364,o),
(151,412,o),
(204,412,cs),
(249,412,o),
(278,384,o),
(297,327,cs),
(366,120,ls),
(387,57,o),
(433,-10,o),
(536,-10,cs)
);
}
);
width = 523;
}
);
userData = {
com.typemytype.robofont.layerData = {
background = {
anchors = (
);
components = (
);
contours = (
{
points = (
{
segmentType = move;
x = 185;
y = 670;
},
{
segmentType = line;
smooth = 0;
x = -16;
y = 670;
},
{
segmentType = line;
smooth = 0;
x = -16;
y = 640;
},
{
segmentType = line;
smooth = 1;
x = 42;
y = 640;
},
{
smooth = 0;
x = 74;
y = 640;
},
{
smooth = 0;
x = 85;
y = 625;
},
{
segmentType = curve;
smooth = 1;
x = 85;
y = 597;
}
);
}
);
lib = {
};
name = h;
unicodes = (
);
width = 523;
};
};
com.typemytype.robofont.mark = (
0.4827,
0.8546,
0.4678,
1
);
};
},
{
color = 6;
glyphname = i;
kernRight = d;
lastChange = "2025-02-16 21:08:01 +0000";
layers = (
{
background = {
hints = (
{
name = _corner.serif.lc;
origin = (0,0);
scale = (1,-1);
type = Corner;
},
{
name = _corner.serif.lc;
origin = (0,2);
scale = (1,-1);
type = Corner;
},
{
name = _corner.serif.lc;
origin = (0,3);
type = Corner;
}
);
shapes = (
{
closed = 1;
nodes = (
(195,0,l),
(195,440,l),
(95,440,l),
(95,0,l)
);
}
);
};
layerId = "484F8FD9-52EC-47CF-91D8-DA5450121283";
shapes = (
{
ref = idotless;
},
{
pos = (2,0);
ref = dotaccentcomb;
}
);
width = 290;
},
{
background = {
hints = (
{
name = _corner.serif.lc;
origin = (0,0);
scale = (1,-1);
type = Corner;
},
{
name = _corner.serif.lc;
origin = (0,2);
scale = (1,-1);
type = Corner;
},
{
name = _corner.serif.lc;
origin = (0,3);
type = Corner;
}
);
shapes = (
{
closed = 1;
nodes = (
(195,0,l),
(195,440,l),
(95,440,l),
(95,0,l)
);
}
);
};
layerId = m002;
shapes = (
{
ref = idotless;
},
{
pos = (2,0);
ref = dotaccentcomb;
}
);
width = 290;
},
{
background = {
hints = (
{
name = _corner.serif.lc;
origin = (0,0);
scale = (1,-1);
type = Corner;
},
{
name = _corner.serif.lc;
origin = (0,2);
scale = (1,-1);
type = Corner;
},
{
name = _corner.serif.lc;
origin = (0,3);
type = Corner;
}
);
shapes = (
{
closed = 1;
nodes = (
(195,0,l),
(195,440,l),
(95,440,l),
(95,0,l)
);
}
);
};
layerId = m003;
shapes = (
{
ref = idotless;
},
{
pos = (2,0);
ref = dotaccentcomb;
}
);
width = 290;
}
);
unicode = 105;
userData = {
com.typemytype.robofont.guides = (
{
angle = 90;
isGlobal = 0;
magnetic = 5;
x = 105;
y = 322;
},
{
angle = 90;
isGlobal = 0;
magnetic = 5;
x = 205;
y = 316;
}
);
com.typemytype.robofont.layerData = {
background = {
anchors = (
);
components = (
);
contours = (
);
lib = {
};
name = i;
unicodes = (
);
width = 290;
};
};
};
},
{
glyphname = idotless;
lastChange = "2025-02-16 21:11:47 +0000";
layers = (
{
anchors = (
{
name = bottom;
pos = (145,0);
},
{
name = ogonek;
pos = (280,0);
},
{
name = top;
pos = (141,440);
}
);
background = {
hints = (
{
name = _corner.serif.lc;
origin = (1,0);
scale = (1,-1);
type = Corner;
},
{
name = _corner.serif.lc;
origin = (1,2);
scale = (1,-1);
type = Corner;
},
{
name = _corner.serif.lc;
origin = (1,3);
type = Corner;
}
);
shapes = (
{
closed = 1;
nodes = (
(178,540,o),
(205,567,o),
(205,604,cs),
(205,640,o),
(178,667,o),
(141,667,cs),
(104,667,o),
(77,640,o),
(77,604,cs),
(77,567,o),
(104,540,o),
(141,540,cs)
);
},
{
closed = 1;
nodes = (
(195,0,l),
(195,440,l),
(95,440,l),
(95,0,l)
);
}
);
};
hints = (
{
name = _corner.serif.lc;
options = 1;
origin = (0,0);
scale = (1,-1);
type = Corner;
},
{
name = _corner.serif.lc;
options = 1;
origin = (0,2);
scale = (1,-1);
type = Corner;
},
{
name = _corner.serif.lc;
origin = (0,3);
type = Corner;
}
);
layerId = "484F8FD9-52EC-47CF-91D8-DA5450121283";
shapes = (
{
closed = 1;
nodes = (
(195,0,l),
(195,440,l),
(95,440,l),
(95,0,l)
);
}
);
width = 290;
},
{
anchors = (
{
name = bottom;
pos = (72,0);
},
{
name = ogonek;
pos = (207,0);
},
{
name = top;
pos = (214,440);
}
);
background = {
hints = (
{
name = _corner.serif.lc;
origin = (1,0);
scale = (1,-1);
type = Corner;
},
{
name = _corner.serif.lc;
origin = (1,2);
scale = (1,-1);
type = Corner;
},
{
name = _corner.serif.lc;
origin = (1,3);
type = Corner;
}
);
shapes = (
{
closed = 1;
nodes = (
(178,540,o),
(205,567,o),
(205,604,cs),
(205,640,o),
(178,667,o),
(141,667,cs),
(104,667,o),
(77,640,o),
(77,604,cs),
(77,567,o),
(104,540,o),
(141,540,cs)
);
},
{
closed = 1;
nodes = (
(195,0,l),
(195,440,l),
(95,440,l),
(95,0,l)
);
}
);
};
hints = (
{
name = _corner.serif.lc;
options = 1;
origin = (0,0);
scale = (1,-1);
type = Corner;
},
{
name = _corner.serif.lc;
options = 1;
origin = (0,2);
scale = (1,-1);
type = Corner;
},
{
name = _corner.serif.lc;
origin = (0,3);
type = Corner;
}
);
layerId = m002;
shapes = (
{
closed = 1;
nodes = (
(122,0,l),
(268,440,l),
(168,440,l),
(22,0,l)
);
}
);
width = 290;
},
{
anchors = (
{
name = bottom;
pos = (218,0);
},
{
name = ogonek;
pos = (353,0);
},
{
name = top;
pos = (68,440);
}
);
background = {
hints = (
{
name = _corner.serif.lc;
origin = (1,0);
scale = (1,-1);
type = Corner;
},
{
name = _corner.serif.lc;
origin = (1,2);
scale = (1,-1);
type = Corner;
},
{
name = _corner.serif.lc;
origin = (1,3);
type = Corner;
}
);
shapes = (
{
closed = 1;
nodes = (
(178,540,o),
(205,567,o),
(205,604,cs),
(205,640,o),
(178,667,o),
(141,667,cs),
(104,667,o),
(77,640,o),
(77,604,cs),
(77,567,o),
(104,540,o),
(141,540,cs)
);
},
{
closed = 1;
nodes = (
(195,0,l),
(195,440,l),
(95,440,l),
(95,0,l)
);
}
);
};
hints = (
{
name = _corner.serif.lc;
options = 1;
origin = (0,0);
scale = (1,-1);
type = Corner;
},
{
name = _corner.serif.lc;
options = 1;
origin = (0,2);
scale = (1,-1);
type = Corner;
},
{
name = _corner.serif.lc;
origin = (0,3);
type = Corner;
}
);
layerId = m003;
shapes = (
{
closed = 1;
nodes = (
(268,0,l),
(122,440,l),
(22,440,l),
(168,0,l)
);
}
);
width = 290;
}
);
unicode = 305;
},
{
color = 3;
glyphname = idotless.ss01;
lastChange = "2025-02-16 21:11:49 +0000";
layers = (
{
anchors = (
{
name = bottom;
pos = (138,0);
},
{
name = ogonek;
pos = (396,0);
},
{
name = top;
pos = (125,440);
}
);
background = {
shapes = (
{
closed = 1;
nodes = (
(282,-10,o),
(339,28,o),
(396,130,c),
(368,145,l),
(324,65,o),
(281,32,o),
(241,32,cs),
(209,32,o),
(185,56,o),
(185,118,cs),
(185,440,l),
(-10,440,l),
(-10,410,l),
(42,410,ls),
(74,410,o),
(85,395,o),
(85,367,cs),
(85,120,ls),
(85,57,o),
(108,-10,o),
(211,-10,cs)
);
},
{
closed = 1;
nodes = (
(163,540,o),
(190,567,o),
(190,604,cs),
(190,640,o),
(163,667,o),
(126,667,cs),
(89,667,o),
(62,640,o),
(62,604,cs),
(62,567,o),
(89,540,o),
(126,540,cs)
);
}
);
};
hints = (
{
name = _corner.serif.lc;
options = 1;
origin = (0,11);
scale = (1,-1);
type = Corner;
}
);
layerId = "484F8FD9-52EC-47CF-91D8-DA5450121283";
shapes = (
{
closed = 1;
nodes = (
(282,-10,o),
(339,28,o),
(396,130,c),
(368,145,l),
(324,65,o),
(281,32,o),
(241,32,cs),
(209,32,o),
(185,56,o),
(185,118,cs),
(185,440,l),
(85,440,l),
(85,120,ls),
(85,57,o),
(108,-10,o),
(211,-10,cs)
);
}
);
width = 275;
},
{
anchors = (
{
name = bottom;
pos = (65,0);
},
{
name = ogonek;
pos = (323,0);
},
{
name = top;
pos = (198,440);
}
);
background = {
shapes = (
{
closed = 1;
nodes = (
(282,-10,o),
(339,28,o),
(396,130,c),
(368,145,l),
(324,65,o),
(281,32,o),
(241,32,cs),
(209,32,o),
(185,56,o),
(185,118,cs),
(185,440,l),
(-10,440,l),
(-10,410,l),
(42,410,ls),
(74,410,o),
(85,395,o),
(85,367,cs),
(85,120,ls),
(85,57,o),
(108,-10,o),
(211,-10,cs)
);
},
{
closed = 1;
nodes = (
(163,540,o),
(190,567,o),
(190,604,cs),
(190,640,o),
(163,667,o),
(126,667,cs),
(89,667,o),
(62,640,o),
(62,604,cs),
(62,567,o),
(89,540,o),
(126,540,cs)
);
}
);
};
hints = (
{
name = _corner.serif.lc;
options = 1;
origin = (0,11);
scale = (1,-1);
type = Corner;
}
);
layerId = m002;
shapes = (
{
closed = 1;
nodes = (
(205,-10,o),
(275,28,o),
(366,130,c),
(343,145,l),
(272,65,o),
(218,32,o),
(178,32,cs),
(146,32,o),
(130,56,o),
(151,118,cs),
(258,440,l),
(158,440,l),
(52,120,ls),
(31,57,o),
(31,-10,o),
(134,-10,cs)
);
}
);
width = 275;
},
{
anchors = (
{
name = bottom;
pos = (211,0);
},
{
name = ogonek;
pos = (469,0);
},
{
name = top;
pos = (52,440);
}
);
background = {
shapes = (
{
closed = 1;
nodes = (
(282,-10,o),
(339,28,o),
(396,130,c),
(368,145,l),
(324,65,o),
(281,32,o),
(241,32,cs),
(209,32,o),
(185,56,o),
(185,118,cs),
(185,440,l),
(-10,440,l),
(-10,410,l),
(42,410,ls),
(74,410,o),
(85,395,o),
(85,367,cs),
(85,120,ls),
(85,57,o),
(108,-10,o),
(211,-10,cs)
);
},
{
closed = 1;
nodes = (
(163,540,o),
(190,567,o),
(190,604,cs),
(190,640,o),
(163,667,o),
(126,667,cs),
(89,667,o),
(62,640,o),
(62,604,cs),
(62,567,o),
(89,540,o),
(126,540,cs)
);
}
);
};
hints = (
{
name = _corner.serif.lc;
options = 1;
origin = (0,11);
scale = (1,-1);
type = Corner;
}
);
layerId = m003;
shapes = (
{
closed = 1;
nodes = (
(359,-10,o),
(403,28,o),
(426,130,c),
(393,145,l),
(376,65,o),
(344,32,o),
(304,32,cs),
(272,32,o),
(240,56,o),
(219,118,cs),
(112,440,l),
(12,440,l),
(118,120,ls),
(139,57,o),
(185,-10,o),
(288,-10,cs)
);
}
);
width = 275;
}
);
},
{
color = 6;
glyphname = j;
lastChange = "2025-02-16 21:08:01 +0000";
layers = (
{
background = {
shapes = (
{
closed = 1;
nodes = (
(193,540,o),
(220,567,o),
(220,604,cs),
(220,640,o),
(193,667,o),
(156,667,cs),
(119,667,o),
(92,640,o),
(92,604,cs),
(92,567,o),
(119,540,o),
(156,540,cs)
);
},
{
closed = 1;
nodes = (
(19,440,l),
(19,410,l),
(67,410,ls),
(99,410,o),
(110,395,o),
(110,367,cs),
(110,-141,ls),
(110,-225,o),
(95,-255,o),
(47,-255,cs),
(15,-255,o),
(-3,-237,o),
(-3,-215,cs),
(-3,-186,o),
(20,-166,o),
(20,-142,cs),
(20,-110,o),
(-4,-86,o),
(-40,-86,cs),
(-76,-86,o),
(-102,-114,o),
(-102,-154,cs),
(-102,-231,o),
(-36,-287,o),
(48,-287,cs),
(144,-287,o),
(210,-227,o),
(210,-132,cs),
(210,440,l)
);
}
);
};
layerId = "484F8FD9-52EC-47CF-91D8-DA5450121283";
shapes = (
{
ref = jdotless;
},
{
pos = (16,0);
ref = dotaccentcomb;
}
);
width = 300;
},
{
background = {
shapes = (
{
closed = 1;
nodes = (
(193,540,o),
(220,567,o),
(220,604,cs),
(220,640,o),
(193,667,o),
(156,667,cs),
(119,667,o),
(92,640,o),
(92,604,cs),
(92,567,o),
(119,540,o),
(156,540,cs)
);
},
{
closed = 1;
nodes = (
(19,440,l),
(19,410,l),
(67,410,ls),
(99,410,o),
(110,395,o),
(110,367,cs),
(110,-141,ls),
(110,-225,o),
(95,-255,o),
(47,-255,cs),
(15,-255,o),
(-3,-237,o),
(-3,-215,cs),
(-3,-186,o),
(20,-166,o),
(20,-142,cs),
(20,-110,o),
(-4,-86,o),
(-40,-86,cs),
(-76,-86,o),
(-102,-114,o),
(-102,-154,cs),
(-102,-231,o),
(-36,-287,o),
(48,-287,cs),
(144,-287,o),
(210,-227,o),
(210,-132,cs),
(210,440,l)
);
}
);
};
layerId = m002;
shapes = (
{
ref = jdotless;
},
{
pos = (16,0);
ref = dotaccentcomb;
}
);
width = 300;
},
{
background = {
shapes = (
{
closed = 1;
nodes = (
(193,540,o),
(220,567,o),
(220,604,cs),
(220,640,o),
(193,667,o),
(156,667,cs),
(119,667,o),
(92,640,o),
(92,604,cs),
(92,567,o),
(119,540,o),
(156,540,cs)
);
},
{
closed = 1;
nodes = (
(19,440,l),
(19,410,l),
(67,410,ls),
(99,410,o),
(110,395,o),
(110,367,cs),
(110,-141,ls),
(110,-225,o),
(95,-255,o),
(47,-255,cs),
(15,-255,o),
(-3,-237,o),
(-3,-215,cs),
(-3,-186,o),
(20,-166,o),
(20,-142,cs),
(20,-110,o),
(-4,-86,o),
(-40,-86,cs),
(-76,-86,o),
(-102,-114,o),
(-102,-154,cs),
(-102,-231,o),
(-36,-287,o),
(48,-287,cs),
(144,-287,o),
(210,-227,o),
(210,-132,cs),
(210,440,l)
);
}
);
};
layerId = m003;
shapes = (
{
ref = jdotless;
},
{
pos = (16,0);
ref = dotaccentcomb;
}
);
width = 300;
}
);
unicode = 106;
userData = {
com.typemytype.robofont.guides = (
);
com.typemytype.robofont.layerData = {
background = {
anchors = (
);
components = (
);
contours = (
);
lib = {
};
name = j;
unicodes = (
);
width = 300;
};
};
};
},
{
glyphname = jdotless;
lastChange = "2025-02-16 21:11:54 +0000";
layers = (
{
anchors = (
{
name = bottom;
pos = (150,-275);
},
{
name = top;
pos = (155,440);
}
);
background = {
shapes = (
{
closed = 1;
nodes = (
(144,-287,o),
(210,-227,o),
(210,-132,cs),
(210,440,l),
(19,440,l),
(19,410,l),
(67,410,ls),
(99,410,o),
(110,395,o),
(110,367,cs),
(110,-141,ls),
(110,-225,o),
(95,-255,o),
(47,-255,cs),
(15,-255,o),
(-3,-237,o),
(-3,-215,cs),
(-3,-186,o),
(20,-166,o),
(20,-142,cs),
(20,-110,o),
(-4,-86,o),
(-40,-86,cs),
(-76,-86,o),
(-102,-114,o),
(-102,-154,cs),
(-102,-231,o),
(-36,-287,o),
(48,-287,cs)
);
},
{
closed = 1;
nodes = (
(193,540,o),
(220,567,o),
(220,604,cs),
(220,640,o),
(193,667,o),
(156,667,cs),
(119,667,o),
(92,640,o),
(92,604,cs),
(92,567,o),
(119,540,o),
(156,540,cs)
);
}
);
};
hints = (
{
name = _corner.serif.lc;
options = 1;
origin = (0,4);
scale = (1,-1);
type = Corner;
}
);
layerId = "484F8FD9-52EC-47CF-91D8-DA5450121283";
shapes = (
{
closed = 1;
nodes = (
(144,-280,o),
(210,-220,o),
(210,-125,cs),
(210,440,l),
(110,440,l),
(110,-134,ls),
(110,-218,o),
(95,-248,o),
(47,-248,cs),
(15,-248,o),
(-3,-230,o),
(-3,-208,cs),
(-3,-179,o),
(20,-159,o),
(20,-135,cs),
(20,-103,o),
(-4,-79,o),
(-40,-79,cs),
(-76,-79,o),
(-102,-107,o),
(-102,-147,cs),
(-102,-224,o),
(-36,-280,o),
(48,-280,cs)
);
}
);
width = 300;
},
{
anchors = (
{
name = bottom;
pos = (-15,-275);
},
{
name = top;
pos = (228,440);
}
);
background = {
shapes = (
{
closed = 1;
nodes = (
(144,-287,o),
(210,-227,o),
(210,-132,cs),
(210,440,l),
(19,440,l),
(19,410,l),
(67,410,ls),
(99,410,o),
(110,395,o),
(110,367,cs),
(110,-141,ls),
(110,-225,o),
(95,-255,o),
(47,-255,cs),
(15,-255,o),
(-3,-237,o),
(-3,-215,cs),
(-3,-186,o),
(20,-166,o),
(20,-142,cs),
(20,-110,o),
(-4,-86,o),
(-40,-86,cs),
(-76,-86,o),
(-102,-114,o),
(-102,-154,cs),
(-102,-231,o),
(-36,-287,o),
(48,-287,cs)
);
},
{
closed = 1;
nodes = (
(193,540,o),
(220,567,o),
(220,604,cs),
(220,640,o),
(193,667,o),
(156,667,cs),
(119,667,o),
(92,640,o),
(92,604,cs),
(92,567,o),
(119,540,o),
(156,540,cs)
);
}
);
};
hints = (
{
name = _corner.serif.lc;
options = 1;
origin = (0,4);
scale = (1,-1);
type = Corner;
}
);
layerId = m002;
shapes = (
{
closed = 1;
nodes = (
(-23,-280,o),
(63,-220,o),
(95,-125,cs),
(283,440,l),
(183,440,l),
(-8,-134,ls),
(-36,-218,o),
(-61,-248,o),
(-109,-248,cs),
(-141,-248,o),
(-153,-230,o),
(-146,-208,cs),
(-136,-179,o),
(-106,-159,o),
(-98,-135,cs),
(-88,-103,o),
(-104,-79,o),
(-140,-79,cs),
(-176,-79,o),
(-211,-107,o),
(-224,-147,cs),
(-250,-224,o),
(-203,-280,o),
(-119,-280,cs)
);
}
);
width = 300;
},
{
anchors = (
{
name = bottom;
pos = (315,-275);
},
{
name = top;
pos = (82,440);
}
);
background = {
shapes = (
{
closed = 1;
nodes = (
(144,-287,o),
(210,-227,o),
(210,-132,cs),
(210,440,l),
(19,440,l),
(19,410,l),
(67,410,ls),
(99,410,o),
(110,395,o),
(110,367,cs),
(110,-141,ls),
(110,-225,o),
(95,-255,o),
(47,-255,cs),
(15,-255,o),
(-3,-237,o),
(-3,-215,cs),
(-3,-186,o),
(20,-166,o),
(20,-142,cs),
(20,-110,o),
(-4,-86,o),
(-40,-86,cs),
(-76,-86,o),
(-102,-114,o),
(-102,-154,cs),
(-102,-231,o),
(-36,-287,o),
(48,-287,cs)
);
},
{
closed = 1;
nodes = (
(193,540,o),
(220,567,o),
(220,604,cs),
(220,640,o),
(193,667,o),
(156,667,cs),
(119,667,o),
(92,640,o),
(92,604,cs),
(92,567,o),
(119,540,o),
(156,540,cs)
);
}
);
};
hints = (
{
name = _corner.serif.lc;
options = 1;
origin = (0,4);
scale = (1,-1);
type = Corner;
}
);
layerId = m003;
shapes = (
{
closed = 1;
nodes = (
(311,-280,o),
(357,-220,o),
(325,-125,cs),
(137,440,l),
(37,440,l),
(228,-134,ls),
(256,-218,o),
(251,-248,o),
(203,-248,cs),
(171,-248,o),
(147,-230,o),
(140,-208,cs),
(130,-179,o),
(146,-159,o),
(138,-135,cs),
(128,-103,o),
(96,-79,o),
(60,-79,cs),
(24,-79,o),
(7,-107,o),
(20,-147,cs),
(46,-224,o),
(131,-280,o),
(215,-280,cs)
);
}
);
width = 300;
}
);
unicode = 567;
},
